<?xml version="1.0" encoding="utf-8"?>
<!-- Generator: Adobe Illustrator 24.0.1, SVG Export Plug-In . SVG Version: 6.00 Build 0)  -->
<svg version="1.1" id="Layer_1" xmlns="http://www.w3.org/2000/svg" xmlns:xlink="http://www.w3.org/1999/xlink" x="0px" y="0px"
	 viewBox="0 0 1920 658" style="enable-background:new 0 0 1920 658;" xml:space="preserve">
<style type="text/css">
	.st0{fill:#121312;}
	.st1{display:none;fill:#121312;}
</style>
<g>
	<path class="st0" d="M1115.15,66.71l-0.07,0.17l150.87,62.48l-149.43-67.11C1116.17,63.77,1115.71,65.26,1115.15,66.71z"/>
	<path class="st0" d="M1522.35,454.74c0,0,1.14-2.39-0.61-5.55c-1.46-2.64-7.53-8.22-11.88-11.89c-1.74-1.48-6.55-0.84-8.15,0.84
		c-0.91,0.43-1.68,1.19-2.05,2.27c-0.78,2.29-1.65,4.87-2.25,6.81c-1.37,4.41,0.2,8.97,0.2,8.97l20.78,2.43c0,0,1.52-3.8-0.61-8.06
		c-1.35-2.7-7.53-8.22-11.88-11.89c-0.9-0.76-1.99-1.01-3.03-0.87c1.66-0.57,4.02-0.77,5.84,0.64c4.49,3.49,10.35,9.28,11.88,11.89
		c1.03,1.75,1.37,2.62,1.22,4.41H1522.35z"/>
	<path class="st0" d="M1430.17,441.72c-0.43-0.38-0.74-0.85-0.96-1.35c0.11,1.29,0.64,2.47,1.61,3.33c2.29,2.05,6.15,1.47,8.6-1.29
		c2.46-2.76,2.59-6.65,0.3-8.69c-1.08-0.96-2.5-1.34-3.96-1.19c0.66,0.15,1.28,0.44,1.8,0.91c1.9,1.7,1.79,4.93-0.25,7.21
		C1435.27,442.94,1432.07,443.42,1430.17,441.72z"/>
	<path class="st0" d="M1415.57,456.31c-0.43-0.38-0.74-0.85-0.96-1.35c0.12,1.29,0.64,2.47,1.61,3.33c2.29,2.05,6.15,1.47,8.6-1.29
		c2.46-2.76,2.59-6.65,0.3-8.7c-1.08-0.96-2.5-1.34-3.96-1.19c0.66,0.15,1.28,0.44,1.8,0.91c1.9,1.7,1.79,4.93-0.25,7.21
		C1420.67,457.53,1417.48,458.01,1415.57,456.31z"/>
	<path class="st0" d="M1467.84,434.08l-1.25-0.75c-2.22-1.33-5.1-0.78-6.67,1.28l-12.2,16c-1.55,2.03-2.15,4.64-1.63,7.14l0.35,1.73
		l2.46-2.85c1-1.17,2.9-0.77,3.35,0.71l0.77,2.54l4.13,0.52l4.77-9.03l5.03,0.77l-3.83-7.47c-0.74-1.43-0.61-3.16,0.33-4.46
		L1467.84,434.08z"/>
	<path class="st0" d="M1474.06,216.62l72.24,30.32c0.67-0.62,1.64-1.5,3.01-2.75L1474.06,216.62z"/>
	<path class="st0" d="M1577.99,257.35c0.53-1.29,0.68-2.39,0.68-2.39l-23.91-8.76l-7.67,0.21c0,0-0.3,0.26-0.67,0.58l29.94,12.57
		C1576.36,259.56,1577.46,258.65,1577.99,257.35z"/>
	<path class="st0" d="M1112.95,71.6c-1.29,2.28-2.36,3.04-2.36,3.04l451.52,187.88c1.07,0.45,2.19,0.76,3.34,0.93
		c1.74,0.26,4.53,0.27,5.93-0.06c2.28-0.53,4.37-2.09,4.37-2.09l-461.28-192.6C1114.47,68.71,1114.24,69.32,1112.95,71.6z"/>
	<polygon class="st0" points="1603.87,432.02 1559.87,484.01 1559.87,489.71 1604.1,439.09 	"/>
	<path class="st0" d="M1590.27,482.18l2.9-3.37c1.18-1.38,3.42-0.9,3.95,0.83l0.91,2.99l4.86,0.61l5.62-10.64l5.93,0.91l-4.52-8.8
		c-0.87-1.69-0.71-3.72,0.39-5.26l5.19-7.22l-1.47-0.89c-2.62-1.57-6.01-0.92-7.86,1.51l-14.39,18.86c-1.83,2.4-2.53,5.47-1.93,8.42
		L1590.27,482.18z"/>
	<path class="st0" d="M1593.57,487.88l9.76,1.28c3.03,0.4,6.03-0.92,7.8-3.41l7.82-11.05c1.33-1.88,0.19-4.51-2.1-4.81l-1.64-0.22
		c1.28,0.85,1.73,2.67,0.75,4.06l-7.34,10.37c-1.66,2.34-4.47,3.57-7.32,3.2l-9.16-1.2c-0.41-0.05-0.77-0.19-1.09-0.38
		C1591.37,486.8,1592.29,487.71,1593.57,487.88z"/>
	<path class="st0" d="M1529.37,376.89l-1.27-2.03l0.76,2.79c0.36,1.33,1.54,2.27,2.92,2.32l17.76,0.67c0,0,7.45-0.3,11.25-5.32
		c3.8-5.02,2.89-10.49,2.89-10.49l-6.38-3.34c0,0-6.23,3.5-7.9,8.36c-1.12,3.27-0.67,7-0.25,9.11l-16.85-0.4
		C1531.09,378.53,1530,377.9,1529.37,376.89z"/>
	<path class="st0" d="M1550.4,458.39c0,0,1.14-2.39-0.61-5.55c-1.46-2.64-7.54-8.22-11.88-11.89c-1.74-1.48-6.55-0.84-8.15,0.84
		c-0.91,0.43-1.68,1.19-2.05,2.26c-0.78,2.29-1.65,4.87-2.25,6.81c-1.37,4.41,0.2,8.97,0.2,8.97l20.78,2.43c0,0,1.52-3.8-0.61-8.06
		c-1.35-2.7-7.54-8.22-11.88-11.89c-0.9-0.76-1.99-1.01-3.03-0.87c1.66-0.57,4.02-0.77,5.84,0.64c4.49,3.49,10.35,9.28,11.88,11.89
		c1.03,1.75,1.37,2.62,1.22,4.41H1550.4z"/>
	<path class="st0" d="M1562.35,378.87l-1.27-2.03l0.76,2.79c0.36,1.33,1.54,2.27,2.92,2.32l17.76,0.67c0,0,7.45-0.3,11.25-5.32
		c3.8-5.02,2.89-10.49,2.89-10.49l-6.38-3.34c0,0-6.23,3.5-7.9,8.36c-1.12,3.27-0.67,7-0.25,9.11l-16.85-0.4
		C1564.08,380.5,1562.98,379.88,1562.35,378.87z"/>
	<polygon class="st0" points="1608.78,440.8 1605.47,440.68 1568.68,485.02 1572.86,486.63 	"/>
	<path class="st0" d="M1571.72,414.69l35.34-35.34c2.83-2.83,1.36-10.62-1.77-13.11l-3.02-2.4l-0.26,2.34
		c-0.86,7.65-4.26,14.78-9.65,20.27l-20.91,21.28c-5.76,5.86-13.8,8.92-22,8.37l-42.46-2.85c-1.51-0.1-2.95-0.64-4.16-1.54
		l-2.71-2.03l1.41,2.62c1.26,2.34,3.62,3.89,6.27,4.1l42.54,3.35C1557.4,420.3,1566.72,419.69,1571.72,414.69z"/>
	<path class="st0" d="M1798.37,550.93c0-6.88,2.54-12.52,5.76-13.06c-0.18-0.04-0.37-0.05-0.56-0.05c-3.46,0-6.27,5.87-6.27,13.11
		c0,7.24,2.81,13.11,6.27,13.11c0.16,0,0.31-0.04,0.46-0.06C1800.86,563.34,1798.37,557.74,1798.37,550.93z"/>
	<path class="st0" d="M1800.35,548.31c0.04-3.27,0.69-4.7,1.06-6.46c-0.95,2.05-1.9,3.88-1.9,7.94c0,7.24,2.48,13.11,5.55,13.11
		c0.55,0,1.08-0.19,1.58-0.55c0.01-0.01,0.02-0.02,0.03-0.03c0,0,0,0,0,0c1.46-1.05,2.67-3.5,3.35-6.69
		c-1.01,3.22-2.63,5.32-4.46,5.32C1802.5,560.96,1800.27,555.55,1800.35,548.31z"/>
	<path class="st0" d="M1809.2,555.15c0.14,0,0.26-0.04,0.39-0.07c-1.45-0.32-2.56-1.95-2.56-3.92c0-1.97,1.1-3.6,2.55-3.92
		c-0.13-0.02-0.25-0.07-0.38-0.07c-1.7,0-3.08,1.79-3.08,3.99C1806.13,553.36,1807.5,555.15,1809.2,555.15z"/>
	<path class="st0" d="M1860.24,520.08c0.03-2.97,0.63-4.26,0.97-5.86c-0.86,1.86-1.72,3.52-1.72,7.21c0,6.57,2.25,11.9,5.04,11.9
		c0.5,0,0.98-0.18,1.44-0.5c0.01-0.01,0.02-0.02,0.03-0.03c0,0,0,0,0,0c1.33-0.96,2.43-3.17,3.04-6.07
		c-0.92,2.92-2.38,4.83-4.04,4.83C1862.19,531.56,1860.16,526.65,1860.24,520.08z"/>
	<path class="st0" d="M1858.45,522.46c0-6.25,2.3-11.36,5.23-11.85c-0.17-0.03-0.34-0.05-0.51-0.05c-3.14,0-5.69,5.33-5.69,11.9
		c0,6.57,2.55,11.9,5.69,11.9c0.14,0,0.28-0.04,0.42-0.06C1860.7,533.72,1858.45,528.64,1858.45,522.46z"/>
	<path class="st0" d="M1868.28,526.29c0.12,0,0.24-0.04,0.36-0.06c-1.32-0.29-2.32-1.77-2.32-3.56c0-1.79,1-3.26,2.31-3.56
		c-0.12-0.02-0.23-0.06-0.35-0.06c-1.54,0-2.79,1.62-2.79,3.62C1865.48,524.67,1866.73,526.29,1868.28,526.29z"/>
	<path class="st0" d="M1908.08,497.55c0-5.49,2.02-9.98,4.6-10.41c-0.15-0.03-0.29-0.04-0.44-0.04c-2.76,0-5,4.68-5,10.45
		c0,5.77,2.24,10.45,5,10.45c0.12,0,0.24-0.03,0.37-0.05C1910.06,507.45,1908.08,502.99,1908.08,497.55z"/>
	<path class="st0" d="M1913.82,505.55c-2.44,0-4.23-4.32-4.16-10.09c0.03-2.61,0.55-3.74,0.85-5.15c-0.76,1.64-1.51,3.09-1.51,6.33
		c0,5.77,1.98,10.45,4.42,10.45c0.44,0,0.86-0.15,1.26-0.44c0.01-0.01,0.02-0.01,0.02-0.02c0,0,0,0,0,0
		c1.17-0.84,2.13-2.79,2.67-5.33C1916.56,503.88,1915.27,505.55,1913.82,505.55z"/>
	<path class="st0" d="M1916.72,500.92c0.11,0,0.21-0.04,0.31-0.05c-1.16-0.26-2.04-1.55-2.04-3.13c0-1.57,0.88-2.87,2.03-3.13
		c-0.1-0.02-0.2-0.06-0.31-0.06c-1.36,0-2.45,1.42-2.45,3.18C1914.26,499.49,1915.36,500.92,1916.72,500.92z"/>
	<path class="st0" d="M1874.63,177.2c6.47,0.86,5.41-0.64,6.18-3.59c0.77-2.95,8.76-8.28,6.19-13.25c-2.57-4.97-6.7-4.32-11.07-7.43
		c-4.37-3.12-7.22-7.5-2.94-10.63c4.29-3.13,7.08-4.59,6.7-5.53s-3.58-0.73-2.53-4.33c1.05-3.6-0.76-6.76-2.66-6.44
		c-1.9,0.32-0.18-2.72,2.15-6.38c2.33-3.66,8.29-5.76,2.03-13.15c-2.15-2.54-0.99,4.51-2.1,7.12c-1.11,2.61-10.05,8.24-10.7,12.98
		c-0.65,4.73-2.29,4.2-2.29,4.2s-4.16,0.13-6.42,4.84s-5.11,15.16-1.31,24.21C1859.66,168.87,1868.16,176.34,1874.63,177.2z"/>
	<path class="st0" d="M1848.33,182.12c7.04,4.67,9.77,2.25,9.58-0.62c-0.19-2.87-4.57-4.66-8.4-10.11
		c-3.84-5.45-4.63-12.78-7.87-13.21C1839.35,157.87,1841.29,177.45,1848.33,182.12z"/>
	<path class="st0" d="M1905.16,64.76c-9.68,2.34-8.28,10.8-10.05,14.77c-1.77,3.96-3.38,2.36-6.53,6.41
		c-3.16,4.05,3.61,16.02,5.12,19.56c1.51,3.54,12.74,11.79,8.38,18.71c-4.36,6.93-0.46,10.92,1.86,13.76
		c2.32,2.84-2.48,7.86,0.85,13.07c2.76,4.32,10.43,3.02,15.1,5.16V60.79C1915.51,61.79,1910.55,63.46,1905.16,64.76z"/>
	<path class="st0" d="M1895.54,208.88c-7.27,7.85-5.29,16.06-7.68,18.78c-2.39,2.72-8.85-2.95-10.98-1.21
		c-2.13,1.74-10.12,7.07-12.38,6.91c-2.26-0.17,4.58,1.3-8.78-11.62s-27.68-11.35-35.95-10.17c-8.26,1.18-4.23,8.94-5.06,10.92
		s-2.49,1.12-6.92,2.05c-0.04,0.01-0.07,0.02-0.1,0.03c-2.03-1.93-4.38-3.6-7.02-4.93c-4.3-2.18-9.2-3.33-14.15-3.33
		c-8.49,0-16.14,3.34-21.53,8.66c-11.93-1.96-23.98-3.82-34.11-5.16v-2.28v-2.58v-2.81c0,0-2.49-2.13-14.32-3.81
		c-5.13-2.7-10.94-4.17-16.99-4.17c-4.49,0-8.78,0.8-12.71,2.25c-2.15-0.03-4.39-0.05-6.75-0.05c-44.08,0-48.04,6.08-48.04,6.08
		v2.81v2.58v2.81v2.81v1.05l-53.51,2.3c0,0-8.39,1.57-18.1,6.49L1114.3,49.14l-0.07-0.02c-0.25-0.06-6.29-1.42-11.55,11.02
		c-4.9,11.58,0.19,15.93,0.41,16.11l0.23,0.14l433,179.33c-1.63,3.11-2.95,6.52-3.83,10.29c-8.39,36.05,0.8,49.22,7.5,53.96
		c3.13,2.21,5.73,2.59,5.73,2.59l142.28,1.37c0,0-0.79-0.57-2.05-1.72l-12.24-4.5l-41.58-67.6l12.6-6.43l-39.24,1.09l2.84,1.63
		c0,0,5.8,5.21,7.6,11.55c2.89,10.18-3.34,19.76-3.34,19.76l-15.51-8.51c0,0,2.74-4.56,3.65-13.07c0.45-4.16-0.52-8.16-1.63-11.18
		l-1.67,0.05c2.14,5.73,2.17,12.65-0.42,19.31c-5.03,12.9-18,19.89-28.95,15.61c-1.84-0.72-3.49-1.73-4.96-2.94
		c0.85,0.51,1.73,0.97,2.68,1.34c10.96,4.28,23.92-2.71,28.95-15.61c2.35-6.03,2.55-12.28,0.97-17.67l-2.56,0.07
		c1.78,5.33,1.25,11.7-1.3,18.23c0,0-0.93-0.41-2.05-0.84c-1.6-0.61-2.31-0.43-2.2-0.68c2.6-6.42,2.48-12.1,0.46-16.57l-7.75,0.22
		c0.3,0.41,0.57,0.83,0.81,1.27c2.24,4.21,1.83,9.05-1.23,14.4c-4.43,7.76-20.63,2.09-20.79,2.03L1104.17,74.77
		c-0.59-0.58-3.84-4.38,0.19-13.91c4.33-10.24,8.88-10.03,9.39-9.96l447.56,184.72c8.21-4.25,16.9-6.76,16.9-6.76l91.06-3.88
		c4.74-11.1,16.51-18.99,30.29-18.99c6.74,0,13.17,1.91,18.59,5.39c-4.15-1.7-8.74-2.65-13.57-2.65c-12.67,0-23.69,6.47-29.37,16
		l4.59-0.2c0,0-0.51,0.75-1.29,1.96l6.68-3.41c0.48-0.18,6.9-2.56,22.93-3.42c0.43-0.02,0.92-0.03,1.45-0.03
		c9.31,0,33,3.49,56.05,7.29c5.08-5.36,12.55-8.78,20.89-8.78c3.06,0,6.1,0.48,8.97,1.38c-1.22-0.15-2.46-0.24-3.73-0.24
		c-8.32,0-15.78,3.28-21,8.49c8.89,1.49,17.51,2.99,24.98,4.32c-0.19,0.3-0.37,0.62-0.55,0.97c-2.56,4.98,0.16,7.46,0.16,7.46
		s-0.48,2.51-0.53,6.68c-0.05,4.17,3.95,6.48,5.12,9.61c1.17,3.13-4.3,12.79-6.43,14.53c-2.13,1.74-5.62,2.29-10.33,3.88
		c-4.71,1.59-3.63,5.69-3.63,5.69s-1.6,2.67-6.98,8.79c-5.38,6.12-0.09,18.93-0.09,18.93c-0.54,1.39-0.84,2.93-0.94,4.57
		c-29.43-1.44-62.39-3.43-70.46-4.46c-14.29-1.82-30.4-20.37-30.4-20.37s6.69,27.67,17.03,30.71c3.1,0.91,44.79,2.15,85.02,3.16
		c0.28,0.95,0.6,1.9,0.97,2.83l-52.72-1.25l-156.09,1.91c-1.44,2.2-2.28,4.83-2.28,7.65v2.1c0,3.55,1.33,6.77,3.5,9.24l-46.83-0.71
		l-119.64,62.5l-22.34-2l-58.98,16.42l0.51,0.05l-39.14,51.02l3.31,0.52l0.06,0l-0.08,0.1l39.52-51.68l56.24,5.01l21-4.49l4-9.34
		l122.22-63.85l238.96,3.65l11.79,85.21l-8.5,2.05l-2.22-0.31l-62.93-3.19l-64.21,19.44l-1.3-0.59l-32.83,72.51l3.32,1.5
		l32.83-72.51l-1.32-0.6l123.24,15.35l27.06-17.03c0,0,63.42-14.79,107.19-27.31c0.2,0.38,0.41,0.74,0.61,1.06
		c1.6,2.53,9.37,9.47,14.44,13.15l-5.85,2.09c-0.23-0.14-0.43-0.27-0.56-0.37c-2.02-1.47-2.96-1.09-2.87,0.19
		c0.01,0.18,0.26,0.59,0.7,1.16l-157.59,56.24l-5.02,59.74c0,0-4.1,31.47,11.4,44.24c9.44,7.77,24.04,14.74,31.91,18.2
		c-9.88-10.54-14.94-38.84-11.64-71.32c4.09-40.28,19.47-71.7,34.36-70.19c0.15,0.02,0.3,0.05,0.45,0.08
		c-14.04,2.1-27.91,32.18-31.76,70.12c-3.57,35.17,2.66,65.42,14.2,73.54l16.26-12.69c-2.11,0.98-4.29,1.38-6.49,1.38
		c-11.86,0-13.98-41.65-13.98-41.65s0.1-0.88,0.29-2.44c1.64,20.16,5.97,33.64,12.91,35.95c8.24-2.04,19.4-25.91,19.4-56.61
		c0-30.91-4.76-51.74-12.53-53.26c0.3-0.06,0.61-0.1,0.9-0.1c8.31,0,13.45,21.24,13.45,53.36c0,32.11-12.21,56.78-20.52,56.78
		c-0.12,0-0.23-0.03-0.34-0.04c0.58,0.16,1.18,0.27,1.8,0.27c10.49,0,25.9-25.63,25.9-59.01c0-32.23-6.05-53.92-15.91-55.37
		c14.57,1.74,22.87,38.97,14.47,81.39c-3.58,18.08-8.11,28.7-13.17,34.53l20.19-15.76l15.66-1.83
		c-10.59-7.18-16.32-34.79-13.06-66.89c3.71-36.55,17.67-65.07,31.18-63.7c0.14,0.01,0.27,0.05,0.41,0.07
		c-12.74,1.91-25.33,29.2-28.82,63.63c-2.54,24.97,0.37,47.22,6.78,59.25l9.23-7.21c-5.75-9.98-6.95-33.37-6.95-33.37
		s0.09-0.8,0.26-2.21c1.42,17.51,5.09,29.44,10.92,32.27l7.72-6.03c5.62-8.69,10.69-25.29,10.69-45c0-28.05-4.32-46.95-11.37-48.33
		c0.28-0.05,0.55-0.09,0.82-0.09c7.54,0,12.21,19.28,12.21,48.42c0,18-4.23,33.42-9.24,42.58l3.89-3.04l1.69-0.03
		c5.51-9.71,9.87-24.42,9.87-41.33c0-29.25-5.49-48.93-14.44-50.25c13.22,1.58,20.76,35.36,13.13,73.87
		c-1.4,7.07-2.96,12.88-4.65,17.63l13.47-4.36l5.41-2.66l-5.68-7.35c-4.28-11.25-5.96-28.55-4.02-47.66
		c2.38-23.44,9.56-43.11,17.88-51.56c0.38,0.41,0.79,0.85,1.23,1.31c-7.81,9.05-14.42,27.94-16.68,50.25
		c-1.86,18.29-0.39,34.91,3.41,46.06l8.18-6.39c-2.95-9.78-3.64-23.26-3.64-23.26s0.08-0.7,0.23-1.94
		c0.86,10.53,2.64,18.76,5.32,23.71l0.3,0.49l0.41,0.72c1.11,1.71,2.36,2.9,3.74,3.52l1.53-0.16c3.13-1.55,6.63-6.67,9.4-14.2
		l-0.73-1.8l1.79-1.39v-25.08c0,1.59-0.9,2.9-2.08,3.13c-0.51,3.18-1.73,5.68-3.26,6.67c-1.1,6.48-3.42,10.95-6.11,10.95
		c-3.75,0-6.79-8.68-6.79-19.39s3.04-19.39,6.79-19.39c2.18,0,4.11,2.95,5.35,7.51c1.95,0.59,3.53,3.52,4.07,7.39
		c1.15,0.26,2.03,1.56,2.03,3.13V460.8c-0.37-1.08-0.77-2.04-1.19-2.91c0.4,0.29,0.8,0.56,1.19,0.81v-1.35v-7.06v-0.01
		c-0.15-0.09-0.32-0.17-0.48-0.26c0.16,0.05,0.32,0.09,0.48,0.15v-5.74v-6.55v-18.46v-72.62v-4.14v-3.59v-62.86
		c-0.92,0.47-1.86,0.97-2.8,1.52c-4.94,2.89-0.74,13.2-0.74,13.2s-3.65,3.12-7.04,6.87c-3.39,3.75,1.02,15.65,1.02,15.65
		s-13-4.29-18.4-13.24c-5.39-8.95,2.28-14.26,2.28-14.26s-4.32-12.23-0.28-25c4.04-12.77,11.96-7.51,9.49-10.88
		c-2.46-3.37,2.52-5.62,4.95-7.7c1.67-1.43,6.69-2.78,11.51-3.81v-42.57C1909.24,196.73,1901.52,202.42,1895.54,208.88z
		 M1864.51,345.5l-13.99,0.55l-0.07-1.96c1.65-3.15,0.61-6.69,1.59-8.25c0.12-0.19,0.28-0.36,0.46-0.52l13.58,8.88
		C1865.57,344.64,1865.04,345.07,1864.51,345.5z M1867.86,342.42l-0.1-2.64c0.16,0.19,0.33,0.36,0.48,0.47
		C1868.89,340.71,1868.61,341.5,1867.86,342.42z M1873.72,325.78c-2.07,2.7-6.01,1.35-8.13,3.1c-0.78,0.64-0.9,2.16-0.64,3.89
		l-9.47,3.44l-2.21-1.45c2.09-1.27,5.91-2.14,8.56-4.35c3.35-2.78,2.78-6.6,1.14-7.08c-1.64-0.48-5.28-2.28-4.24-6.84
		c1.04-4.56,11.42-1.06,14.78,1.28C1876.88,320.12,1875.79,323.08,1873.72,325.78z M1786.74,552.75c0-13.35,3.81-24.17,8.51-24.17
		c0.21,0,0.6-0.02,1.05-0.02c-4.66,0.14-8.42,10.96-8.42,24.31c0,12.25,3.17,22.36,7.3,24.05
		C1790.52,576.8,1786.74,566.03,1786.74,552.75z M1810.65,547.24c1.45,0.33,2.55,1.95,2.55,3.92c0,2-1.13,3.64-2.61,3.93
		c-0.64,3.99-2.17,7.12-4.09,8.36c-1.38,8.13-4.29,13.74-7.66,13.74c-4.7,0-8.51-10.89-8.51-24.32c0-13.43,3.81-24.32,8.51-24.32
		c2.73,0,5.15,3.7,6.71,9.42C1807.99,538.7,1809.97,542.38,1810.65,547.24z M1847.89,524.11c0-12.11,3.46-21.94,7.73-21.94
		c0.19,0,0.54-0.01,0.95-0.02c-4.23,0.13-7.64,9.95-7.64,22.06c0,11.12,2.88,20.29,6.62,21.82
		C1851.31,545.94,1847.89,536.16,1847.89,524.11z M1869.59,519.11c1.31,0.3,2.31,1.77,2.31,3.56c0,1.81-1.03,3.3-2.37,3.57
		c-0.58,3.62-1.97,6.46-3.71,7.59c-1.25,7.38-3.89,12.47-6.95,12.47c-4.27,0-7.73-9.88-7.73-22.07c0-12.19,3.46-22.07,7.73-22.07
		c2.48,0,4.68,3.36,6.09,8.55C1867.17,511.36,1868.97,514.7,1869.59,519.11z M1899.72,499.1c0,9.77,2.53,17.83,5.82,19.17
		c-3.72-0.09-6.73-8.68-6.73-19.26c0-10.64,3.04-19.27,6.79-19.27c0.16,0,0.48-0.01,0.84-0.02
		C1902.72,479.83,1899.72,488.46,1899.72,499.1z M1913.89,441.9c-1.53,0.48-3.06,1.37-4.56,2.62c-0.51-0.28-0.98-0.55-1.42-0.79
		c1.78-1.28,3.59-2.04,5.4-2.21C1913.52,441.65,1913.71,441.78,1913.89,441.9z"/>
	<path class="st0" d="M1344.71,482.55l-37.94-5.39c0,0-1.82,24.63,0,31.47c1.82,6.84,6.38,14.59,13.68,20.07
		c1.49,1.12,7.15,3.79,15.34,7.33c-9.23,11.88-32.25,41.16-32.25,41.16l-31.73,11.11l-25.11,19.2c-3.83-1.01-4.18,0.7-12.2-2.36
		c-10.66-4.07-23.65-4.08-21.14-2.7c2.51,1.37,2.41,6.14,2.41,6.14s-5.35-4.59-12.29-4.22c-6.94,0.37-6,2.76-10.15,3.21
		c-4.15,0.45-14.74,8.56-18.6,14.01c-3.86,5.46,0.3,10.51-0.37,13.14c-0.67,2.63-6.1,5.16-8.78,9.36s-0.73,8.16,1.22,8.11
		c1.89-0.05,6.24,0.61,6.94,5.47h46.03h57.13h642.99v-90.19v-2.08v-1.71c-0.83,0.66-1.68,1.33-2.52,1.99c0,0-0.01,0-0.01,0.01
		c-1.83,1.44-77.78,54.3-98.82,68.93c-0.98,0.41-1.78,0.69-2.39,0.8c-14.59,2.74-61.56-24.17-69.32-33.29
		c-7.75-9.12-7.75-11.86-9.12-31.92c-0.5-7.28-0.03-18.52,0.76-29.89c-3.34,6.38-10.54,9.86-17.68,8.24l-101.08-18.37l-2.54,1.4
		l-240.29-41.83l12.81,8.54v0c-0.5,4.79-0.55,9.8-0.1,14.95c1.21,13.8,5.84,26.07,12.46,35.13c-12.33-4.45-23.96-9.46-25.98-11.93
		c-4.1-5.02-9.12-40.13-9.12-40.13l7.06-7.06l1.23,0.21l-4.34-0.75l27.95-65.22l-15.16,3.24l-35.05,56.2l-65.67-10.34l61.86,9.74
		L1344.71,482.55z M1460.66,535.2l30.22,5.81c-6.9,2.19-25.05,7.89-39.51,11.85C1455.33,548.1,1458.51,542.08,1460.66,535.2z"/>
	<path class="st0" d="M1155.16,635.58c-2.72-0.9,3.38-8.42,5.24-11.51c1.86-3.1,10.36-4.86,7.78-18.41
		c-2.58-13.55-22.74-19.79-22.74-19.79s1.79-3.46-2.55-6.48s-15.91-0.43-15.91-0.43s-2.85-1.24-6.59-1.74
		c-3.74-0.5-18.8,4.25-23.79,8.57c-4.99,4.33-8.25,4.04-11.08-1.15c-2.83-5.19,5.46-4.12,5.46-4.12s2.67-2.23,6.9-5.47
		s-0.01-11.02-0.01-11.02c3.42-3.31-1.71-10.35-5.23-13.29c-3.52-2.94-21.91-10.67-25.38-10.48c-3.47,0.18-10.27-1.08-12.67-0.18
		c-2.4,0.9-4.24,7.22-3.51,10.09c0.73,2.86,7.65,6.44,7.9,9.08c0.25,2.64-7.96,0.78-7.96,0.78s2.29,3.82-0.37,6.05
		s-9.29-4.61-13.02-7.08c-3.73-2.47-4.52-6.49-10.38-5.36c-5.86,1.12-8.14-4.67-7.4-7.79c0.74-3.12,6.08,0.44,10.59-0.95
		c4.52-1.38,0.98-8.65,4.33-11.15c3.35-2.5,16.34-2.49,19.51-1.45c3.17,1.04,21.7,4.13,24.42,5.03s3.6,0.16,3.07-1.21
		c-0.54-1.36-17.49-10.44-26.43-12.14c-8.94-1.7-14.81-8.64-18.2-11.24c-3.39-2.6-15.51,0.59-19.16,0.46
		c-3.65-0.14-2.17-4.66-7.82-4.01c-5.65,0.65-14.58,4.95-17.99,6.29c-3.05,1.2-10.87,1.46-18.88,4.57c-0.66-3.25-1.76-8-3.56-13.86
		c-3.51-11.44-16.45-14.24-22.37-21.77c-5.92-7.53,0.56-38.68,4.85-45.3c4.3-6.62,13.35-11.17,24.82-19.63
		c11.47-8.46,4.93-18.71,4.93-18.71s2.04-8.69,11.36-30.11c9.32-21.42-16.3-51.77-16.3-51.77c1.44-24.23-21.95-55.46-46.43-67.53
		s-17.21-1.12-43.9-11.32s-59.25-10.21-52.96-6.77c6.29,3.44,6.05,15.37,6.05,15.37s-13.4-11.49-30.79-10.57
		c-17.39,0.93-15.04,6.9-25.44,8.04s-36.93,21.44-46.6,35.11c-9.67,13.67,0.76,26.33-0.93,32.91c-1.69,6.58-15.29,12.92-22,23.45
		c-6.7,10.53-1.82,20.44,3.07,20.32s16.41,1.6,17.55,14.96s-30.26,12.9-41.49,9.42c-11.23-3.47-10.84-12.5-7.55-21.69
		s15.22-8.95,19.5-15.57c4.29-6.62-10.41-26.48-17.21-28.73c-6.8-2.25,8.47-21.08,13.14-28.84c4.67-7.76,25.94-12.18,19.49-46.13
		c-6.46-33.95-56.98-49.57-56.98-49.57s4.48-8.67-6.39-16.23c-10.86-7.56-39.87-1.07-39.87-1.07s-7.14-3.11-16.51-4.35
		s-47.09,10.64-59.6,21.48c-12.5,10.84-20.68,10.11-27.76-2.88c-7.09-12.99,13.69-10.32,13.69-10.32s6.68-5.59,17.29-13.71
		c10.61-8.12-0.02-27.61-0.02-27.61c8.57-8.3-4.29-25.93-13.11-33.3c-8.82-7.38-54.9-26.72-63.59-26.26
		c-8.69,0.46-25.72-2.7-31.73-0.44c-6.02,2.26-10.63,18.1-8.79,25.27c1.83,7.17,19.17,16.13,19.8,22.75
		c0.63,6.62-19.94,1.96-19.94,1.96s5.74,9.58-0.94,15.16s-23.28-11.55-32.62-17.73s-11.33-16.25-26-13.44
		c-14.67,2.82-20.38-11.7-18.53-19.52c1.86-7.81,15.22,1.09,26.54-2.38c11.32-3.47,2.46-21.68,10.84-27.94
		c8.39-6.26,40.93-6.25,48.87-3.63c7.93,2.62,54.37,10.34,61.17,12.6c6.8,2.25,9.03,0.39,7.69-3.02
		c-1.34-3.42-43.82-26.15-66.21-30.41c-22.39-4.26-37.11-21.64-45.6-28.16s-38.86,1.49-48.01,1.14
		c-9.15-0.34-5.44-11.67-19.59-10.04s-36.54,12.41-45.08,15.77c-8.54,3.36-32.06,3.74-54.44,14.52
		c-22.38,10.78-12.84,9.98-12.84,9.98s11.54,9.27,4.7,11.96c-6.83,2.69-30.49,27.78-37.87,36.6s-2.91,32.7-6.56,45.98
		s-9.01,27.22-11.11,36.92c-2.1,9.7-6.91,17.51-16.31,21.21s-13.37-16.43-13.37-16.43s-9.18-3.29-19.8,4.83
		c-10.61,8.12-11.62,5.56-16.72,2.63c-5.1-2.93-14.98-2.98-28.98,1.54c-14,4.52-26.14,11.27-35.4,22.81
		c-9.27,11.54-28.06,51.48-28.48,65.45c-0.42,13.97,8.47,39.07,7.31,33.61c-1.16-5.46,18.81-12.34,23.06-9.07
		c4.24,3.26,25.97,18.38,25.97,18.38s-13.02,12.03-19.93,29.54s-5.47,33.71-3.11,42.23s-3.48,8.69-13.43,16.55
		c-9.95,7.86,1.14,12.37,6.39,16.23c5.24,3.85,14.32,3.24,20.29,0.89c5.98-2.35,11.39-26.18,18.76-38.94
		c7.36-12.76,26.21-17.22,26.21-17.22c-4.17,14.46,1.91,24.89,1.91,24.89c3.63-8.33,24.48-20.48,33.33-18.05
		c8.85,2.44,5.07,7.87-6.26,13.31c-11.33,5.45-34.48,51.05-39.36,68.74c-4.87,17.7-0.64,53.51-0.64,53.51
		c-0.64-6.65,15.58-13.04,15.58-13.04c-4.35,16.51,16.8,42.7,22.05,48.52c5.25,5.82,27.22,9.01,27.22,9.01s-13.17,9.13-22.57,12.83
		s-37.37,5.83-37.37,5.83s22.62,11.81,20.03,17.76c-2.59,5.95-25.59,5.14-40.75,4.2c-15.16-0.94-13.94-5.36-20.2-13.75
		c-6.26-8.39-37.07-14.01-46.8-22.02c-0.05-0.04-0.1-0.09-0.16-0.14v82.47c14.46-12.74,32.83-22.81,49.32-26.73
		c37.88-8.99,35.03,13.83,35.03,13.83s25.26-5.99,22.64,4.9c-2.62,10.89,13.49,22.31,13.49,22.31s-0.58-14.56,16.96-12.59
		c17.54,1.97,28.88-14.32,18.66-15.23c-10.22-0.91-8.37-26.29-8.37-26.29c22.72-9.93,36.74,13.16,43.69,18.31
		c6.96,5.15,16.23-6.39,31.78-14.48c15.55-8.09,14.8,5.02,25.75-2.24c10.95-7.27,21.71-12.49,27.84-11.94s-17.04,29.39,13.29,31.26
		s52.66-47.35,52.66-47.35s4.82,7.97,28.73-1.44c23.91-9.41,28.86-41.93,28.86-41.93c-4.73-7.01,2.73-30.66,5.19-44.45
		s-10.73-32.27-26.22-34.06c-15.5-1.79-26.98-20.94-26.98-20.94s13.85-7.42,1.48-21.29c-12.36-13.87-37,3.71-38.35,0.3
		c-1.34-3.42,10.85-20.05,33.93-34.06s35.14-5.94,35.14-5.94s0.96-20.1,42.28-2.83c41.31,17.27,11.12,23.24,24.25,51.6
		c13.13,28.36,39.92,23.74,39.92,23.74c-2.4-28.64,35.53-14.97,64.4,3.26s18.38,34.19,18.38,34.19c9,5.33-7.51,33.53-10.78,37.77
		c-3.26,4.24-13.1,26.85-3.23,39.77c9.87,12.91-2.33,8.77-10.2,13.84s-10.79,10.16-1.43,11.41c9.37,1.25,31.26-13.29,34.55-22.47
		c3.29-9.18,15.61-17.98,26.58-30.19c10.97-12.21-9.51-36.69-9.51-36.69s7.22-11.72,13.2-24.92c5.98-13.2-16.47-41.84-16.47-41.84
		s39.25,0.33,61.81,20.06c22.56,19.72,6.25,40.93,6.25,40.93s22.5,29.61,22.63,68.02c0.13,38.41-26.08,30.98-16.41,38.02
		c9.67,7.04-1.97,17.54-6.79,25.35c-4.82,7.81-29.09,21.31-43.79,29.07c-14.7,7.76-16.04,4.34-11.05-5.51
		c5-9.86-14.67,2.82-26.96,6.67c-7.68,2.41-7.98,4.99-6.51,8.75h157.58c-1-7.24-2.06-12.92-0.38-16.77
		c4.14-9.52,26.75,0.32,31.05-6.3c4.3-6.62,21.46-28.17,27.77-29.68c6.31-1.51-13.63,0.45,34.12,24.06
		c30.11,14.89,56.24,13.7,76.84,8.17c-1.74,1.94-4.66,5.62-6.5,10.27c-1.46,3.69-1.98,7.23-2.01,10.25h18.3
		c2.87-1.7,5.71-2.38,5.71-2.38c-0.24,0.83-0.39,1.62-0.48,2.38h105.43c7.24-3.29,11.01-0.78,11.01-0.78s0.38-8.02,16.88-1.13
		c1.61,0.68,2.95,1.31,4.06,1.91h98.5c-0.11-1.35,0.23-2.86,0.78-4.39c1.31-3.67,6.07-3.57,7.79-6.21
		C1163.74,644.41,1157.88,636.48,1155.16,635.58z"/>
	<path class="st0" d="M844.03,648.2c-4.62-1.73-9.45-1-11.71,2.25c-1.94,2.79-3.45,4.51-5.43,7.21h20.96
		C850.86,653.55,848.61,649.91,844.03,648.2z"/>
</g>
<rect x="-68.13" y="627.65" class="st1" width="2056.27" height="411.25"/>
</svg>
