<?xml version="1.0" encoding="utf-8"?>
<!-- Generator: Adobe Illustrator 24.0.1, SVG Export Plug-In . SVG Version: 6.00 Build 0)  -->
<svg version="1.1" id="Layer_1" xmlns="http://www.w3.org/2000/svg" xmlns:xlink="http://www.w3.org/1999/xlink" x="0px" y="0px"
	 viewBox="0 0 942 1179" style="enable-background:new 0 0 942 1179;" xml:space="preserve">
<style type="text/css">
	.st0{fill:#101110;}
</style>
<g>
	<path class="st0" d="M408.93,541.07c8.96,9.29,9.25,9.89,12.23,24.9c14.14-11.28,25.19-13.23,36.13-6.39
		c9.15,5.71,13.73,17.13,11.07,27.6c-3.14,12.38-12.24,18.81-30.21,20.69c12.14,11.01,16.97,23.37,7.05,38.06
		c-6.03,8.93-17.89,13.24-28.18,10.52c-13.44-3.56-19.04-13.23-19.87-27.25c-4.12,3.39-7.25,6.98-11.63,9.01
		c-4.52,2.09-9.2,2.89-14.99,3.32c11.01,11.42,15.04,23.69,5.09,37.61c-6.35,8.87-18.29,13.02-28.61,10.09
		c-14.14-4.02-19.45-14.39-19.39-29.45c-11.53,12.53-24.06,17.38-38.65,9.1c-9.04-5.13-13.74-16.17-11.46-26.4
		c3.28-14.7,13.91-21.02,29.3-22.63c-8.21-6.92-12.03-15.09-12-25.21c-15.27,11.71-26.42,13.58-37.47,6.59
		c-9.28-5.87-13.84-17.45-11.02-28c3.37-12.61,12.78-19.12,30.88-20.76c-12.24-11.15-17.05-23.61-6.84-38.27
		c6.02-8.65,17.62-12.69,27.86-10.44c12.05,2.65,18.53,10.98,20.84,27.42c3.9-3.25,7.07-6.8,11.48-8.8c4.54-2.05,9.22-2.8,15.2-3.16
		c-11.62-11.92-15.46-24.76-4.35-38.4c6.94-8.52,16.73-11.62,27.44-8.63c14.12,3.94,19.31,14.4,19.2,29.39
		c11.64-12.34,24.15-17.29,38.69-8.4c8.97,5.48,13.09,16.95,10.49,27.13C434.25,531.89,425.77,538.26,408.93,541.07z M397.34,536.89
		c-9.69-7.5-12.31-16.32-12.36-27.56c-7.32,9.55-15.72,13.46-27.35,13.87c8.73,6.44,11.86,14.45,13.31,24.03
		C378.5,540.12,386.22,536.78,397.34,536.89z M429.62,604.79c-9.34-6.83-13.12-15.13-13.52-26.23
		c-6.61,8.31-14.48,11.79-24.41,13.34c6.86,7.2,10.1,15.02,10.16,24.68C411.46,607.57,415.21,605.95,429.62,604.79z M330.63,652.18
		c7.3-10.52,16.19-13.98,27.39-15.12c-8.76-6.06-11.18-14.26-13.23-23.21c-7.27,6.9-15.07,10.12-25.31,10.39
		C327.75,631.55,331.34,639.79,330.63,652.18z M299.36,582.39c6.85-9.14,15.02-12.15,24.77-13.9c-6.7-7.16-10.07-14.76-9.9-25.04
		c-7.68,8.72-16.57,12.03-28.22,12.13C295.11,562.46,299.35,570.17,299.36,582.39z M364.4,563.45c-6.97,6.69-14.08,9.7-23.19,11.08
		c6.44,6.41,9.28,13.52,10.67,22.19c6.72-6.38,14.07-9.34,22.97-10.85C368.47,579.46,365.52,572.6,364.4,563.45z"/>
	<path class="st0" d="M438.56,543.13c-5.91-12.21-0.41-27.42,12.13-33.57c12.74-6.25,28.47-0.92,34.29,11.61
		c5.7,12.27,0.01,27.4-12.57,33.37C459.82,560.52,444.48,555.36,438.56,543.13z"/>
	<path class="st0" d="M321.42,502.29c-12.92,5.81-28.35,0.37-34.12-12.05c-5.89-12.67,0.37-28.2,13.63-33.89
		c12.99-5.57,28.33,0.14,33.87,12.59C340.35,481.42,334.31,496.49,321.42,502.29z"/>
	<path class="st0" d="M428.56,670.11c5.71,12.37,0.02,27.57-12.66,33.76c-12.97,6.33-28.68,1.05-34.52-11.62
		c-5.85-12.7,0.24-28.16,13.42-34.1C407.68,652.34,422.84,657.72,428.56,670.11z"/>
	<path class="st0" d="M263.31,652.37c-13.07,5.92-28.51,0.56-34.35-11.94c-5.96-12.77,0.21-28.32,13.6-34.32
		c13.38-6,28.97-0.28,34.56,12.66C282.58,631.4,276.4,646.44,263.31,652.37z"/>
	<path class="st0" d="M197.87,572.34c-5.69-12.27,0.13-27.24,12.9-33.22c12.96-6.07,28.72-0.54,34.22,11.99
		c5.44,12.39-0.57,27.28-13.34,33.01C218.77,589.91,203.55,584.6,197.87,572.34z"/>
	<path class="st0" d="M311.97,725.07c-5.61-12.3,0.19-27.3,12.86-33.31c12.9-6.12,28.51-0.64,33.92,11.89
		c5.37,12.42-0.62,27.35-13.29,33.11C332.67,742.58,317.55,737.31,311.97,725.07z"/>
	<path class="st0" d="M295.03,719.42c-12.66,6.05-27.99,0.99-33.89-11.19c-5.98-12.36,0.09-28.05,13.11-33.93
		c12.83-5.79,28.03-0.49,33.63,11.73C313.51,698.28,307.71,713.36,295.03,719.42z"/>
	<path class="st0" d="M251.55,533.78c-12.73,6.04-27.98,0.94-33.89-11.34c-5.88-12.21-0.2-27.15,12.59-33.18
		c12.72-5.99,27.94-0.86,33.82,11.37C269.93,512.82,264.31,527.74,251.55,533.78z"/>
	<path class="st0" d="M496.76,637.58c5.75,12.13,0.27,26.92-12.22,32.95c-12.49,6.03-27.37,1.02-33.15-11.18
		c-5.77-12.17-0.25-26.97,12.29-32.98C476.16,620.38,490.99,625.41,496.76,637.58z"/>
	<path class="st0" d="M515.41,587.95c5.77,12.08,0.36,26.82-12.08,32.84c-12.42,6.01-27.27,1.02-33.08-11.14
		c-5.79-12.12-0.34-26.87,12.14-32.87C494.8,570.81,509.62,575.83,515.41,587.95z"/>
	<path class="st0" d="M440.82,487.16c-12.61,5.81-27.25,0.66-32.94-11.59c-5.68-12.25-0.12-26.68,12.49-32.45
		c12.6-5.76,27.21-0.59,32.87,11.62C458.91,466.95,453.39,481.37,440.82,487.16z"/>
	<path class="st0" d="M357.62,457.88c-5.64-12.3,0.04-26.74,12.74-32.45c12.69-5.7,27.35-0.44,32.96,11.81
		c5.62,12.27-0.01,26.69-12.67,32.42C377.95,475.41,363.25,470.18,357.62,457.88z"/>
	<path class="st0" d="M243.67,701.52c-12.79,6.04-27.25,1.27-33.06-10.93c-5.96-12.52-0.32-27,12.85-33
		c12.79-5.83,27.13-0.82,32.8,11.46C261.92,681.29,256.42,695.49,243.67,701.52z"/>
	<path class="st0" d="M477.46,687.7c5.68,12.13,0.4,26.25-12.06,32.23c-12.49,6-26.7,1.2-32.38-10.95
		c-5.69-12.16-0.37-26.31,12.12-32.26C457.63,670.78,471.79,675.59,477.46,687.7z"/>
	<path class="st0" d="M340.08,451.56c-12.55,5.65-26.8,0.54-32.38-11.62c-5.56-12.12-0.01-26.08,12.6-31.72
		c12.54-5.61,26.75-0.48,32.32,11.65C358.17,431.95,352.66,445.89,340.08,451.56z"/>
	<path class="st0" d="M490.65,504.01c-12.38,5.85-26.58,0.96-32.22-11.12c-5.64-12.08-0.25-26.07,12.2-31.75
		c12.11-5.52,26.05-0.68,31.66,10.97C508.08,484.14,502.96,498.19,490.65,504.01z"/>
	<path class="st0" d="M395.73,753.24c-12.62,5.87-26.85,0.81-32.43-11.53c-5.53-12.24,0.11-26.39,12.86-32.27
		c12.61-5.82,26.8-0.75,32.36,11.55C414.03,733.2,408.43,747.34,395.73,753.24z"/>
	<path class="st0" d="M282.83,451.27c5.76,12.17,0.41,26.25-12.21,32.1c-12.69,5.89-27.12,1-32.86-11.15
		c-5.77-12.2-0.38-26.3,12.28-32.13C262.72,434.24,277.1,439.15,282.83,451.27z"/>
	<path class="st0" d="M489.26,559.08c-5.32-12.04,0.36-25.93,12.87-31.47c12.32-5.46,26.26-0.17,31.64,12
		c5.3,12.01-0.34,25.88-12.8,31.45C508.63,576.56,494.64,571.29,489.26,559.08z"/>
	<path class="st0" d="M211.89,633.75c-12.82,5.91-27.26,0.98-33-11.28c-5.88-12.55-0.12-26.92,13.15-32.82
		c12.81-5.7,27.14-0.52,32.74,11.81C230.35,613.72,224.72,627.84,211.89,633.75z"/>
	<path class="st0" d="M502.69,675.94c-5.4-11.3-0.2-25.46,11.43-31.11c11.56-5.62,25.71-0.86,31.13,10.46
		c5.39,11.27,0.22,25.41-11.37,31.08C522.31,692.04,508.11,687.29,502.69,675.94z"/>
	<path class="st0" d="M167.77,504.21c-5.5-11.32-0.14-25.59,11.76-31.36c12.01-5.82,27.11-0.7,32.48,10.99
		c5.26,11.47-0.28,25.62-12.21,31.15C187.89,520.52,173.31,515.62,167.77,504.21z"/>
	<path class="st0" d="M325.63,786.07c-12.02,5.49-26.55,0.46-31.79-11.01c-5.38-11.78,0.66-26.74,12.9-32
		c12.19-5.24,26.58,0.04,31.53,11.54C343.29,766.25,337.52,780.63,325.63,786.07z"/>
	<path class="st0" d="M191.79,683.75c-12.16,5.46-26.84,0.36-32.13-11.16c-5.41-11.81,0.73-26.79,13.11-32.01
		c12.33-5.2,26.87,0.14,31.86,11.69C209.69,663.96,203.82,678.35,191.79,683.75z"/>
	<path class="st0" d="M148,554.4c-5.51-11.35-0.11-25.71,11.84-31.53c12.05-5.87,27.24-0.75,32.62,10.97
		c5.28,11.5-0.3,25.75-12.29,31.33C168.2,570.73,153.55,565.84,148,554.4z"/>
	<path class="st0" d="M257.73,421.85c-5.21-11.54,0.42-25.55,12.36-30.79c11.98-5.25,26.29-0.07,31.46,11.39
		c5.2,11.51-0.39,25.5-12.3,30.76C277.26,438.51,262.92,433.34,257.73,421.85z"/>
	<path class="st0" d="M446.41,769.36c-11.58,5.77-25.95,1.17-31.58-10.13c-5.69-11.42-0.2-26.26,11.8-31.9
		c11.75-5.53,25.98-0.68,31.33,10.66C463.3,749.29,458.05,763.56,446.41,769.36z"/>
	<path class="st0" d="M287.07,736.74c5.48,11.31,0.14,25.88-11.7,31.87c-11.97,6.05-27.27,1.04-32.64-10.7
		c-5.28-11.54,0.33-26.03,12.27-31.72C266.9,720.5,281.54,725.33,287.07,736.74z"/>
	<path class="st0" d="M377.8,407.8c-5.1-11.53,0.48-25.34,12.29-30.45c11.88-5.13,25.92,0.09,30.97,11.51
		c5.09,11.5-0.45,25.29-12.23,30.42C396.95,424.46,382.87,419.25,377.8,407.8z"/>
	<path class="st0" d="M539.64,520.89c-11.67,5.33-25.64,0.33-30.82-11.04c-5.19-11.41,0.17-25.26,11.81-30.55
		c11.66-5.29,25.6-0.27,30.76,11.07C556.57,501.75,551.25,515.58,539.64,520.89z"/>
	<path class="st0" d="M427.95,425.65c-5.21-11.43,0.2-25.26,11.93-30.5c11.74-5.25,25.76-0.18,30.94,11.19
		c5.2,11.4-0.18,25.21-11.87,30.48C447.2,442.1,433.14,437.04,427.95,425.65z"/>
	<path class="st0" d="M563.81,605.94c5.3,11.33,0.09,25.3-11.5,30.83c-11.6,5.54-25.64,0.71-30.96-10.66
		c-5.31-11.36-0.07-25.35,11.56-30.86C544.5,589.76,558.51,594.6,563.81,605.94z"/>
	<path class="st0" d="M508.37,453.82c-11.71,5.33-24.79,0.6-30.05-10.88c-5.24-11.43-0.2-24.33,11.57-29.65
		c11.71-5.29,24.75-0.54,29.99,10.9C525.12,435.59,520.11,448.48,508.37,453.82z"/>
	<path class="st0" d="M200.24,423.24c12.08-5.26,25.44-0.36,30.73,11.23c5.38,11.81-0.17,25.09-12.72,30.4
		c-12.1,5.12-25.43,0.03-30.59-11.7C182.57,441.59,188.05,428.54,200.24,423.24z"/>
	<path class="st0" d="M345.26,791.57c-5.19-11.61,0.11-24.93,12.14-30.55c12.25-5.72,25.81-0.79,31,11.25
		c5,11.62-0.47,24.85-12.58,30.36C363.81,808.08,350.49,803.27,345.26,791.57z"/>
	<path class="st0" d="M484.37,725.42c-5.34-11.47-0.43-24.64,11.28-30.31c11.99-5.81,25.38-1.15,30.69,10.66
		c5.15,11.46,0.06,24.56-11.72,30.12C502.86,741.44,489.71,736.9,484.37,725.42z"/>
	<path class="st0" d="M370.36,371.05c5.32,11.43,0.38,24.38-11.41,29.82c-12.11,5.59-25.6,0.77-30.92-11.06
		c-5.16-11.47,0.05-24.38,11.96-29.67C351.86,354.87,365.04,359.61,370.36,371.05z"/>
	<path class="st0" d="M570.26,587c-11.63,5.34-24.63,0.67-29.88-10.75c-5.36-11.65-0.13-24.81,11.97-30.15
		c11.63-5.14,24.54-0.23,29.65,11.26C587.05,568.73,581.95,581.63,570.26,587z"/>
	<path class="st0" d="M192.09,740.52c-5.46-11.65-0.33-25.14,11.78-30.95c12.4-5.95,26.3-1.24,31.71,10.74
		c5.27,11.66-0.06,25.06-12.23,30.75C211.16,756.76,197.55,752.17,192.09,740.52z"/>
	<path class="st0" d="M160.34,614.88c-12.17,5.76-25.91,1.33-31.5-10.18c-5.78-11.88-0.51-25.54,12.02-31.24
		c12.23-5.56,25.8-0.9,31.25,10.72C177.56,595.79,172.45,609.15,160.34,614.88z"/>
	<path class="st0" d="M140.31,664.97c-11.51,5.54-25.82,0.84-31.04-10.22c-5.22-11.06,0.29-25.02,11.94-30.33
		c11.37-5.18,25.16-0.62,30.47,10.07C157.08,645.38,151.86,659.41,140.31,664.97z"/>
	<path class="st0" d="M171.99,733.18c-11.54,5.55-25.64,0.95-30.92-10.09c-5.27-11.02,0.03-24.9,11.6-30.43
		c11.53-5.51,25.6-0.89,30.86,10.12C188.79,713.78,183.53,727.64,171.99,733.18z"/>
	<path class="st0" d="M319.63,353.52c5.02,10.89-0.49,24.57-11.83,29.38c-11.2,4.75-24.73-0.2-29.63-10.84
		c-5.03-10.91,0.51-24.61,11.89-29.4C301.25,337.94,314.74,342.9,319.63,353.52z"/>
	<path class="st0" d="M568.79,441.73c5.01,10.74-0.24,24.35-11.29,29.21c-10.89,4.79-24.14,0-29.04-10.52
		c-5.02-10.77,0.27-24.39,11.34-29.23C550.68,426.43,563.9,431.24,568.79,441.73z"/>
	<path class="st0" d="M588.56,537.27c-11.07,5.04-24.76-0.04-29.38-10.91c-4.56-10.74,0.66-23.86,11.41-28.72
		c11.07-5,24.72,0.09,29.33,10.93C604.48,519.28,599.3,532.39,588.56,537.27z"/>
	<path class="st0" d="M426.36,818.99c-11.38,5.24-25.23,0.27-29.97-10.77c-4.79-11.14,0.9-24.93,12.3-29.88
		c11.24-4.88,24.56-0.07,29.41,10.61C443.07,799.94,437.67,813.78,426.36,818.99z"/>
	<path class="st0" d="M207.99,403.75c-5.07-10.9,0.38-24.57,11.78-29.54c11.42-4.99,25.38,0.13,30.19,11.05
		c4.73,10.75-0.49,23.91-11.53,29.03C227.15,419.51,213.06,414.64,207.99,403.75z"/>
	<path class="st0" d="M465.87,775.08c-4.92-10.99,0.52-24.76,11.78-29.84c11.32-5.11,25-0.06,29.65,10.92
		c4.59,10.83-0.63,24.11-11.54,29.31C484.56,790.82,470.77,786.03,465.87,775.08z"/>
	<path class="st0" d="M147.65,496c-11.41,5.06-25.07,0.23-30-10.62c-4.94-10.9,0.44-24.19,11.82-29.21
		c11.41-5.03,25.03-0.18,29.94,10.64C164.35,477.69,159,490.97,147.65,496z"/>
	<path class="st0" d="M553.69,692.04c-4.85-10.73,0.19-23.85,11.09-28.9c10.94-5.07,24-0.43,28.82,10.23
		c4.84,10.71-0.17,23.8-11.04,28.88C571.62,707.35,558.52,702.72,553.69,692.04z"/>
	<path class="st0" d="M601.42,652.47c-10.72,5.31-23.89,0.95-29.01-9.63c-5.1-10.52-0.36-23.67,10.43-28.99
		c10.72-5.28,23.85-0.9,28.96,9.66C616.89,634,612.19,647.13,601.42,652.47z"/>
	<path class="st0" d="M305.71,835.33c-11.3,5.27-25.01,0.57-29.9-10.27c-4.92-10.9,0.46-24.53,11.7-29.75
		c11.3-5.24,24.97-0.52,29.84,10.29C322.27,816.47,316.94,830.1,305.71,835.33z"/>
	<path class="st0" d="M266.15,788.16c5.15,10.7,0.02,24.43-11.2,29.95c-11.18,5.5-25.04,1.02-30.24-9.77
		c-5.17-10.73,0-24.47,11.25-29.97C247.15,772.9,260.97,777.39,266.15,788.16z"/>
	<path class="st0" d="M139.67,516.68c5.05,10.78-0.26,24.31-11.59,29.52c-11.34,5.21-25.24,0.47-30.31-10.35
		c-5.06-10.81,0.28-24.36,11.65-29.55C120.75,501.12,134.61,505.88,139.67,516.68z"/>
	<path class="st0" d="M488.06,358.23c4.84,10.8-0.25,23.52-11.35,28.28c-11.16,4.8-24.08-0.16-28.7-11.02
		c-4.54-10.67,0.42-22.97,11.21-27.81C470.28,342.72,483.23,347.47,488.06,358.23z"/>
	<path class="st0" d="M398.26,358.1c-4.86-10.85,0.31-23.6,11.5-28.34c11.22-4.76,24.15,0.23,28.77,11.09
		c4.54,10.67-0.43,22.97-11.25,27.83C416.15,373.67,403.11,368.92,398.26,358.1z"/>
	<path class="st0" d="M167.16,445.51c-11.39,5.08-24.01,0.66-29.09-10.19c-5.21-11.13-0.09-23.65,11.72-28.69
		c11.41-4.88,23.92-0.23,28.84,10.71C183.54,428.22,178.57,440.43,167.16,445.51z"/>
	<path class="st0" d="M327.34,841.63c-4.88-10.92,0.07-23.39,11.39-28.71c11.54-5.43,24.26-0.84,29.12,10.49
		c4.69,10.93-0.45,23.32-11.84,28.52C344.71,857.09,332.26,852.62,327.34,841.63z"/>
	<path class="st0" d="M107.6,596.3c-11.56,5.13-24.35,0.61-29.39-10.39c-5.15-11.24,0.22-24.03,12.21-29.11
		c11.59-4.91,24.28-0.15,29.14,10.91C124.39,578.71,119.19,591.16,107.6,596.3z"/>
	<path class="st0" d="M537.04,375.88c4.94,10.66,0.35,22.68-10.59,27.67c-10.94,5-23.15,0.63-28.1-10.07
		c-4.95-10.69-0.33-22.72,10.63-27.7C519.92,360.82,532.09,365.21,537.04,375.88z"/>
	<path class="st0" d="M574.51,722.92c5.06,10.69,0.65,23-10.19,28.41c-11.18,5.58-23.74,1.35-28.78-9.7
		c-4.9-10.75-0.25-23.01,10.73-28.26C557.22,708.12,569.46,712.27,574.51,722.92z"/>
	<path class="st0" d="M376.8,350.65c-11.12,4.84-23.43,0.21-28.29-10.66c-4.82-10.77,0.12-22.79,11.36-27.64
		c11.12-4.8,23.39-0.16,28.24,10.68C392.91,333.77,388,345.78,376.8,350.65z"/>
	<path class="st0" d="M203.33,800.51c-11.41,5.52-24.28,1.4-29.54-9.45c-5.41-11.16-0.4-24.17,11.39-29.61
		c11.47-5.3,24.21-0.95,29.29,9.98C219.55,782.37,214.71,795.02,203.33,800.51z"/>
	<path class="st0" d="M629.81,575c4.85,10.68,0.18,22.76-10.75,27.82c-10.89,5.05-23,0.66-27.89-10.1
		c-4.86-10.7-0.16-22.8,10.8-27.84C612.86,559.86,624.94,564.26,629.81,575z"/>
	<path class="st0" d="M130.92,686.19c5.03,10.89-0.03,23.49-11.55,28.74c-11.47,5.23-24.28,0.68-29.19-10.37
		c-4.75-10.67,0.24-23.03,11.4-28.26C113.02,670.94,125.88,675.28,130.92,686.19z"/>
	<path class="st0" d="M268.13,336.35c4.81,10.67-0.35,22.99-11.62,27.72c-10.88,4.56-23.28-0.14-28.01-10.62
		c-4.83-10.7,0.37-23.03,11.67-27.74C251.04,321.18,263.41,325.89,268.13,336.35z"/>
	<path class="st0" d="M606.64,487.08c-10.47,4.91-22.71,0.67-27.58-9.55c-5.01-10.52-0.31-22.92,10.54-27.78
		c10.5-4.71,22.64-0.24,27.35,10.06C621.66,470.09,617.09,482.18,606.64,487.08z"/>
	<path class="st0" d="M448.22,825.14c-5.01-10.72-0.17-23.34,10.96-28.54c10.76-5.03,23.05-0.78,27.92,9.65
		c5,10.7,0.19,23.3-10.91,28.52C465.42,839.83,453.1,835.6,448.22,825.14z"/>
	<path class="st0" d="M151.42,782.89c-10.96,5.21-24.06,0.89-28.97-9.57c-4.91-10.46,0.1-23.38,11.07-28.56
		c10.95-5.18,24.03-0.84,28.92,9.59C167.34,764.78,162.36,777.69,151.42,782.89z"/>
	<path class="st0" d="M87.65,646.36c-11.03,5.05-24.14,0.57-28.98-9.92c-4.84-10.49,0.3-23.3,11.34-28.33
		c11.03-5.02,24.1-0.52,28.93,9.95C103.77,628.52,98.67,641.31,87.65,646.36z"/>
	<path class="st0" d="M610.06,543.6c-4.71-10.07,0.04-22.64,10.33-27.35c10.29-4.72,22.83-0.13,27.3,9.99
		c4.38,9.91-0.17,22.02-10.1,26.84C627.41,558.03,614.77,553.68,610.06,543.6z"/>
	<path class="st0" d="M378.92,859c-4.96-10.18-0.28-23.12,10.25-28.41c10.5-5.28,23.41-1.17,28.37,9
		c4.95,10.15,0.3,23.07-10.21,28.39C396.84,873.28,383.89,869.2,378.92,859z"/>
	<path class="st0" d="M298.67,322.1c-4.63-10.26,0.49-22.79,11.13-27.27c10.68-4.5,23.47,0.4,27.85,10.66
		c4.3,10.08-0.61,22.16-10.89,26.76C316.19,336.99,303.29,332.33,298.67,322.1z"/>
	<path class="st0" d="M555.74,773.46c4.55,10.27-0.39,22.9-10.86,27.75c-10.51,4.87-23.11,0.37-27.66-9.89
		c-4.56-10.29,0.41-22.94,10.91-27.77C538.63,758.71,551.2,763.22,555.74,773.46z"/>
	<path class="st0" d="M186.62,395.32c-10.78,4.77-23.73,0.15-28.46-10.15c-4.73-10.31,0.34-22.89,11.12-27.63
		c10.77-4.74,23.7-0.11,28.41,10.17C202.41,377.99,197.37,390.56,186.62,395.32z"/>
	<path class="st0" d="M575.96,420.54c-10.18,4.92-22.88,0.56-27.66-9.5c-4.77-10.04-0.05-22.55,10.26-27.25
		c10.04-4.57,22.27-0.35,27.12,9.35C590.62,403.03,586.16,415.61,575.96,420.54z"/>
	<path class="st0" d="M245.16,840.37c4.58,10.39-0.59,22.84-11.47,27.57c-10.67,4.64-22.78,0.26-27.24-9.86
		c-4.6-10.42,0.61-22.88,11.51-27.59C228.64,825.89,240.71,830.27,245.16,840.37z"/>
	<path class="st0" d="M106.35,449.53c4.8,10.25-0.2,22.55-11.06,27.23c-10.63,4.58-22.87,0.25-27.56-9.76
		c-4.81-10.27,0.22-22.59,11.1-27.25C89.46,435.2,101.67,439.54,106.35,449.53z"/>
	<path class="st0" d="M86.45,499.72c4.78,10.28-0.26,22.64-11.16,27.34c-10.68,4.6-22.95,0.26-27.62-9.78
		c-4.79-10.3,0.28-22.67,11.21-27.35C69.55,485.35,81.79,489.7,86.45,499.72z"/>
	<path class="st0" d="M285.74,884.57c-10.66,5.18-23.26,0.92-27.86-9.43c-4.49-10.11,0.25-22.22,10.65-27.24
		c10.66-5.15,23.23-0.88,27.81,9.45C300.83,867.43,296.12,879.52,285.74,884.57z"/>
	<path class="st0" d="M623.35,658.9c-4.61-9.89-0.36-21.48,9.65-26.36c10.27-5.01,22.12-0.82,26.66,9.4
		c4.41,9.94-0.02,21.45-10.1,26.17C639.47,672.83,627.95,668.79,623.35,658.9z"/>
	<path class="st0" d="M445.52,318.27c-10.18,4.65-21.89,0.59-26.64-9.26c-4.88-10.11-0.32-21.89,10.22-26.46
		c10.25-4.44,21.85-0.15,26.41,9.77C460.06,302.23,455.68,313.63,445.52,318.27z"/>
	<path class="st0" d="M631.61,717.43c-10.03,4.96-21.68,1.15-26.48-8.66c-4.93-10.09-0.54-22.09,9.86-26.98
		c10.11-4.75,21.64-0.71,26.25,9.18C645.85,700.86,641.63,712.48,631.61,717.43z"/>
	<path class="st0" d="M206.06,344.58c-10.58,4.86-22.33,0.84-27.1-9.29c-4.77-10.14-0.26-21.5,10.37-26.18
		c10.31-4.54,21.8-0.58,26.54,9.13C220.8,328.32,216.55,339.76,206.06,344.58z"/>
	<path class="st0" d="M109.76,737.74c4.69,10.26-0.02,21.97-10.84,26.97c-10.81,4.99-22.73,0.9-27.44-9.42
		c-4.7-10.29,0.03-22,10.89-26.99C93.16,723.35,105.06,727.45,109.76,737.74z"/>
	<path class="st0" d="M39.65,686.99c-4.82-10.26-0.22-21.99,10.58-27.02c10.81-5.03,22.76-1.04,27.57,9.18
		c4.81,10.24,0.24,21.96-10.54,27C56.45,701.22,44.47,697.24,39.65,686.99z"/>
	<path class="st0" d="M193.06,822.81c4.92,10.17,0.56,22.02-10.02,27.24c-10.67,5.26-22.66,1.52-27.56-8.6
		c-4.93-10.2-0.54-22.06,10.06-27.26C176.21,808.96,188.18,812.71,193.06,822.81z"/>
	<path class="st0" d="M66,550.1c4.85,10.2,0.34,21.86-10.39,26.85c-10.78,5.02-22.78,1.05-27.62-9.15
		c-4.86-10.23-0.32-21.9,10.43-26.87C49.2,535.94,61.17,539.93,66,550.1z"/>
	<path class="st0" d="M346.98,874.48c4.56,10.17-0.09,21.84-10.7,26.82c-10.55,4.95-22.24,0.86-26.84-9.41
		c-4.57-10.2,0.11-21.88,10.74-26.84C330.73,860.13,342.38,864.23,346.98,874.48z"/>
	<path class="st0" d="M115.45,426.06c-10.71,4.89-22.57,0.82-27.32-9.4c-4.75-10.22-0.1-21.67,10.69-26.39
		c10.45-4.57,22.02-0.58,26.77,9.24C130.5,409.67,126.11,421.19,115.45,426.06z"/>
	<path class="st0" d="M495.13,335.9c-10.13,4.67-21.64,0.7-26.38-9.11c-4.88-10.11-0.46-21.68,10.02-26.28
		c10.18-4.47,21.58-0.27,26.15,9.62C509.51,320.02,505.25,331.23,495.13,335.9z"/>
	<path class="st0" d="M535.95,823.84c4.65,10.09,0.25,21.6-10.17,26.54c-10.35,4.91-21.79,0.82-26.33-9.42
		c-4.37-9.86-0.02-21.14,10.03-26.06C519.81,809.84,531.29,813.73,535.95,823.84z"/>
	<path class="st0" d="M586.92,758.29c-4.8-10.02-0.66-21.49,9.55-26.46c10.2-4.97,21.57-1.07,26.2,8.97
		c4.5,9.75,0.47,20.98-9.32,25.95C603.17,771.9,591.69,768.23,586.92,758.29z"/>
	<path class="st0" d="M440.75,848.24c10.44-4.91,21.93-0.8,26.47,9.47c4.49,10.15-0.21,21.67-10.82,26.52
		c-10.2,4.66-21.44,0.65-26.01-9.28C425.72,864.79,430.22,853.2,440.75,848.24z"/>
	<path class="st0" d="M553.98,327.84c4.64,9.89,0.39,21.03-9.77,25.61c-10.13,4.57-21.45,0.38-25.95-9.61
		c-4.36-9.67-0.18-20.58,9.63-25.15C537.99,313.99,549.36,317.97,553.98,327.84z"/>
	<path class="st0" d="M405.25,274.3c4.74,9.92,0.49,21.17-9.76,25.81c-10.29,4.65-21.78,0.53-26.38-9.49
		c-4.47-9.72-0.29-20.72,9.61-25.34C388.97,260.5,400.53,264.43,405.25,274.3z"/>
	<path class="st0" d="M276.04,313.22c-10.42,4.74-22.08,0.66-26.75-9.38c-4.67-10.03-0.16-21.32,10.34-25.89
		c10.17-4.43,21.54-0.43,26.21,9.22C290.66,297.15,286.4,308.5,276.04,313.22z"/>
	<path class="st0" d="M667.57,618.5c-10.06,4.69-21.29,0.56-25.75-9.47c-4.42-9.93,0.09-21.15,10.32-25.71
		c9.81-4.38,20.76-0.33,25.23,9.32C681.94,602.53,677.67,613.8,667.57,618.5z"/>
	<path class="st0" d="M629.51,494.4c-4.74-9.85-0.66-21.13,9.34-25.86c10.03-4.74,21.28-0.77,25.85,9.12
		c4.45,9.61,0.49,20.62-9.12,25.36C645.58,507.94,634.22,504.19,629.51,494.4z"/>
	<path class="st0" d="M624.07,437.23c-10.07,4.54-21.29,0.32-25.73-9.71c-4.39-9.91,0.16-21,10.41-25.42
		c9.82-4.24,20.76-0.09,25.2,9.55C638.49,421.52,634.19,432.67,624.07,437.23z"/>
	<path class="st0" d="M35.3,627.26c-10.23,4.83-22.65,0.7-27.19-9.05c-4.55-9.75,0.32-21.8,10.66-26.41
		c10.06-4.48,22.01-0.48,26.63,8.89C50.14,610.32,45.54,622.43,35.3,627.26z"/>
	<path class="st0" d="M360.85,908.65c-4.37-9.72,0.41-21.74,10.46-26.34c10.06-4.61,22-0.28,26.14,9.46
		c4.05,9.52-0.54,21.12-10.23,25.82C377.25,922.43,365.21,918.35,360.85,908.65z"/>
	<path class="st0" d="M103.92,823.85c-4.58-9.74,0.19-21.9,10.46-26.68c10.26-4.77,22.52-0.55,26.88,9.25
		c4.25,9.55-0.33,21.29-10.21,26.14C120.88,837.56,108.5,833.58,103.92,823.85z"/>
	<path class="st0" d="M594.5,816.41c-9.59,4.83-21.6,0.8-25.93-8.72c-4.22-9.27,0.08-20.9,9.44-25.59
		c9.59-4.81,21.57-0.76,25.89,8.74C608.11,800.08,603.85,811.7,594.5,816.41z"/>
	<path class="st0" d="M345.34,281.81c-9.65,4.42-21.85,0.03-26.08-9.39c-4.13-9.2,0.36-20.59,9.78-24.88
		c9.65-4.39,21.82,0.01,26.04,9.41C359.21,266.13,354.75,277.5,345.34,281.81z"/>
	<path class="st0" d="M686.09,568.82c-9.26,4.65-21.21,0.59-25.52-8.69c-4.19-9.02-0.04-20.49,9.03-25.03
		c9.27-4.63,21.18-0.55,25.48,8.71C699.27,552.81,695.15,564.27,686.09,568.82z"/>
	<path class="st0" d="M144.97,350.02c4.63,9.49-0.06,21.5-10.15,25.95c-9.82,4.33-21.79,0.21-26.31-9.07
		c-4.64-9.52,0.08-21.54,10.19-25.97C128.52,336.63,140.46,340.76,144.97,350.02z"/>
	<path class="st0" d="M593.09,370.77c-9.55,4.17-21.42-0.42-25.29-9.79c-3.83-9.25,0.76-20.48,10.01-24.49
		c9.54-4.14,21.38,0.46,25.25,9.81C606.88,355.53,602.31,366.75,593.09,370.77z"/>
	<path class="st0" d="M20.5,737.95c-4.67-9.42-0.06-21.4,10.03-26.09c9.79-4.55,21.51-0.75,26.07,8.44
		c4.66,9.4,0.08,21.36-9.99,26.07C36.81,750.94,25.07,747.16,20.5,737.95z"/>
	<path class="st0" d="M516.16,874.48c4.34,9.21,0.31,20.33-9.09,25.11c-9.68,4.91-21.12,1.09-25.39-8.49
		c-4.16-9.33,0.12-20.39,9.63-24.96C500.81,861.57,511.82,865.27,516.16,874.48z"/>
	<path class="st0" d="M672.65,453.53c-9.35,4.28-19.87,0.44-24.08-8.79c-4.21-9.22-0.19-19.68,9.18-23.94
		c9.35-4.25,19.84-0.41,24.04,8.81C685.98,438.81,682,449.25,672.65,453.53z"/>
	<path class="st0" d="M78.32,814.54c-10.14,4.77-21.22,1.01-25.61-8.69c-4.37-9.65,0.13-20.53,10.39-25.13
		c9.88-4.43,20.64-0.76,25.05,8.54C92.7,798.84,88.45,809.77,78.32,814.54z"/>
	<path class="st0" d="M234.47,270.25c4.18,9.4-0.2,19.95-10.05,24.14c-9.83,4.18-20.73,0.08-24.94-9.37
		c-4.19-9.42,0.22-19.98,10.09-24.15C219.4,256.72,230.27,260.82,234.47,270.25z"/>
	<path class="st0" d="M706.85,659.41c4.31,9.25,0.34,19.7-9.15,24.1c-9.15,4.23-19.29,0.6-23.49-8.42
		c-4.31-9.27-0.33-19.73,9.18-24.11C692.54,646.77,702.67,650.41,706.85,659.41z"/>
	<path class="st0" d="M641.76,387.28c-9.37,4.24-19.73,0.31-23.82-9.05c-3.93-8.99,0.06-18.98,9.22-23.11
		c9.37-4.22,19.71-0.27,23.79,9.07C654.87,373.16,650.9,383.14,641.76,387.28z"/>
	<path class="st0" d="M43.04,457c-10.06,4.5-21.03,0.62-25.38-8.99c-4.32-9.55,0.15-20.14,10.33-24.48
		c9.8-4.18,20.47-0.38,24.83,8.82C57.33,441.87,53.12,452.49,43.04,457z"/>
	<path class="st0" d="M239.98,925.18c-4.14-9.58,0.47-20.33,10.62-24.82c9.97-4.41,20.64-0.28,24.68,9.53
		c3.85,9.33-0.6,19.77-10.36,24.29C254.98,938.79,244.17,934.89,239.98,925.18z"/>
	<path class="st0" d="M437.31,933.37c-9.74,4.72-20.42,1.05-24.71-8.49c-4.26-9.47,0.02-20.18,9.9-24.76
		c9.48-4.39,19.87-0.81,24.17,8.34C451.1,917.89,447.07,928.64,437.31,933.37z"/>
	<path class="st0" d="M214.06,917c-9.96,4.9-20.92,1.37-25.38-8.2s-0.2-20.42,9.84-25.15c9.71-4.57,20.37-1.11,24.83,8.04
		C227.97,901.19,223.95,912.13,214.06,917z"/>
	<path class="st0" d="M439.22,259.28c-4.3-9.3-0.18-19.58,9.51-23.7c9.31-3.96,19.54-0.11,23.72,8.93
		c4.3,9.28,0.19,19.55-9.47,23.69C453.67,272.18,443.41,268.33,439.22,259.28z"/>
	<path class="st0" d="M655.86,724.27c-4.18-9.31,0.01-19.77,9.63-24.07c9.2-4.11,19.28-0.31,23.37,8.8
		c4.17,9.29,0.01,19.74-9.59,24.06C670.07,737.2,659.97,733.41,655.86,724.27z"/>
	<path class="st0" d="M162.29,899.87c-9.67,4.73-20.63,1.31-25.08-7.84c-4.61-9.48-0.34-20.59,9.7-25.27
		c9.7-4.53,20.55-0.87,24.84,8.37C176.04,884.36,171.91,895.16,162.29,899.87z"/>
	<path class="st0" d="M512.6,285.95c-9.51,4.17-19.96,0.11-24.04-9.34c-3.91-9.05,0.22-19.02,9.54-23.08
		c9.51-4.14,19.93-0.07,24,9.36C526.01,271.92,521.91,281.88,512.6,285.95z"/>
	<path class="st0" d="M62.95,406.69c-9.62,4.26-20.53,0.47-24.83-8.62c-4.42-9.37,0.04-20.19,10.06-24.4
		c9.65-4.06,20.46-0.04,24.59,9.14C76.88,391.93,72.56,402.44,62.95,406.69z"/>
	<path class="st0" d="M291.92,942.8c-4.4-9.07-0.53-19.97,8.79-24.75c9.66-4.96,20.8-1.43,25.14,7.94
		c4.21,9.11,0.15,19.9-9.26,24.56C307.15,955.23,296.29,951.83,291.92,942.8z"/>
	<path class="st0" d="M129.21,316.56c-4.41-9.44-0.2-19.9,9.75-24.21c9.89-4.29,20.65-0.31,24.91,9.2
		c4.1,9.17,0.02,19.37-9.51,23.71C144.49,329.74,133.62,325.99,129.21,316.56z"/>
	<path class="st0" d="M294.74,262.81c-9.71,4.45-20.48,0.66-24.81-8.74c-4.2-9.12-0.26-19.29,9.13-23.57
		c9.71-4.43,20.45-0.62,24.77,8.76C308.03,248.36,304.11,258.52,294.74,262.81z"/>
	<path class="st0" d="M703.45,519.14c-9.34,4.44-19.71,0.7-23.9-8.63c-4.04-9-0.21-19.09,8.87-23.38
		c9.34-4.41,19.69-0.66,23.87,8.65C716.31,504.75,712.5,514.83,703.45,519.14z"/>
	<path class="st0" d="M575.49,865.61c-9.55,4.78-20.13,1.29-24.5-8.09c-4.37-9.38-0.37-20,9.26-24.6c9.31-4.45,19.6-1.03,23.97,7.94
		C588.75,850.16,584.97,860.87,575.49,865.61z"/>
	<path class="st0" d="M724.69,610.33c4.12,8.79,0.3,19.32-8.59,23.61c-8.91,4.3-19.4,0.69-23.53-8.11
		c-4.13-8.81-0.28-19.34,8.63-23.63C710.1,597.92,720.57,601.54,724.69,610.33z"/>
	<path class="st0" d="M561.99,303.43c-8.97,4.05-19.56,0.2-23.62-8.59c-4.06-8.78-0.06-19.19,8.92-23.22
		c8.96-4.02,19.53-0.17,23.59,8.6C574.94,288.99,570.96,299.38,561.99,303.43z"/>
	<path class="st0" d="M422.51,226.36c4.26,8.82,0.41,19.27-8.66,23.47c-9.11,4.22-19.85,0.54-24.11-8.27
		c-4.27-8.83-0.39-19.3,8.7-23.49C407.54,213.87,418.26,217.57,422.51,226.36z"/>
	<path class="st0" d="M670.24,758.09c4.26,8.81,0.52,19.51-8.41,24.02c-8.97,4.53-19.59,1.09-23.85-7.71
		c-4.27-8.83-0.5-19.54,8.45-24.03C655.39,745.85,666,749.3,670.24,758.09z"/>
	<path class="st0" d="M110.09,882.56c-9.1,4.36-20.44,0.72-24.62-7.91c-4.28-8.83,0.36-20.54,9.79-24.76
		c9.21-4.12,20.48-0.22,24.39,8.44C123.58,867.05,119.19,878.2,110.09,882.56z"/>
	<path class="st0" d="M734.03,584.47c-8.4,4.14-19.1,0.46-23-7.93c-3.91-8.39,0.1-19.07,8.61-22.98c8.28-3.8,18.47-0.27,22.49,7.77
		C746.21,569.54,742.45,580.32,734.03,584.47z"/>
	<path class="st0" d="M82.98,356.31c-8.94,4.11-20.29,0.27-24.42-8.27c-4.1-8.49,0.15-19.45,9.14-23.56
		c8.94-4.09,20.27-0.24,24.38,8.28C96.19,341.24,91.96,352.18,82.98,356.31z"/>
	<path class="st0" d="M588.06,312.62c-4.03-8.28-0.1-18.91,8.43-22.82c8.53-3.91,19.22-0.01,23.03,8.39
		c3.71,8.17-0.01,18.28-8.21,22.32C602.95,324.63,592.11,320.95,588.06,312.62z"/>
	<path class="st0" d="M25.49,796.49c-9.4,4.22-20.68,0.17-24.35-8.77c-3.62-8.8,0.88-19.36,9.98-23.43
		c9.4-4.2,20.65-0.13,24.32,8.79C39.06,781.86,34.58,792.41,25.49,796.49z"/>
	<path class="st0" d="M363.51,231.55c-8.76,3.91-19.71-0.07-23.55-8.58c-3.85-8.52,0.48-19.14,9.29-22.79
		c8.62-3.57,19.06,0.25,23.02,8.41C376.33,216.96,372.26,227.64,363.51,231.55z"/>
	<path class="st0" d="M343.17,958.92c-3.86-8.66,0.53-19.83,9.42-24c8.94-4.19,20.04-0.37,23.87,8.22
		c3.85,8.64-0.51,19.8-9.39,23.98C358.14,971.34,347.01,967.52,343.17,958.92z"/>
	<path class="st0" d="M643.33,831.63c-8.44,4.31-19.33,0.8-23.4-7.56c-4.05-8.3-0.17-19.29,8.34-23.61
		c8.44-4.29,19.3-0.77,23.37,7.57C655.68,816.32,651.82,827.29,643.33,831.63z"/>
	<path class="st0" d="M220,234.87c-3.51-8.69,0.84-18.42,9.83-21.98c9.28-3.67,19.62,0.68,23.04,9.7
		c3.33,8.78-1.19,18.34-10.28,21.73C233.47,247.73,223.52,243.57,220,234.87z"/>
	<path class="st0" d="M487.38,949.06c-8.72,4.3-19.03,0.96-23.1-7.5c-4.19-8.71-0.1-19.48,8.98-23.69
		c8.83-4.09,19.02-0.52,22.88,8.02C500,934.43,496.09,944.77,487.38,949.06z"/>
	<path class="st0" d="M564.81,891.83c3.98,8.43,0.29,18.75-8.3,23.16c-8.84,4.54-19.47,0.99-23.38-7.81
		c-3.8-8.55,0.14-18.81,8.82-23.01C550.64,879.99,560.83,883.4,564.81,891.83z"/>
	<path class="st0" d="M159.84,243.69c9.17-3.44,19.21,0.71,22.76,9.41c3.67,8.97-1.07,19-10.57,22.36
		c-9.27,3.28-19.18-1.05-22.54-9.86C146.11,256.77,150.66,247.14,159.84,243.69z"/>
	<path class="st0" d="M689.94,403.82c-8.6,3.8-18.25,0.13-22.02-8.39c-3.76-8.49,0.05-18.07,8.68-21.87
		c8.6-3.78,18.23-0.1,21.99,8.4C702.34,390.44,698.55,400.01,689.94,403.82z"/>
	<path class="st0" d="M698.82,461.76c-4-8.4-0.5-18.11,8-22.17c8.5-4.06,18.21-0.69,22.2,7.69c4,8.39,0.51,18.08-7.97,22.15
		C712.56,473.51,702.82,470.16,698.82,461.76z"/>
	<path class="st0" d="M290.29,203.65c-3.32-8.37,1.06-17.67,9.89-20.99c8.68-3.26,18.25,0.91,21.63,9.4
		c3.32,8.36-1.05,17.65-9.87,20.98C303.26,216.32,293.67,212.17,290.29,203.65z"/>
	<path class="st0" d="M602.36,873.51c-3.88-8.27-0.3-18.04,8.11-22.19c8.41-4.15,18.06-0.92,21.93,7.32
		c3.87,8.25,0.31,18.02-8.08,22.18C615.91,884.99,606.23,881.77,602.36,873.51z"/>
	<path class="st0" d="M89.28,275.36c8.91-3.35,18.69,0.83,22.1,9.44c3.36,8.47-1.16,17.92-10.21,21.35
		c-8.91,3.37-18.72-0.8-22.13-9.43C75.67,288.23,80.21,278.77,89.28,275.36z"/>
	<path class="st0" d="M66.35,841.38c4.05,8.49,0.31,18.47-8.56,22.86c-9.23,4.56-19.64,1.19-23.65-7.66
		c-3.88-8.57,0.09-18.46,9.11-22.71C52.25,829.63,62.31,832.9,66.35,841.38z"/>
	<path class="st0" d="M395.11,975.34c-3.91-8.42-0.26-18.24,8.37-22.56c8.9-4.45,18.93-1.07,22.8,7.7
		c3.72,8.43-0.14,18.2-8.85,22.38C408.74,987.03,399.02,983.76,395.11,975.34z"/>
	<path class="st0" d="M759.13,513.11c3.92,8.05,0.62,17.61-7.47,21.62c-8.14,4.04-17.7,0.87-21.62-7.15
		c-3.93-8.06-0.61-17.64,7.5-21.64C745.68,501.93,755.23,505.1,759.13,513.11z"/>
	<path class="st0" d="M244.33,984.02c-8.83,3.93-18.92,0.14-22.41-8.43c-3.47-8.53,1.03-18.59,9.97-22.34
		c8.61-3.61,18.31,0.06,21.87,8.26C257.43,969.95,253.19,980.07,244.33,984.02z"/>
	<path class="st0" d="M637.84,329.58c-3.75-8.11-0.08-17.65,8.2-21.31c8.26-3.65,17.85,0.02,21.43,8.21c3.45,7.9-0.08,17.1-8,20.81
		C651.29,341.14,641.6,337.69,637.84,329.58z"/>
	<path class="st0" d="M192.87,967.11c-8.85,4.02-19.02,0.32-22.6-8.24c-3.56-8.52,0.86-18.63,9.83-22.46
		c8.63-3.69,18.41-0.1,22.05,8.07C205.91,952.93,201.75,963.08,192.87,967.11z"/>
	<path class="st0" d="M304.86,978.28c3.49,8-0.55,18.19-8.76,22.12c-8.49,4.06-19.14,0.27-22.48-7.99
		c-3.28-8.13,1.02-18.28,9.3-21.96C291.28,966.72,301.4,970.33,304.86,978.28z"/>
	<path class="st0" d="M150.18,927.56c3.58,8-0.46,18.27-8.79,22.27c-8.6,4.14-19.41,0.4-22.86-7.91
		c-3.38-8.15,0.93-18.35,9.33-22.12C136.33,916.01,146.61,919.59,150.18,927.56z"/>
	<path class="st0" d="M706.86,740.85c-3.85-7.92-0.19-18.03,7.92-21.89c7.86-3.74,17.43-0.48,21.17,7.2
		c3.84,7.9,0.2,18.01-7.89,21.87C720.2,751.78,710.6,748.53,706.86,740.85z"/>
	<path class="st0" d="M481.34,217.93c-8.17,3.73-18.27,0.02-21.85-8.02c-3.48-7.81,0.21-17.24,8.14-20.84
		c8.17-3.71,18.25,0.01,21.82,8.03C492.93,204.89,489.26,214.32,481.34,217.93z"/>
	<path class="st0" d="M530.72,235.8c-8.12,3.75-18.18,0.08-21.77-7.94c-3.49-7.79,0.15-17.21,8.03-20.83
		c8.11-3.73,18.16-0.05,21.74,7.95C542.2,222.75,538.58,232.17,530.72,235.8z"/>
	<path class="st0" d="M746.2,698.62c-8.06,3.92-17.98,0.38-21.5-7.68c-3.42-7.83,0.21-17.42,8.01-21.2
		c8.05-3.9,17.96-0.34,21.48,7.7C757.59,685.24,753.98,694.83,746.2,698.62z"/>
	<path class="st0" d="M743.15,642.27c-3.74-7.55-0.23-17.58,7.49-21.38c7.67-3.78,17.6-0.33,21.13,7.32
		c3.42,7.41,0.08,16.97-7.29,20.88C756.96,653.07,746.92,649.87,743.15,642.27z"/>
	<path class="st0" d="M710.16,797.3c-7.69,3.89-17.64,0.63-21.32-7.01c-3.67-7.6-0.1-17.65,7.63-21.55
		c7.69-3.88,17.62-0.6,21.3,7.02C721.42,783.35,717.88,793.39,710.16,797.3z"/>
	<path class="st0" d="M579.44,253.49c-7.87,3.44-17.73-0.32-21.07-8.02c-3.36-7.76,0.63-17.43,8.51-20.59
		c7.75-3.11,17.1,0.46,20.55,7.86C591,240.37,587.27,250.07,579.44,253.49z"/>
	<path class="st0" d="M439.63,179.06c3.54,7.72-0.34,17.44-8.31,20.8c-8.02,3.38-18-0.49-21.29-8.25
		c-3.23-7.61,0.49-16.87,8.15-20.33C426.07,167.72,436.1,171.36,439.63,179.06z"/>
	<path class="st0" d="M200.6,204.2c3.4,7.77-0.42,16.95-8.49,20.39c-8.36,3.57-18.26-0.28-21.55-8.37c-3.2-7.88,0.86-16.99,9-20.21
		C187.74,192.76,197.21,196.45,200.6,204.2z"/>
	<path class="st0" d="M536.89,964.52c-7.88,3.82-17.51,0.62-21.13-7.04c-3.73-7.9,0.2-18.08,8.4-21.77
		c7.99-3.6,17.53-0.15,20.91,7.55C548.47,951.02,544.74,960.71,536.89,964.52z"/>
	<path class="st0" d="M718.01,412.76c-3.63-7.55-0.36-16.68,7.27-20.35c7.62-3.66,16.78-0.49,20.41,7.05
		c3.63,7.53,0.37,16.66-7.25,20.34C730.83,423.47,721.65,420.31,718.01,412.76z"/>
	<path class="st0" d="M707.66,353.74c-7.62,3.61-16.05,0.8-19.76-6.59c-3.88-7.72-0.87-16.38,6.96-20.07
		c7.87-3.71,16.49-0.59,20.04,7.25C718.32,341.87,715.23,350.16,707.66,353.74z"/>
	<path class="st0" d="M612.97,909.48c3.62,7.9,0.2,16.88-7.92,20.74c-8.06,3.84-16.92,0.63-20.4-7.39
		c-3.33-7.7-0.01-16.38,7.76-20.25C600.46,898.57,609.34,901.55,612.97,909.48z"/>
	<path class="st0" d="M262.04,193.45c-8.28,3.6-17.32,0.18-20.84-7.89c-3.38-7.75,0.11-16.16,8.16-19.64
		c8.28-3.58,17.3-0.16,20.81,7.9C273.56,181.56,270.08,189.96,262.04,193.45z"/>
	<path class="st0" d="M608.14,263c-3.5-7.82,0.01-16.31,8.11-19.65c7.72-3.18,16.04,0.13,19.45,7.74c3.5,7.8,0.01,16.29-8.09,19.64
		C619.88,273.92,611.55,270.62,608.14,263z"/>
	<path class="st0" d="M121.68,255.13c-8.34,3.78-17.54,0.58-21.27-7.38c-3.73-7.98-0.15-16.78,8.28-20.38
		c8.1-3.46,16.99-0.36,20.73,7.21C133.32,242.47,129.96,251.38,121.68,255.13z"/>
	<path class="st0" d="M467.48,998.37c-8.2,3.95-17.2,0.79-20.74-7.28c-3.51-8,0.2-17.07,8.53-20.87c7.98-3.64,16.64-0.58,20.21,7.12
		C479.18,985.31,475.72,994.4,467.48,998.37z"/>
	<path class="st0" d="M781.78,599.48c-7.85,3.91-16.48,0.95-20.09-6.91c-3.47-7.56-0.45-15.98,7.08-19.72
		c7.85-3.89,16.47-0.92,20.07,6.92C792.3,587.32,789.29,595.74,781.78,599.48z"/>
	<path class="st0" d="M67.27,924.99c-3.68-8.04,0.08-17.46,8.55-21.43c8.46-3.97,17.94-0.79,21.61,7.25
		c3.67,8.03-0.07,17.43-8.52,21.42C80.45,936.21,70.95,933.04,67.27,924.99z"/>
	<path class="st0" d="M768.41,485.34c-7.87,3.55-16.41,0.18-19.76-7.8c-3.19-7.6,0.18-15.84,7.88-19.29
		c7.87-3.53,16.39-0.15,19.73,7.81C779.45,473.64,776.09,481.88,768.41,485.34z"/>
	<path class="st0" d="M333.63,988.29c8.22-4.22,17.59-1.32,21.38,6.63c3.8,7.97,0.3,17.33-7.99,21.4
		c-8.02,3.93-17.07,1.14-20.9-6.45C322.14,1001.98,325.44,992.5,333.63,988.29z"/>
	<path class="st0" d="M690.93,846.69c-8.07,3.65-16.75,0.18-20.03-8.01c-3.1-7.75,0.52-16.27,8.43-19.83
		c8.06-3.63,16.73-0.15,20.01,8.02C702.43,834.6,698.82,843.11,690.93,846.69z"/>
	<path class="st0" d="M30.15,336.28c-8.48,3.71-17.72,0.36-21.34-7.73c-3.6-8.04,0.23-16.92,8.8-20.45
		c8.23-3.39,17.14-0.15,20.8,7.56C42.21,323.66,38.64,332.57,30.15,336.28z"/>
	<path class="st0" d="M361.12,173.67c-3.72-7.9-0.29-16.47,7.97-19.95c7.9-3.33,16.46-0.14,20.04,7.46
		c3.71,7.88,0.3,16.45-7.95,19.94C373.28,184.46,364.7,181.28,361.12,173.67z"/>
	<path class="st0" d="M405.4,1012.24c3.21,7.27-0.47,16.63-7.93,20.15c-7.5,3.55-16.79,0.34-20-6.9
		c-3.22-7.28,0.48-16.65,7.95-20.16C392.93,1001.8,402.2,1005.01,405.4,1012.24z"/>
	<path class="st0" d="M57.89,266.44c3.28,7.18-0.44,16.28-7.99,19.54c-7.58,3.27-17.06-0.13-20.34-7.31
		c-3.29-7.19,0.45-16.3,8.02-19.55C45.15,255.87,54.62,259.28,57.89,266.44z"/>
	<path class="st0" d="M44.4,893.73c3.52,7.23,0.05,16.67-7.58,20.57c-7.88,4.03-17.85,0.88-21.29-6.75
		c-3.32-7.36,0.41-16.72,8.12-20.41C31.36,883.45,40.87,886.48,44.4,893.73z"/>
	<path class="st0" d="M672.91,895.92c-7.17,3.48-16.24,0.37-19.46-6.68c-3.23-7.07,0.2-16.27,7.36-19.73
		c7.17-3.47,16.22-0.35,19.44,6.69C683.48,883.27,680.06,892.45,672.91,895.92z"/>
	<path class="st0" d="M683.82,269.02c3.07,6.99-0.51,15.86-7.58,18.78c-7.17,2.95-16.11-0.67-18.93-7.68
		c-2.76-6.86,0.65-15.29,7.41-18.3C671.78,258.67,680.78,262.07,683.82,269.02z"/>
	<path class="st0" d="M331.06,162.45c-7.37,3.09-16.64-0.47-19.68-7.58c-3.06-7.17,0.81-16.11,8.19-18.94
		c7.2-2.76,16.02,0.65,19.15,7.4C341.99,150.36,338.38,159.38,331.06,162.45z"/>
	<path class="st0" d="M799.12,550.34c-6.93,3.34-15.94,0.14-19.08-6.8c-3.15-6.96,0.31-15.96,7.31-19.07
		c6.8-3.02,15.34,0.03,18.57,6.64C809.27,537.91,806.06,546.98,799.12,550.34z"/>
	<path class="st0" d="M212.35,1007.26c7.6-3.59,16.16-0.67,19.42,6.61c3.26,7.28-0.15,15.86-7.74,19.45
		c-7.6,3.6-16.17,0.69-19.44-6.6C201.33,1019.43,204.75,1010.85,212.35,1007.26z"/>
	<path class="st0" d="M172.28,1016.56c-7.64,3.61-16.25,0.69-19.53-6.61c-3.28-7.3,0.16-15.9,7.81-19.5
		c7.64-3.59,16.24-0.67,19.51,6.62C183.34,1004.37,179.91,1012.95,172.28,1016.56z"/>
	<path class="st0" d="M548.14,185.41c-6.98,3.23-14.72,0.66-18.13-6.02c-3.59-7.03-0.85-14.88,6.36-18.2
		c7.23-3.34,15.18-0.45,18.42,6.68C557.91,174.74,555.09,182.19,548.14,185.41z"/>
	<path class="st0" d="M148,186.62c3.24,7.31-0.26,15.29-8.05,18.32c-7.45,2.9-15.41-0.24-18.55-7.33
		c-3.25-7.32,0.27-15.31,8.07-18.33C136.91,176.39,144.86,179.54,148,186.62z"/>
	<path class="st0" d="M517.53,1013.52c-7.38,3.74-15.62,1.04-18.94-6.21c-3.32-7.24-0.13-15.54,7.34-19.09
		c7.17-3.41,15.05-0.82,18.42,6.05C527.85,1001.42,524.89,1009.79,517.53,1013.52z"/>
	<path class="st0" d="M120.23,999.36c-7.56,3.62-15.72,0.99-19.11-6.16c-3.53-7.44-0.15-15.84,7.81-19.44
		c7.59-3.43,15.66-0.56,18.89,6.69C131.04,987.66,127.8,995.73,120.23,999.36z"/>
	<path class="st0" d="M586.3,979.27c-7.31,3.72-15.49,1.03-18.82-6.18c-3.32-7.21-0.18-15.46,7.22-18.99
		c7.11-3.39,14.94-0.81,18.3,6.02C596.51,967.25,593.6,975.57,586.3,979.27z"/>
	<path class="st0" d="M737.45,363.42c-3.13-6.88-0.3-14.38,6.61-17.6c7.17-3.33,14.97-0.36,18.07,6.88
		c2.95,6.89-0.08,14.34-7.08,17.42C748.1,373.18,740.58,370.32,737.45,363.42z"/>
	<path class="st0" d="M786.12,435.47c-6.83,3.33-14.44,0.87-17.83-5.77c-3.57-6.98-0.93-14.87,6.12-18.29
		c7.08-3.43,14.89-0.66,18.12,6.43C795.63,424.67,792.91,432.16,786.12,435.47z"/>
	<path class="st0" d="M776.19,762.51c-6.9,3.51-14.68,1.1-18.13-5.61c-3.61-7.02-0.89-15.23,6.24-18.84
		c7.16-3.63,15.16-0.9,18.42,6.28C785.86,751.24,783.07,759.02,776.19,762.51z"/>
	<path class="st0" d="M794.13,713.09c-7.11,3.65-15,1.03-18.3-6.08c-3.19-6.87-0.5-14.53,6.31-18.02
		c7.11-3.64,14.98-1.01,18.28,6.09C803.6,701.93,800.93,709.59,794.13,713.09z"/>
	<path class="st0" d="M218.32,156.04c3.2,7.28-0.29,15.21-8.02,18.19c-7.39,2.85-15.28-0.31-18.39-7.39
		c-3.21-7.29,0.3-15.22,8.05-18.2C207.34,145.81,215.22,148.98,218.32,156.04z"/>
	<path class="st0" d="M498.7,167.55c-7.31,3.22-15.24,0.19-18.39-7.05c-3.01-6.91,0.01-14.34,7.07-17.44
		c7.31-3.21,15.22-0.17,18.37,7.06C508.76,157.02,505.75,164.45,498.7,167.55z"/>
	<path class="st0" d="M757.94,811.78c-6.9,3.42-14.61,0.82-17.82-6.02c-3.21-6.84-0.39-14.66,6.51-18.06
		c6.9-3.4,14.6-0.79,17.8,6.03C767.63,800.56,764.82,808.37,757.94,811.78z"/>
	<path class="st0" d="M256.76,1043.53c-3.36-7.06-0.41-15.17,6.87-18.9c7.59-3.89,15.95-1.19,19.25,6.21
		c3.17,7.1,0.02,15.13-7.35,18.73C268.14,1053.16,260.12,1050.59,256.76,1043.53z"/>
	<path class="st0" d="M816.44,500.7c-6.37,3.12-14.21,0.51-17.35-5.78c-3.27-6.54-0.32-14.74,6.4-17.79
		c6.45-2.93,14.2-0.09,17.15,6.28C825.6,489.77,822.8,497.58,816.44,500.7z"/>
	<path class="st0" d="M636.31,938.99c-3.15-6.73,0-15.05,6.92-18.28c6.64-3.09,14.46-0.37,17.48,6.09
		c3.15,6.72,0.01,15.03-6.91,18.27C647.17,948.18,639.34,945.46,636.31,938.99z"/>
	<path class="st0" d="M67.61,982.17c-7.05,3.21-15.49,0.33-18.51-6.32c-3.14-6.93,0.57-15.69,7.97-18.79
		c7.14-3,15.49,0.13,18.28,6.84C78.16,970.64,74.63,978.98,67.61,982.17z"/>
	<path class="st0" d="M280.69,142.97c-6.72,3.03-14.9,0.24-18.11-6.18c-3.34-6.68-0.13-14.9,6.95-17.86
		c6.8-2.83,14.88,0.18,17.89,6.67C290.44,132.1,287.4,139.94,280.69,142.97z"/>
	<path class="st0" d="M724.91,303.96c-6.28,3.06-14.22,0.44-17.4-5.74c-3.3-6.41-0.37-14.63,6.28-17.63
		c6.39-2.88,14.22-0.04,17.21,6.23C733.98,293.07,731.21,300.88,724.91,303.96z"/>
	<path class="st0" d="M455.9,131.57c3.31,6.81,0.41,14.55-6.61,17.68c-7.06,3.15-14.96,0.25-18.11-6.66
		c-3.01-6.61-0.22-14.06,6.44-17.21C444.6,122.09,452.61,124.81,455.9,131.57z"/>
	<path class="st0" d="M326.67,1065.86c-6.85,3.33-15.25,0.56-18.26-6.04c-3.02-6.61,0.24-15.06,7.08-18.38
		c6.85-3.32,15.23-0.54,18.24,6.05C336.74,1054.09,333.5,1062.53,326.67,1065.86z"/>
	<path class="st0" d="M69.23,235.29c-7.22,3.07-15.69-0.16-18.61-7.1c-2.8-6.66,0.57-14.44,7.52-17.37
		c7.22-3.05,15.68,0.18,18.58,7.11C79.51,224.58,76.16,232.35,69.23,235.29z"/>
	<path class="st0" d="M454.81,1029.31c3.15,6.94-0.17,15.28-7.41,18.59c-6.93,3.16-14.84,0.37-17.87-6.33
		c-3.16-6.95,0.18-15.3,7.43-18.6C443.88,1019.82,451.77,1022.63,454.81,1029.31z"/>
	<path class="st0" d="M596.75,203.2c-6.95,3.07-14.75,0.11-17.81-6.77c-3.04-6.83,0.11-14.45,7.16-17.37
		c6.73-2.78,14.21,0.07,17.3,6.59C606.63,192.46,603.73,200.11,596.75,203.2z"/>
	<path class="st0" d="M811.62,663.9c-6.85,3.38-14.59,0.7-17.74-6.14c-3.14-6.82-0.19-14.63,6.72-17.83
		c6.61-3.06,14.08-0.47,17.24,5.98C821.14,652.66,818.42,660.54,811.62,663.9z"/>
	<path class="st0" d="M739.77,861.17c-6.42,3.21-14.61,0.4-17.49-6c-2.89-6.41,0.29-14.7,6.78-17.67
		c6.26-2.87,14.01-0.21,16.98,5.84C749.12,849.61,746.18,857.96,739.77,861.17z"/>
	<path class="st0" d="M399.15,130.93c-6.59,2.68-14.84-0.62-17.45-6.98c-2.65-6.44,0.89-14.38,7.48-16.81
		c6.43-2.36,14.21,0.76,16.94,6.79C408.96,120.25,405.68,128.27,399.15,130.93z"/>
	<path class="st0" d="M645.48,220.59c-6.3,2.87-14.45-0.14-17.26-6.38c-2.82-6.27,0.36-14.24,6.73-16.88
		c6.16-2.56,13.86,0.3,16.76,6.21C654.73,209.67,651.79,217.72,645.48,220.59z"/>
	<path class="st0" d="M828.89,614.83c-6.31,2.9-14.34-0.12-17-6.41c-2.69-6.34,0.59-14.42,6.92-17.07
		c6.16-2.58,13.75,0.29,16.51,6.25C838.19,603.81,835.16,611.94,828.89,614.83z"/>
	<path class="st0" d="M556.7,1006.42c6.45-3.14,13.38-0.76,16.25,5.57c2.86,6.31,0.19,13.35-6.28,16.51
		c-6.45,3.15-13.39,0.78-16.26-5.56C547.54,1016.61,550.23,1009.57,556.7,1006.42z"/>
	<path class="st0" d="M360.65,1075.9c-2.96-6.39-0.23-13.58,6.38-16.84c6.6-3.25,13.71-0.92,16.67,5.47
		c2.95,6.38,0.23,13.57-6.37,16.83C370.73,1084.63,363.6,1082.3,360.65,1075.9z"/>
	<path class="st0" d="M851.97,549.45c2.84,6.09,0.3,12.92-5.86,15.77c-6.12,2.84-12.9,0.27-15.58-5.91
		c-2.55-5.88-0.11-12.43,5.7-15.3C842.32,541.01,849.14,543.37,851.97,549.45z"/>
	<path class="st0" d="M95.14,169.38c2.43,5.99-0.68,12.87-6.95,15.35c-6.56,2.6-14.07-0.56-16.4-6.91
		c-2.24-6.08,1.1-12.87,7.46-15.16C85.59,160.39,92.71,163.39,95.14,169.38z"/>
	<path class="st0" d="M772.26,320.3c-5.66,2.56-12.71-0.05-15.27-5.66c-2.57-5.62,0.08-12.62,5.74-15.16
		c5.66-2.55,12.7,0.06,15.25,5.66C780.55,310.76,777.91,317.75,772.26,320.3z"/>
	<path class="st0" d="M802.83,385.92c-6.12,2.81-12.91,0.26-15.62-5.88c-2.7-6.1,0.02-12.85,6.23-15.5
		c5.91-2.52,12.38-0.07,15.13,5.72C811.45,376.32,808.97,383.1,802.83,385.92z"/>
	<path class="st0" d="M487.42,1041.19c6.05-3.14,13.1-1.1,16.13,4.66c3.18,6.05,0.68,13.55-5.62,16.83
		c-6.33,3.3-13.64,0.93-16.46-5.32C478.78,1051.37,481.37,1044.33,487.42,1041.19z"/>
	<path class="st0" d="M693.48,237.45c-6.18,2.75-13.01,0.13-15.72-6.03c-2.69-6.11,0.08-12.83,6.36-15.41
		c5.96-2.45,12.47,0.05,15.22,5.86C702.22,227.94,699.69,234.69,693.48,237.45z"/>
	<path class="st0" d="M833.31,451.08c-5.61,2.67-12.66,0.17-15.28-5.43c-2.62-5.59-0.06-12.65,5.56-15.31
		c5.61-2.66,12.64-0.15,15.27,5.43C841.47,441.36,838.92,448.41,833.31,451.08z"/>
	<path class="st0" d="M333.09,105.97c-3-6.14-0.41-13.01,5.97-15.82c6.4-2.82,13.44-0.22,16.26,5.99c2.7,5.93,0.23,12.49-5.77,15.33
		C343.25,114.46,336.07,112.07,333.09,105.97z"/>
	<path class="st0" d="M165.83,138.33c2.83,6.3-0.09,13.14-6.76,15.84c-6.62,2.67-13.73-0.19-16.41-6.6
		c-2.54-6.08,0.27-12.62,6.58-15.36C155.83,129.36,162.98,132,165.83,138.33z"/>
	<path class="st0" d="M635.18,993.94c-5.91,3.02-12.99,0.81-15.86-4.96c-2.99-6.02-0.23-13.57,6.04-16.53
		c6-2.83,12.99-0.38,15.66,5.47C643.7,983.77,641.09,990.92,635.18,993.94z"/>
	<path class="st0" d="M229.58,123.37c-6,2.67-13.27,0.16-16.11-5.56c-2.97-5.97-0.05-13.3,6.31-15.89
		c6.09-2.47,13.26,0.26,15.9,6.05C238.33,113.77,235.59,120.7,229.58,123.37z"/>
	<path class="st0" d="M727.02,893.86c2.91,6.21,0.31,13.24-6.01,16.3c-6.31,3.05-13.2,0.57-15.95-5.74
		c-2.61-6-0.12-12.74,5.85-15.81C717.16,885.38,724.12,887.65,727.02,893.86z"/>
	<path class="st0" d="M151.52,1065.95c-5.77,2.92-13.3,0.68-16.09-4.8c-2.9-5.7,0.12-13.64,6.27-16.48
		c5.89-2.72,13.31-0.23,15.87,5.33C160.14,1055.56,157.31,1063.01,151.52,1065.95z"/>
	<path class="st0" d="M209.42,1066.62c2.61,5.52-0.14,12.98-5.89,15.97c-5.99,3.12-13.88,0.55-16.38-5.33
		c-2.4-5.65,0.6-13.05,6.42-15.81C199.41,1058.67,206.81,1061.09,209.42,1066.62z"/>
	<path class="st0" d="M565.21,135.18c-5.71,2.56-12.35,0.03-14.79-5.64c-2.33-5.41,0.1-11.52,5.55-13.96
		c5.71-2.55,12.34-0.02,14.78,5.64C573.08,126.62,570.65,132.73,565.21,135.18z"/>
	<path class="st0" d="M521.46,102.59c2.78,5.52,0.37,12.07-5.38,14.59c-5.49,2.41-11.85,0.17-14.51-5.11
		c-2.79-5.53-0.36-12.09,5.39-14.6C512.46,95.08,518.81,97.32,521.46,102.59z"/>
	<path class="st0" d="M846.51,712.65c2.7,5.36,0.33,12.35-5.13,15.1c-5.45,2.75-12.31,0.4-14.82-5.08
		c-2.39-5.22-0.15-11.82,4.97-14.62C836.85,705.13,843.8,707.27,846.51,712.65z"/>
	<path class="st0" d="M808.69,771.7c-2.4-5.56,0.35-12.47,5.93-14.91c5.62-2.46,12.37,0.25,14.55,5.85
		c2.11,5.39-0.47,11.88-5.73,14.41C817.91,779.72,811.08,777.24,808.69,771.7z"/>
	<path class="st0" d="M805.33,826.08c-5.55,2.63-11.41,0.55-13.95-4.94c-2.65-5.73-0.18-12.02,5.72-14.6
		c5.57-2.44,11.38-0.14,13.76,5.44C813.22,817.52,810.9,823.44,805.33,826.08z"/>
	<path class="st0" d="M260.62,1083.52c2.73,5.84,0.01,12.67-6.17,15.51c-5.88,2.7-12.31,0.52-14.92-5.07
		c-2.73-5.85-0.01-12.68,6.18-15.52C251.6,1075.75,258.01,1077.94,260.62,1083.52z"/>
	<path class="st0" d="M707.81,944.68c2.48,5.56,0.22,11.6-5.38,14.4c-5.84,2.92-12.11,0.64-14.54-5.29
		c-2.3-5.6,0.19-11.61,5.88-14.24C699.42,936.94,705.32,939.1,707.81,944.68z"/>
	<path class="st0" d="M105.04,1033.55c2.65,5.92-0.24,12.75-6.56,15.5c-6,2.61-12.49,0.28-15.02-5.39
		c-2.65-5.93,0.25-12.76,6.58-15.51C96.03,1025.56,102.51,1027.89,105.04,1033.55z"/>
	<path class="st0" d="M7.49,194.88c5.94-2.6,12.21-0.45,14.94,5.1c2.87,5.85,0.3,12.14-6.02,14.7c-5.99,2.43-12.19,0.08-14.75-5.59
		C-0.9,203.45,1.55,197.48,7.49,194.88z"/>
	<path class="st0" d="M412.81,1092.1c-2.7-5.48-0.54-12.02,5-15.14c5.84-3.28,12.66-1.36,15.48,4.37
		c2.82,5.74,0.32,12.55-5.68,15.48C421.87,1099.6,415.51,1097.58,412.81,1092.1z"/>
	<path class="st0" d="M298.6,92.14c-5.74,2.52-11.85,0.33-14.45-5.19c-2.61-5.53-0.32-11.41,5.42-13.92
		c5.74-2.51,11.84-0.32,14.44,5.2C306.61,83.75,304.32,89.62,298.6,92.14z"/>
	<path class="st0" d="M863.25,515.55c-5.45,2.56-11.27,0.46-13.78-4.99c-2.5-5.44-0.33-11.3,5.13-13.86
		c5.45-2.56,11.26-0.44,13.76,5C870.86,507.13,868.7,512.98,863.25,515.55z"/>
	<path class="st0" d="M727.65,248.99c-2.65-5.42-0.52-11.33,4.97-13.86c5.25-2.41,10.96-0.52,13.61,4.51
		c2.81,5.33,0.89,11.36-4.48,14.03C736.32,256.38,730.29,254.38,727.65,248.99z"/>
	<path class="st0" d="M858.62,678.32c-5.47,2.63-11.32,0.56-13.84-4.91c-2.51-5.46-0.33-11.39,5.15-14.02
		c5.47-2.62,11.31-0.55,13.83,4.92C866.27,669.76,864.1,675.68,858.62,678.32z"/>
	<path class="st0" d="M452.45,93.42c-2.53-5.5-0.23-11.31,5.43-13.75c5.64-2.44,11.63-0.19,14.15,5.3
		c2.52,5.49,0.23,11.3-5.42,13.74C460.96,101.17,454.98,98.93,452.45,93.42z"/>
	<path class="st0" d="M599.84,147.57c-2.53-5.48-0.2-11.34,5.44-13.72c5.6-2.36,11.55,0.04,13.91,5.61
		c2.23,5.26,0.03,10.81-5.25,13.24C608.39,155.26,602.38,153.07,599.84,147.57z"/>
	<path class="st0" d="M46.08,1031.56c-5.61,2.55-12.09,0.33-14.49-4.96c-2.52-5.56,0.41-12.36,6.4-14.84
		c5.66-2.34,12.08,0.12,14.28,5.48C54.46,1022.6,51.69,1029.02,46.08,1031.56z"/>
	<path class="st0" d="M311.45,1100.25c2.48,5.17,0.19,11.65-5.13,14.48c-5.6,2.98-12.39,0.83-14.81-4.71
		c-2.3-5.26,0.23-11.66,5.65-14.32C302.59,1093.05,308.96,1095.08,311.45,1100.25z"/>
	<path class="st0" d="M546.92,1077.66c-4.98,2.28-11.24,0.07-13.38-4.73c-2.26-5.08,0.56-11.88,5.81-14.03
		c5.07-2.08,11.27,0.38,13.18,5.22C554.46,1069.02,551.81,1075.42,546.92,1077.66z"/>
	<path class="st0" d="M662.04,170.36c-5.03,2.07-11.44-0.61-13.34-5.59c-1.82-4.79,0.73-10.68,5.46-12.63
		c5.02-2.07,11.44,0.62,13.33,5.59C669.31,162.51,666.77,168.41,662.04,170.36z"/>
	<path class="st0" d="M787.3,875.26c-5.01,2.39-11.27,0.17-13.48-4.8c-2.22-4.98,0.19-11.36,5.19-13.74
		c5.01-2.39,11.26-0.16,13.47,4.81C794.7,866.5,792.29,872.88,787.3,875.26z"/>
	<path class="st0" d="M422.14,66.86c2.3,4.88-0.19,11.2-5.26,13.32c-5.09,2.13-11.79-0.34-13.62-5.39
		c-1.99-5.48-0.21-10.01,5.06-12.78C413.17,59.46,419.84,61.97,422.14,66.86z"/>
	<path class="st0" d="M107.42,133.86c-5.05,2.09-11.41-0.23-13.66-4.99c-2.36-4.99,0.44-11.51,5.79-13.47
		c5.12-1.87,11.44,0.7,13.45,5.47C115.04,125.73,112.44,131.79,107.42,133.86z"/>
	<path class="st0" d="M178.04,103.41c-4.98,2.12-11.31-0.14-13.61-4.87c-2.41-4.95,0.3-11.44,5.6-13.44
		c5.07-1.91,11.34,0.59,13.4,5.35C185.52,95.26,183,101.29,178.04,103.41z"/>
	<path class="st0" d="M615.63,1043.04c-4.9,2.32-11.07,0.2-13.27-4.55c-2.31-5,0.39-11.74,5.56-13.93
		c4.99-2.11,11.1,0.25,13.07,5.06C622.98,1034.47,620.48,1040.75,615.63,1043.04z"/>
	<path class="st0" d="M875.86,629.23c-4.92,2.22-11.2-0.23-13.21-5.15c-2.03-4.96,0.56-11.5,5.59-13.23
		c5.48-1.88,9.99-0.21,12.66,4.95C883.35,620.55,880.76,627.02,875.86,629.23z"/>
	<path class="st0" d="M850.29,401.13c-4.65,2.36-10.61,0.34-12.87-4.36c-2.25-4.7-0.16-10.79,4.69-12.74
		c5.16-2.08,9.5-0.58,12.32,4.17C857.06,392.65,854.95,398.76,850.29,401.13z"/>
	<path class="st0" d="M819.54,336.02c-4.77,2.15-10.66-0.12-12.7-4.89c-2.05-4.79,0.29-10.81,5.2-12.52
		c5.24-1.82,9.54-0.19,12.15,4.7C826.64,327.88,824.3,333.87,819.54,336.02z"/>
	<path class="st0" d="M893.3,579.42c-4.98,1.87-9.02,0.91-11.63-3.79c-2.47-4.45-0.5-10.09,4.24-12.04
		c4.96-2.04,9.05-0.64,11.32,4.19C899.53,572.65,897.69,576.55,893.3,579.42z"/>
	<path class="st0" d="M698.11,181.66c-1.26-4.18-0.06-8.15,4.84-10.48c4.6-2.19,10.17,0.07,11.8,4.86
		c1.71,5.03-0.01,8.91-4.93,11.08C705.4,189.05,700.36,186.87,698.11,181.66z"/>
	<path class="st0" d="M879.81,466.03c-4.95,1.51-8.93,0.35-11.29-4.49c-2.21-4.54,0.04-10.08,4.84-11.73
		c5.04-1.73,9.08-0.1,11.08,4.83C886.46,459.59,884.47,463.39,879.81,466.03z"/>
	<path class="st0" d="M23.54,159.43c-2.45-4.82-0.43-10.27,4.79-12.34c5.4-2.14,9.7-0.68,12.38,4.21c2.6,4.74,0.42,10.14-4.73,12.35
		C31.1,165.73,25.83,163.95,23.54,159.43z"/>
	<path class="st0" d="M787.87,270.41c-4.2,1.26-8.21,0.1-10.6-4.73c-2.25-4.54-0.01-10.04,4.81-11.66
		c5.06-1.71,8.98-0.02,11.19,4.83C795.26,263.18,793.1,268.16,787.87,270.41z"/>
	<path class="st0" d="M482.43,1098.99c1.79,5.5,0.39,10.01-5.21,12.56c-5.6,2.55-10.01,0.76-12.22-4.65
		c-2.09-5.11-0.29-9.47,4.86-12.03C475.4,1092.11,479.56,1093.95,482.43,1098.99z"/>
	<path class="st0" d="M773.48,911.75c1.76,5.06,0.65,9.22-4.26,12.01c-4.71,2.68-10.06,0.89-12.27-3.92
		c-2.2-4.79-0.14-10.24,4.84-12.33C766.98,905.35,770.8,907.09,773.48,911.75z"/>
	<path class="st0" d="M354.82,56.71c-1.97-5.08-0.91-9.16,4.04-11.81c4.68-2.5,10.49-0.53,12.5,4.27c2.11,5.03,0.6,9.15-4.46,11.47
		C361.78,62.98,357.73,61.15,354.82,56.71z"/>
	<path class="st0" d="M343.8,1125.85c-1.74-5.55-0.21-10.07,5.43-12.64c5.64-2.56,10.16-0.85,12.44,4.55
		c2.3,5.45,0.31,10.03-5.26,12.61C350.76,1133,346.57,1130.99,343.8,1125.85z"/>
	<path class="st0" d="M247.81,72.3c-5.32,1.8-9.58,0.71-12.27-4.15c-2.55-4.61-0.39-10.21,4.69-12.08
		c5.31-1.95,9.61-0.42,11.94,4.55C254.53,65.64,252.55,69.53,247.81,72.3z"/>
	<path class="st0" d="M671.89,1004.95c-2.79-5.64-0.87-11.2,4.1-13.45c5.15-2.32,9.25-0.98,11.82,3.86
		c2.49,4.68,0.47,10.28-4.49,12.56C678.14,1010.31,674.23,1008.69,671.89,1004.95z"/>
	<path class="st0" d="M129.84,1114.59c-4.93,2.07-8.84,1.15-10.96-3.6c-1.95-4.37-0.51-8.14,4.01-10.43
		c4.88-2.47,8.8-1.22,10.94,3.48C135.83,1108.42,134.16,1111.96,129.84,1114.59z"/>
	<path class="st0" d="M396.69,1142.12c-1.86-4.65-0.82-8.51,4-10.91c4.42-2.19,8.12-1.09,10.21,3.13c2.26,4.54,0.89,8.44-3.88,10.86
		C402.59,1147.46,399.13,1146.1,396.69,1142.12z"/>
	<path class="st0" d="M181.78,1131.28c-4.9,1.99-8.76,0.99-10.81-3.77c-1.88-4.39-0.38-8.13,4.14-10.36
		c4.9-2.42,8.77-1.07,10.83,3.64C187.87,1125.18,186.15,1128.7,181.78,1131.28z"/>
	<path class="st0" d="M740.21,969.12c-1.39-4.36-0.38-7.97,3.95-10.01c4.29-2.03,7.86-0.75,9.74,3.48c1.88,4.24,0.45,7.89-3.81,9.96
		C745.78,974.65,742.49,973.08,740.21,969.12z"/>
	<path class="st0" d="M315.96,41.27c-4.47,1.22-8.07,0.1-9.85-4.22c-1.77-4.29-0.21-7.77,4.21-9.47c4.44-1.71,8.04-0.18,9.84,4.07
		C321.99,35.95,320.17,39.14,315.96,41.27z"/>
	<path class="st0" d="M874.15,780.66c1.28,4.29,0.21,7.82-4.06,9.71c-4.25,1.88-7.75,0.5-9.52-3.72c-1.78-4.24-0.3-7.8,3.92-9.71
		C868.75,775.01,871.96,776.65,874.15,780.66z"/>
	<path class="st0" d="M523.11,62.51c-1.3-4.26-0.34-7.8,3.98-9.52c4.27-1.7,7.89-0.18,9.63,4c1.59,3.84,0.23,7.23-3.63,8.99
		C528.86,67.91,525.52,66.29,523.11,62.51z"/>
	<path class="st0" d="M77.12,1097.84c-4.72,1.5-8.61,0.63-10.4-3.85c-1.76-4.41-0.01-8.29,4.65-10.23c4.25-1.77,7.97-0.49,9.82,3.52
		C83.2,1091.65,81.33,1095.19,77.12,1097.84z"/>
	<path class="st0" d="M237.61,1137.37c1.13,4.45,0.02,8.25-4.55,10.24c-4.13,1.79-7.85,0.59-9.68-3.31
		c-1.99-4.23-0.54-8.16,3.87-10.34C231.71,1131.76,235.2,1133.45,237.61,1137.37z"/>
	<path class="st0" d="M887.86,741.31c-4.28,1.49-7.76,0.57-9.61-3.66c-1.84-4.2-0.47-7.77,3.71-9.73c4.19-1.96,7.69-0.64,9.56,3.53
		C893.41,735.66,891.78,738.95,887.86,741.31z"/>
	<path class="st0" d="M582.03,84.24c-4.31,1.33-7.95,0.45-9.82-3.73c-1.85-4.13-0.39-7.67,3.84-9.42c3.89-1.61,7.38-0.31,9.27,3.4
		C587.41,78.57,585.83,81.84,582.03,84.24z"/>
	<path class="st0" d="M761.54,194.15c1.03,4.2,0.02,7.73-4.23,9.25c-4.15,1.48-7.73-0.08-9.23-4.29c-1.36-3.8,0.05-7.18,3.88-8.76
		C756.1,188.65,759.32,190.34,761.54,194.15z"/>
	<path class="st0" d="M913.17,519.38c1.59,4.68,0.8,8.27-3.33,10.23c-4.09,1.93-7.65,0.59-9.5-3.51c-1.71-3.78-0.46-7.22,3.18-9.2
		C907.59,514.68,910.79,516.44,913.17,519.38z"/>
	<path class="st0" d="M586.08,1088.22c-1.13-4.77-0.06-8.54,4.38-10.33c4.32-1.74,8.03-0.27,9.56,4.1c1.38,3.94-0.1,7.54-4.08,9.41
		C591.56,1093.45,588.35,1091.54,586.08,1088.22z"/>
	<path class="st0" d="M905.89,691.81c-4.07,1.57-7.57,0.89-9.5-2.67c-2.13-3.91-0.84-7.74,3.16-9.75c3.68-1.85,7.22-0.57,9.06,3.07
		C910.5,686.19,908.83,689.37,905.89,691.81z"/>
	<path class="st0" d="M630.85,101.95c-3.91,1.37-7.45,0.59-9.41-2.96c-2.16-3.91-0.84-7.65,3.22-9.53c3.74-1.73,7.34-0.38,9.19,3.27
		C635.72,96.43,634.17,99.57,630.85,101.95z"/>
	<path class="st0" d="M487.38,38.45c1.18,3.91,0.35,7.37-3.46,9.1c-4.14,1.87-7.97,0.44-9.71-3.67c-1.59-3.75-0.12-7.26,3.78-8.87
		C481.88,33.41,485.09,35.03,487.38,38.45z"/>
	<path class="st0" d="M853.06,839.21c-4.15,1.57-7.67,0.89-9.58-2.73c-2.09-3.96-0.76-7.83,3.3-9.84c3.74-1.84,7.29-0.56,9.11,3.14
		C857.74,833.55,856.03,836.76,853.06,839.21z"/>
	<path class="st0" d="M126.19,82.36c-4.16,1.25-7.87,0.42-9.77-3.31c-2.07-4.07-0.58-7.88,3.79-9.67c4.01-1.64,7.75-0.19,9.53,3.62
		C131.52,76.83,129.81,80.03,126.19,82.36z"/>
	<path class="st0" d="M58.44,103.54c1.37,3.77,0.37,6.91-3.46,8.59c-4.19,1.84-7.71,0.46-9.36-3.57c-1.52-3.71-0.01-6.85,3.88-8.38
		C53.4,98.64,56.46,100.03,58.44,103.54z"/>
	<path class="st0" d="M663.94,1056.64c-4.27,1.25-7.69,0.25-9.14-3.9c-1.31-3.75,0.21-7.21,3.96-8.78c4.05-1.7,7.58-0.32,9.04,3.81
		C669.12,1051.52,667.41,1054.59,663.94,1056.64z"/>
	<path class="st0" d="M857.33,347.66c-1.2-3.94-0.31-7.36,3.52-9.01c3.8-1.64,7.28-0.23,8.88,3.6c1.45,3.48,0.21,6.83-3.21,8.49
		C862.76,352.57,859.6,351.11,857.33,347.66z"/>
	<path class="st0" d="M517.77,1122.91c-1.37-3.63-0.66-7.09,2.88-9.28c3.9-2.41,7.68-1.43,9.69,2.37c2.03,3.83,0.67,7.62-3.36,9.7
		C523.28,1127.61,520.08,1126.31,517.77,1122.91z"/>
	<path class="st0" d="M834.65,887.96c-3.89,1.51-6.68,0.73-8.28-2.69c-1.59-3.4-0.65-6.35,2.74-8.12c3.73-1.95,6.73-0.86,8.35,2.92
		C838.98,883.59,837.46,886.21,834.65,887.96z"/>
	<path class="st0" d="M24.09,1080.16c-4.25,1.57-7.44,0.53-9.05-3.31c-1.63-3.87-0.13-7.12,3.9-8.92c4.08-1.82,7.32-0.55,8.94,3.27
		C29.53,1075.08,27.89,1078.11,24.09,1080.16z"/>
	<path class="st0" d="M899.54,407.18c1.39,3.59,0.6,6.57-2.97,8.3c-3.54,1.72-6.58,0.7-8.28-2.85c-1.7-3.53-0.66-6.58,2.88-8.31
		C894.72,402.59,897.56,403.74,899.54,407.18z"/>
	<path class="st0" d="M835.85,285.33c-4.03,1.35-6.92,0.25-8.43-3.36c-1.53-3.65-0.22-6.58,3.4-8.08c3.66-1.52,6.59-0.2,8.12,3.39
		C840.5,280.95,838.96,283.64,835.85,285.33z"/>
	<path class="st0" d="M199.44,43.18c1.38,3.82,0.33,6.8-3.53,8.39c-3.86,1.59-7.03,0.37-8.68-3.31c-1.67-3.69-0.37-6.72,3.47-8.32
		C194.56,38.33,197.52,39.7,199.44,43.18z"/>
	<path class="st0" d="M288.1,1153.91c1.52,3.71,0.73,6.97-3.13,9.06c-3.81,2.05-7.14,1.22-9.03-2.48c-1.87-3.65-0.81-7,3.03-9.09
		C282.79,1149.34,285.92,1150.32,288.1,1153.91z"/>
	<path class="st0" d="M425.76,25.16c-0.96-3.42-0.02-6.16,3.51-7.46c3.5-1.29,6.36-0.07,7.73,3.32c1.37,3.39,0.1,6.15-3.38,7.47
		C430.09,29.83,427.48,28.41,425.76,25.16z"/>
	<path class="st0" d="M670.84,116.39c-1.37-3.37-0.75-6.17,2.53-7.82c3.26-1.63,6.17-0.74,7.87,2.47c1.69,3.2,0.79,6.06-2.46,7.72
		C675.51,120.44,672.81,119.31,670.84,116.39z"/>
	<path class="st0" d="M914.55,639.5c-1.16-3.41-0.41-6.21,2.92-7.79c3.3-1.57,6.11-0.57,7.62,2.73c1.51,3.3,0.47,6.14-2.82,7.74
		C918.95,643.8,916.37,642.57,914.55,639.5z"/>
	<path class="st0" d="M451.95,1149.64c3.3-1.33,6.17-0.82,7.77,2.19c1.44,2.71,0.52,5.57-2.11,7.33c-3.04,2.05-6.08,1.23-7.83-1.56
		C447.94,1154.67,449.28,1151.87,451.95,1149.64z"/>
	<path class="st0" d="M731.64,1020.92c-3.22,1.26-6.05,0.76-7.53-2.25c-1.48-3-0.39-5.94,2.66-7.52c2.75-1.43,5.48-0.54,6.96,1.99
		C735.45,1016.09,734.21,1018.77,731.64,1020.92z"/>
	<path class="st0" d="M728.47,129.62c1.08,2.57,0.53,4.67-2.09,5.92c-2.59,1.23-4.75,0.55-6.03-2.04c-1.27-2.56-0.58-4.69,2.03-5.94
		C724.98,126.31,727.03,127.09,728.47,129.62z"/>
	<path class="st0" d="M926.38,479.41c-3.28,1.07-5.56,0.19-6.64-2.68c-1.09-2.91,0.14-5.23,2.99-6.26c2.54-0.92,4.73,0.04,5.84,2.55
		C929.83,475.89,928.66,478.02,926.38,479.41z"/>
	<path class="st0" d="M798.51,216.79c-1.12-3.12-0.45-5.47,2.42-6.68c2.86-1.21,5.21-0.17,6.38,2.67c1.04,2.52,0.2,4.72-2.25,5.95
		C802.25,220.14,800.05,219.08,798.51,216.79z"/>
	<path class="st0" d="M383.88,8.86c-2.7,1.04-4.89,0.45-6.19-2.19c-1.28-2.61-0.54-4.75,2.18-5.99c2.69-1.22,4.91-0.5,6.21,2.13
		C387.37,5.43,386.55,7.47,383.88,8.86z"/>
	<path class="st0" d="M265.08,20.42c-3.15,0.97-5.6,0.15-6.79-2.78c-1.19-2.95,0.04-5.28,3.08-6.34c2.7-0.95,5.02,0.01,6.22,2.54
		C268.95,16.72,267.86,18.94,265.08,20.42z"/>
	<path class="st0" d="M816.2,936.29c-3.1,1.27-5.19,0.59-6.36-2.08c-1.17-2.68-0.3-4.85,2.37-6.12c2.69-1.28,4.78-0.46,5.98,2.18
		C819.43,932.99,818.32,934.99,816.2,936.29z"/>
	<path class="st0" d="M338.12,1171.12c1.11,2.94,0.4,5.46-2.64,7.03c-2.68,1.38-5.15,0.75-6.57-1.72c-1.59-2.76-0.94-5.48,2.04-7.21
		C333.89,1167.52,336.36,1168.33,338.12,1171.12z"/>
	<path class="st0" d="M933.51,591.1c-1.37-2.91-1-5.1,1.55-6.54c2.47-1.39,4.69-0.92,6.08,1.62c1.35,2.47,0.85,4.71-1.68,6.15
		C936.97,593.76,934.89,593.09,933.51,591.1z"/>
	<path class="st0" d="M575.57,1138.41c-1.83,1.05-3.35,0.76-4.25-1.07c-1.06-2.17-0.14-3.86,2.01-4.75
		c1.85-0.77,3.38-0.15,4.14,1.71C578.26,1136.23,577.47,1137.58,575.57,1138.41z"/>
	<path class="st0" d="M75.15,56.07c0.7,1.86,0.13,3.33-1.71,4.17c-2.22,1.02-3.97,0.31-4.8-1.85c-0.75-1.94,0.32-3.1,2.23-3.84
		C72.87,53.77,74.24,54.26,75.15,56.07z"/>
	<path class="st0" d="M144.16,30.19c-1.77,0.7-3.49,0.65-4.43-1.23c-0.51-1.03-1.86-2.85,0.98-2.89c1.74-0.03,3.88-2.38,5.19,0.52
		C146.62,28.17,145.65,29.32,144.16,30.19z"/>
	<path class="st0" d="M645.69,1099.16c0.89,2.71-2.18,2.72-3.25,4.13c-1.35,1.78-2.13,0.14-2.56-0.69
		c-1.09-2.13-0.26-3.85,1.96-4.78C643.37,1097.17,644.73,1097.49,645.69,1099.16z"/>
	<path class="st0" d="M909.05,359.93c2.24,0.97,2.75,2.78,2.59,4.88c-0.01,0.12-1.31,0.44-1.72,0.19
		C907.87,363.74,907.14,362.11,909.05,359.93z"/>
	<path class="st0" d="M881.2,300.16c-2.89,0.06-3.67-1.55-3.32-3.93c0.07-0.47,1.16-1.27,1.26-1.19
		C880.83,296.27,881.91,297.82,881.2,300.16z"/>
	<path class="st0" d="M3.9,249.45c-0.78-1.78-1.89-3.26-3.21-4.43v18.18C4.71,259.8,6.11,254.5,3.9,249.45z"/>
	<path class="st0" d="M19.05,365.07c-3.19-6.53-11.07-10.03-18.37-8.79v31.87c3.33,0.52,6.84,0.14,10-1.33
		C18.95,382.98,22.85,372.84,19.05,365.07z"/>
	<path class="st0" d="M12.55,533.55c-2.31-5.16-6.72-8.68-11.87-10.07v34.98c0.62-0.21,1.23-0.45,1.84-0.72
		C12.26,553.38,16.67,542.75,12.55,533.55z"/>
	<path class="st0" d="M24.43,652.65c-4.09-9.12-14.11-13.06-23.75-9.64v35.62c4.14,1.11,8.77,0.81,13.24-1.15
		C24.2,672.99,28.74,662.25,24.43,652.65z"/>
	<path class="st0" d="M0.69,722.08c4.07-5.18,5.29-12.2,2.51-18.22c-0.66-1.42-1.52-2.69-2.51-3.84V722.08z"/>
	<path class="st0" d="M12.98,824.56c-2.41-4.97-7.07-8.02-12.3-8.6v31.57c1.4-0.3,2.79-0.76,4.16-1.43
		C13.27,841.99,16.84,832.53,12.98,824.56z"/>
	<path class="st0" d="M21.73,947.19c-2.91-6.55-10.2-9.08-17.08-5.92c-1.52,0.7-2.84,1.6-3.96,2.63v18.54
		c3.6,3.23,8.93,4.01,14.03,1.66C21.63,960.92,24.62,953.71,21.73,947.19z"/>
	<path class="st0" d="M32.75,482.61c-4.36-9.24-15.06-13.03-24.89-8.83c-2.87,1.23-5.27,2.96-7.17,5.01v24.5
		c5.36,5.88,14.07,7.7,22.21,4.05C33,502.82,37.25,492.14,32.75,482.61z"/>
</g>
</svg>
