<svg xmlns="http://www.w3.org/2000/svg" width="22" height="22">
    <path fill="#FFF" fill-rule="evenodd" d="M21.785 15.473c-.053 1.155-.236 1.944-.505 2.634a5.31 5.31 0 0 1-1.251 1.922 5.31 5.31 0 0 1-1.922 1.251c-.69.268-1.479.452-2.634.505-1.157.053-1.526.065-4.473.065s-3.316-.012-4.473-.065c-1.155-.053-1.944-.237-2.634-.505a5.31 5.31 0 0 1-1.922-1.251A5.31 5.31 0 0 1 .72 18.107c-.269-.69-.452-1.479-.505-2.634C.162 14.316.15 13.947.15 11s.012-3.316.065-4.474C.268 5.371.451 4.583.72 3.893a5.31 5.31 0 0 1 1.251-1.922A5.31 5.31 0 0 1 3.893.72C4.583.451 5.372.268 6.527.215 7.684.162 8.053.15 11 .15s3.316.012 4.473.065c1.155.053 1.944.236 2.634.505a5.31 5.31 0 0 1 1.922 1.251 5.31 5.31 0 0 1 1.251 1.922c.269.69.452 1.478.505 2.633.052 1.158.065 1.527.065 4.474s-.013 3.316-.065 4.473zm-1.953-8.858c-.048-1.057-.225-1.632-.374-2.014a3.37 3.37 0 0 0-.811-1.248 3.379 3.379 0 0 0-1.248-.811c-.382-.149-.957-.326-2.015-.374-1.144-.052-1.487-.063-4.384-.063-2.897 0-3.24.011-4.384.063-1.058.048-1.633.225-2.015.374a3.379 3.379 0 0 0-1.248.811 3.37 3.37 0 0 0-.811 1.248c-.149.382-.326.957-.374 2.014C2.116 7.76 2.105 8.103 2.105 11s.011 3.24.063 4.384c.048 1.058.225 1.633.374 2.015.197.506.432.868.811 1.247.38.38.742.615 1.248.812.382.149.957.325 2.015.374 1.144.052 1.487.063 4.384.063 2.897 0 3.24-.011 4.384-.063 1.058-.049 1.633-.225 2.015-.374a3.369 3.369 0 0 0 1.248-.812c.379-.379.614-.741.811-1.247.149-.382.326-.957.374-2.015.052-1.144.063-1.487.063-4.384 0-2.897-.011-3.24-.063-4.385zm-3.04-.105a1.302 1.302 0 1 1 0-2.604 1.302 1.302 0 0 1 0 2.604zM11 16.572a5.572 5.572 0 1 1 0-11.145 5.572 5.572 0 0 1 0 11.145zm0-9.189a3.618 3.618 0 1 0 .002 7.236A3.618 3.618 0 0 0 11 7.383z"/>
</svg>
