<?xml version="1.0" encoding="utf-8"?>
<!-- Generator: Adobe Illustrator 24.0.1, SVG Export Plug-In . SVG Version: 6.00 Build 0)  -->
<svg version="1.1" id="Layer_1" xmlns="http://www.w3.org/2000/svg" xmlns:xlink="http://www.w3.org/1999/xlink" x="0px" y="0px"
	 viewBox="0 0 1123 812" style="enable-background:new 0 0 1123 812;" xml:space="preserve">
<style type="text/css">
	.st0{fill:#101110;}
</style>
<g>
	<path class="st0" d="M1000.83,344.96l-32.41-85.12l3.87,0.9c4.88,1.13,8.87,4.61,10.65,9.29l22.26,56.11
		c2.07,5.22,1.3,11.14-2.03,15.66L1000.83,344.96z"/>
	<path class="st0" d="M823.1,356.41c19.58,2.5,146.26,9.17,163.34,8.33c17.08-0.83,24.17-26.67,24.17-26.67l10.72,27.24
		c2.23,5.68-2.02,11.8-8.12,11.67c-46.13-0.95-201.35-4.32-208.45-6.41c-14.17-4.17-23.34-42.09-23.34-42.09
		S803.51,353.91,823.1,356.41z"/>
	<path class="st0" d="M615.06,267.95c-1.88,1.7-3.21,2.92-4.12,3.76l-99.01-41.56L615.06,267.95z"/>
	<path class="st0" d="M20.01,24.69c0.77-1.99,1.4-4.04,1.89-6.12l204.81,91.99L19.92,24.93L20.01,24.69z"/>
	<path class="st0" d="M612.04,270.99l10.51-0.29l32.77,12.01c0,0-0.21,1.51-0.94,3.28c-0.73,1.77-2.24,3.02-2.24,3.02l-41.03-17.22
		C611.63,271.34,612.04,270.99,612.04,270.99z"/>
	<path class="st0" d="M17,31.39c1.77-3.13,2.08-3.96,2.08-3.96L651.31,291.4c0,0-2.86,2.14-5.99,2.86
		c-1.92,0.45-5.75,0.43-8.12,0.08c-1.57-0.24-3.1-0.67-4.57-1.28L13.77,35.55C13.77,35.55,15.23,34.51,17,31.39z"/>
	<polygon class="st0" points="690.17,535.07 629.54,604.45 629.54,596.63 689.86,525.38 	"/>
	<path class="st0" d="M698.15,570.19l6.19,12.06l-8.13-1.25l-7.71,14.58l-6.67-0.83l-1.25-4.1c-0.72-2.38-3.79-3.02-5.41-1.14
		l-3.97,4.61l-0.57-2.8c-0.83-4.05,0.13-8.25,2.64-11.54L693,553.94c2.54-3.33,7.18-4.22,10.78-2.07l2.02,1.21l-7.11,9.89
		C697.17,565.09,696.96,567.88,698.15,570.19z"/>
	<path class="st0" d="M689.12,603.69l-13.38-1.75c-1.76-0.23-3.01-1.48-3.44-2.98c0.44,0.26,0.94,0.44,1.5,0.52l12.55,1.64
		c3.9,0.51,7.76-1.18,10.03-4.39l10.06-14.21c1.35-1.9,0.72-4.39-1.03-5.56l2.25,0.3c3.13,0.42,4.7,4.02,2.87,6.6l-10.72,15.15
		C697.39,602.43,693.28,604.23,689.12,603.69z"/>
	<path class="st0" d="M615.37,454.96l-24.34-0.92c-1.88-0.07-3.5-1.36-4-3.18l-1.04-3.82l1.74,2.79c0.86,1.38,2.36,2.24,3.99,2.28
		l23.09,0.55c-0.57-2.89-1.2-8.01,0.34-12.49C617.46,433.5,626,428.7,626,428.7l8.75,4.58c0,0,1.25,7.5-3.96,14.38
		C625.58,454.54,615.37,454.96,615.37,454.96z"/>
	<path class="st0" d="M585.48,541.88c0.5-1.47,1.55-2.51,2.81-3.1c2.19-2.3,8.78-3.17,11.17-1.15c5.95,5.03,14.27,12.67,16.28,16.29
		c2.4,4.32,0.83,7.6,0.83,7.6h-0.73c0.21-2.45-0.26-3.65-1.67-6.04c-2.09-3.57-10.13-11.51-16.28-16.29
		c-2.49-1.94-5.73-1.66-8.01-0.88c1.42-0.19,2.92,0.15,4.15,1.19c5.95,5.03,14.43,12.59,16.28,16.29
		c2.92,5.83,0.83,11.04,0.83,11.04l-28.48-3.33c0,0-2.14-6.25-0.27-12.29C583.22,548.56,584.41,545.02,585.48,541.88z"/>
	<path class="st0" d="M660.59,457.66l-24.34-0.92c-1.88-0.07-3.5-1.36-4-3.18l-1.04-3.82l1.74,2.79c0.86,1.38,2.36,2.24,3.99,2.28
		l23.09,0.55c-0.57-2.89-1.2-8.01,0.34-12.49c2.29-6.67,10.83-11.46,10.83-11.46l8.75,4.58c0,0,1.25,7.5-3.96,14.38
		C670.79,457.25,660.59,457.66,660.59,457.66z"/>
	<polygon class="st0" points="641.62,598.02 692.05,537.25 696.58,537.41 647.36,600.23 	"/>
	<path class="st0" d="M645.79,501.63c-6.86,6.86-19.63,7.69-29.31,6.93l-58.31-4.59c-3.63-0.29-6.87-2.4-8.59-5.61l-1.93-3.6
		l3.71,2.79c1.66,1.24,3.64,1.98,5.7,2.12l58.19,3.91c11.24,0.76,22.26-3.44,30.15-11.47l28.66-29.17
		c7.39-7.52,12.05-17.3,13.23-27.78l0.36-3.2l4.14,3.29c4.29,3.41,6.3,14.09,2.43,17.96L645.79,501.63z"/>
	<path class="st0" d="M549.84,533.78c2.19-2.3,8.78-3.17,11.17-1.15c5.95,5.03,14.27,12.67,16.28,16.29c2.4,4.32,0.83,7.6,0.83,7.6
		h-0.73c0.21-2.45-0.26-3.65-1.67-6.04c-2.09-3.57-10.13-11.51-16.28-16.29c-2.49-1.94-5.73-1.66-8.01-0.88
		c1.42-0.19,2.92,0.15,4.15,1.19c5.95,5.03,14.43,12.59,16.28,16.29c2.92,5.83,0.83,11.04,0.83,11.04l-28.48-3.33
		c0,0-2.14-6.25-0.27-12.29c0.82-2.66,2.01-6.2,3.08-9.33C547.54,535.41,548.59,534.37,549.84,533.78z"/>
	<path class="st0" d="M452.66,541.39c-1.32-1.18-2.04-2.8-2.2-4.57c0.31,0.69,0.73,1.33,1.32,1.85c2.61,2.33,6.99,1.67,9.79-1.46
		c2.8-3.13,2.95-7.56,0.34-9.89c-0.71-0.64-1.56-1.04-2.47-1.24c2-0.21,3.95,0.31,5.43,1.63c3.14,2.8,2.96,8.14-0.41,11.92
		C461.08,543.41,455.8,544.2,452.66,541.39z"/>
	<path class="st0" d="M432.66,561.39c-1.32-1.18-2.04-2.8-2.2-4.57c0.31,0.69,0.73,1.33,1.32,1.85c2.61,2.33,6.99,1.67,9.79-1.46
		c2.8-3.13,2.95-7.56,0.34-9.89c-0.71-0.64-1.56-1.04-2.47-1.24c2-0.21,3.95,0.31,5.43,1.62c3.14,2.8,2.96,8.14-0.41,11.92
		C441.08,563.41,435.8,564.2,432.66,561.39z"/>
	<path class="st0" d="M496.92,542.72l5.25,10.23l-6.89-1.06l-6.54,12.37l-5.66-0.71l-1.06-3.48c-0.61-2.02-3.21-2.57-4.59-0.97
		l-3.37,3.91l-0.49-2.37c-0.7-3.43,0.11-7,2.24-9.79l16.73-21.93c2.16-2.83,6.09-3.58,9.14-1.75l1.72,1.03l-6.03,8.39
		C496.09,538.39,495.91,540.76,496.92,542.72z"/>
	<path class="st0" d="M956.44,688.36c0,9.34,3.41,17.01,7.77,17.88c-0.21,0.03-0.42,0.09-0.63,0.09c-4.75,0-8.59-8.05-8.59-17.97
		c0-9.92,3.85-17.97,8.59-17.97c0.26,0,0.51,0.02,0.76,0.07C959.92,671.2,956.44,678.92,956.44,688.36z"/>
	<path class="st0" d="M972.4,694.82c-0.93,4.37-2.58,7.72-4.59,9.17c0,0,0,0,0-0.01c-0.01,0.01-0.03,0.02-0.04,0.04
		c-0.69,0.49-1.42,0.75-2.17,0.75c-4.2,0-7.6-8.05-7.6-17.97c0-5.57,1.3-8.07,2.6-10.89c-0.51,2.42-1.41,4.38-1.46,8.85
		c-0.12,9.92,2.95,17.34,7.15,17.34C968.8,702.11,971.02,699.23,972.4,694.82z"/>
	<path class="st0" d="M971.28,683.2c0.18,0,0.35,0.06,0.53,0.09c-1.98,0.45-3.49,2.68-3.49,5.37c0,2.7,1.52,4.94,3.51,5.38
		c-0.18,0.03-0.35,0.09-0.54,0.09c-2.33,0-4.22-2.45-4.22-5.47C967.06,685.65,968.95,683.2,971.28,683.2z"/>
	<path class="st0" d="M1053.26,655.2c-0.84,3.97-2.34,7.01-4.16,8.32c0,0,0,0,0-0.01c-0.01,0.01-0.02,0.02-0.04,0.04
		c-0.62,0.44-1.29,0.68-1.97,0.68c-3.81,0-6.9-7.3-6.9-16.31c0-5.06,1.18-7.33,2.36-9.88c-0.46,2.19-1.28,3.97-1.32,8.04
		c-0.1,9.01,2.68,15.74,6.49,15.74C1049.99,661.82,1052,659.21,1053.26,655.2z"/>
	<path class="st0" d="M1038.77,649.34c0,8.48,3.09,15.44,7.05,16.23c-0.19,0.03-0.38,0.08-0.57,0.08c-4.31,0-7.8-7.3-7.8-16.31
		c0-9.01,3.49-16.31,7.8-16.31c0.23,0,0.46,0.02,0.69,0.07C1041.93,633.77,1038.77,640.77,1038.77,649.34z"/>
	<path class="st0" d="M1052.25,644.66c0.17,0,0.32,0.06,0.48,0.09c-1.8,0.41-3.17,2.43-3.17,4.88c0,2.45,1.38,4.48,3.18,4.88
		c-0.16,0.03-0.32,0.08-0.49,0.08c-2.12,0-3.83-2.22-3.83-4.96C1048.42,646.88,1050.13,644.66,1052.25,644.66z"/>
	<path class="st0" d="M1106.8,615.2c0,7.45,2.72,13.56,6.19,14.26c-0.17,0.03-0.33,0.07-0.5,0.07c-3.78,0-6.85-6.41-6.85-14.33
		c0-7.91,3.07-14.33,6.85-14.33c0.21,0,0.41,0.02,0.61,0.06C1109.58,601.53,1106.8,607.68,1106.8,615.2z"/>
	<path class="st0" d="M1119.53,620.35c-0.74,3.48-2.06,6.16-3.66,7.31c0,0,0,0,0-0.01c-0.01,0.01-0.02,0.02-0.03,0.03
		c-0.55,0.39-1.13,0.6-1.73,0.6c-3.35,0-6.06-6.41-6.06-14.33c0-4.44,1.04-6.44,2.08-8.68c-0.41,1.93-1.12,3.49-1.16,7.06
		c-0.09,7.91,2.35,13.83,5.7,13.83C1116.66,626.17,1118.43,623.87,1119.53,620.35z"/>
	<path class="st0" d="M1118.64,611.09c0.15,0,0.28,0.05,0.42,0.08c-1.58,0.36-2.79,2.13-2.79,4.28c0,2.16,1.21,3.93,2.8,4.29
		c-0.14,0.03-0.28,0.07-0.43,0.07c-1.86,0-3.36-1.95-3.36-4.36C1115.28,613.04,1116.78,611.09,1118.64,611.09z"/>
	<g>
		<polygon class="st0" points="615.17,379.95 636.42,379.69 636.42,379.69 		"/>
		<path class="st0" d="M1123,705.83c-56.36,44.75-129.51,95.94-142.18,98.32c-20,3.75-84.38-33.13-95.01-45.63
			c-10.63-12.5-10.63-16.25-12.5-43.75c-0.68-9.98-0.04-25.38,1.04-40.97c-4.57,8.74-14.45,13.51-24.24,11.3l-138.54-25.17
			l-3.48,1.92l-329.34-57.33l17.56,11.71v0c-0.69,6.56-0.75,13.44-0.14,20.49c1.66,18.91,8,35.73,17.08,48.15
			c-16.89-6.1-32.84-12.97-35.61-16.35c-5.63-6.88-12.5-55-12.5-55l9.68-9.68l1.69,0.29l-5.94-1.03l38.31-89.39l-20.78,4.44
			l-48.04,77.03l-90.01-14.17l84.78,13.35l-0.18,0.29l-52-7.39c0,0-2.5,33.75,0,43.13c2.5,9.38,8.75,20,18.75,27.5
			c10,7.5,157.51,66.25,176.26,65.63c16.29-0.54,97.64-29.38,118.74-36.95l139.27,26.78c0.02,0.22,0.03,0.37,0.03,0.37l6.35,0.89
			c0,0,0-0.03,0-0.03l0.05,0.01c1.58,8.8,4.24,17.13,8.7,24.56c7.5,12.5,89.38,61.25,109.38,66.25c16.4,4.1,84.47,5.87,108.45,6.37
			c3.26,0.49,6.12,0.59,8.41,0.16c13.1-2.46,87-54.37,145.96-100.91V705.83z M480.83,691c5.43-6.53,9.79-14.78,12.74-24.2
			l41.42,7.96C525.53,677.77,500.65,685.57,480.83,691z"/>
		<path class="st0" d="M381.3,517.04l28.78-6.15l5.49-12.8l167.51-87.51l327.52,5l16.16,116.79l-11.66,2.81l-3.04-0.42l-86.26-4.38
			l-88.01,26.65l-1.78-0.8l-45,99.38l4.56,2.06l45-99.38l-1.8-0.82l168.91,21.04l37.09-23.33c0,0,92.92-21.67,152.93-39.17
			c8.49-2.48,16.98-5.14,25.3-7.89v-99.54c-1.59-0.29-3.22-0.46-4.91-0.46c-11.87,0-21.66,7.58-23.26,17.42
			c-0.15-0.93-0.26-1.87-0.26-2.83c0-11.18,10.53-20.25,23.52-20.25c1.69,0,3.33,0.16,4.91,0.45v-4.92
			c-1.39-0.2-2.81-0.31-4.26-0.31c-0.92,0-1.82,0.05-2.72,0.14c-6.18,0.58-11.79,3.11-16.23,6.95l-0.17,0l-24.81-16.22l-0.01-0.11
			l-0.11,0.04l-0.22-0.14l0.01,0.22l-15.54,5.7l-8.72-5.7l-0.01-0.11l-0.11,0.04l-0.22-0.14l0.01,0.22l-15.2,5.52l-8.44-5.52
			l-0.01-0.11c0,0-0.12-0.03-0.28-0.08l-0.04-0.03l0,0.02c-1.82-0.46-11.77-2.51-19.5,5.79c-5.12,5.5-6.64,9.98-7.1,12.21
			l-12.81,0.2c3.42-3.46,5.53-8.22,5.53-13.47v-2.88c0-2.58-0.52-5.03-1.44-7.28l25.4,0.6c0.1,0,0.2,0,0.3,0
			c4.11,0,7.94-1.99,10.31-5.37c2.42-3.46,2.94-7.88,1.39-11.81l-39.06-99.28c-2.07-5.27-5.83-9.49-10.56-12.19
			c-3.22-8.64-9.84-16.04-18.83-20.57c-5.9-2.98-12.6-4.56-19.39-4.56c-11.64,0-22.12,4.58-29.5,11.86
			c-16.36-2.69-32.87-5.24-46.75-7.07v-3.12v-3.54V224c0,0-3.41-2.92-19.63-5.22c-7.03-3.7-15-5.72-23.28-5.72
			c-6.15,0-12.03,1.1-17.42,3.09c-2.95-0.04-6.01-0.07-9.25-0.07c-60.42,0-65.84,8.33-65.84,8.33v3.85v3.54v3.85v3.85v1.44
			l-73.34,3.15c0,0-11.5,2.16-24.81,8.89L18.85,0.61l-0.09-0.02c-0.35-0.08-8.62-1.95-15.83,15.1C-3.78,31.56,3.2,37.52,3.5,37.77
			l0.31,0.19l593.47,245.79c-2.23,4.26-4.04,8.94-5.25,14.11c-11.5,49.41,1.09,67.46,10.28,73.95c4.29,3.03,7.85,3.55,7.85,3.55
			l195.01,1.88c0,0-1.08-0.78-2.8-2.36l-16.78-6.16l-56.98-92.65l17.27-8.81l-53.78,1.5l3.9,2.23c0,0,7.95,7.14,10.42,15.83
			c3.96,13.96-4.58,27.09-4.58,27.09l-21.25-11.67c0,0,3.75-6.25,5-17.92c0.61-5.7-0.72-11.18-2.24-15.32l-2.29,0.06
			c2.94,7.85,2.98,17.34-0.58,26.47c-6.9,17.68-24.67,27.26-39.69,21.39c-2.52-0.98-4.78-2.37-6.8-4.03
			c1.17,0.69,2.38,1.33,3.68,1.84c15.02,5.86,32.79-3.72,39.69-21.39c3.23-8.27,3.5-16.83,1.34-24.21l-3.51,0.1
			c2.44,7.31,1.72,16.03-1.78,24.99c0,0-1.27-0.56-2.81-1.15c-2.19-0.83-3.16-0.59-3.02-0.94c3.57-8.8,3.4-16.58,0.63-22.71
			l-10.62,0.3c0.4,0.56,0.78,1.14,1.11,1.75c3.07,5.77,2.51,12.41-1.68,19.73c-6.08,10.64-28.27,2.86-28.5,2.78L4.97,35.73
			c-0.81-0.8-5.27-6,0.26-19.07C11.17,2.63,17.41,2.91,18.11,3.01l613.42,253.18c11.25-5.83,23.17-9.26,23.17-9.26l124.81-5.32
			c6.49-15.21,22.63-26.03,41.51-26.03c9.23,0,18.05,2.61,25.48,7.38c-5.69-2.32-11.97-3.63-18.61-3.63
			c-17.36,0-32.47,8.86-40.25,21.93l6.29-0.27c0,0-0.7,1.02-1.77,2.68l9.16-4.67c0.65-0.25,9.46-3.51,31.43-4.68
			c0.6-0.03,1.26-0.05,1.99-0.05c12.77,0,45.23,4.79,76.82,10c6.96-7.35,17.2-12.03,28.64-12.03c4.2,0,8.36,0.65,12.3,1.89
			c-1.67-0.2-3.38-0.32-5.11-0.32c-11.4,0-21.63,4.5-28.79,11.64c19.97,3.35,38.97,6.74,51.64,9.04c7.49,1.36,13.62,6.4,16.41,13.49
			l39.06,99.28c1.24,3.15,0.82,6.68-1.12,9.46c-1.94,2.77-5.07,4.35-8.5,4.3l-165.73-3.94l-213.94,2.62
			c-1.97,3.02-3.13,6.61-3.13,10.49v2.88c0,4.86,1.82,9.28,4.8,12.67l-64.18-0.98l-163.98,85.66l-30.62-2.74l-80.84,22.5l0.7,0.06
			l-53.64,69.92l4.53,0.71l0.08,0.01l-0.1,0.14l54.17-70.84L381.3,517.04z M1100.2,406.62l-23.75,0.94l-0.62-16.88L1100.2,406.62z
			 M1075.61,406.62l-23.75,0.94l-0.63-16.88L1075.61,406.62z M1051.65,406.62l-23.75,0.94l-0.62-16.88L1051.65,406.62z"/>
	</g>
	<path class="st0" d="M1123,649.82v-34.37c0,2.18-1.24,3.97-2.85,4.29c-0.7,4.36-2.37,7.78-4.47,9.14
		c-1.51,8.88-4.69,15.01-8.37,15.01c-5.14,0-9.3-11.9-9.3-26.58s4.16-26.58,9.3-26.58c2.99,0,5.63,4.04,7.33,10.29
		c2.67,0.8,4.84,4.83,5.58,10.13c1.58,0.36,2.78,2.13,2.78,4.28v-50.63c-2.18-6.29-4.96-10.04-8.21-10.68
		c0.33-0.07,0.66-0.11,0.99-0.11c2.75,0,5.17,2.14,7.23,6.07v-9.68c-0.79-0.39-1.6-0.66-2.44-0.78c0.83,0.1,1.64,0.31,2.44,0.62
		v-16.84l-238.44,85.1l-6.88,81.88c0,0-5.63,43.13,15.63,60.63c12.94,10.66,32.95,20.2,43.74,24.95
		c-13.55-14.45-20.47-53.24-15.96-97.75c5.6-55.2,26.69-98.28,47.09-96.2c0.21,0.02,0.41,0.07,0.61,0.1
		c-19.24,2.88-38.25,44.1-43.53,96.1c-4.89,48.2,3.64,89.67,19.46,100.8l22.28-17.4c-2.9,1.34-5.88,1.9-8.9,1.9
		c-16.25,0-19.17-57.09-19.17-57.09s0.14-1.21,0.4-3.34c2.24,27.63,8.18,46.11,17.7,49.27c11.3-2.79,26.59-35.51,26.59-77.6
		c0-42.36-6.53-70.91-17.18-72.99c0.42-0.08,0.83-0.14,1.24-0.14c11.39,0,18.44,29.12,18.44,73.13s-16.74,77.82-28.13,77.82
		c-0.16,0-0.31-0.04-0.47-0.05c0.8,0.22,1.62,0.36,2.47,0.36c14.38,0,35.5-35.13,35.5-80.88c0-44.17-8.29-73.9-21.81-75.89
		c19.97,2.38,31.35,53.41,19.83,111.56c-4.91,24.78-11.11,39.33-18.05,47.33l27.67-21.6l21.46-2.51
		c-14.52-9.84-22.37-47.69-17.91-91.68c5.09-50.1,24.22-89.19,42.73-87.31c0.19,0.02,0.37,0.07,0.56,0.1
		c-17.46,2.61-34.72,40.02-39.51,87.21c-3.47,34.23,0.51,64.72,9.29,81.21l12.65-9.88c-7.88-13.68-9.52-45.73-9.52-45.73
		s0.12-1.09,0.36-3.03c1.95,23.99,6.98,40.35,14.97,44.23l10.58-8.26c7.7-11.9,14.65-34.66,14.65-61.68
		c0-38.44-5.93-64.35-15.59-66.24c0.38-0.07,0.75-0.12,1.12-0.12c10.34,0,16.73,26.42,16.73,66.37c0,24.68-5.8,45.81-12.67,58.36
		l5.33-4.16l2.32-0.05c7.55-13.3,13.52-33.47,13.52-56.64c0-40.09-7.53-67.07-19.79-68.87c18.13,2.16,28.45,48.47,18,101.24
		c-1.92,9.7-4.06,17.65-6.38,24.16l18.46-5.97l7.41-3.64l-7.78-10.08c-5.86-15.42-8.17-39.13-5.52-65.33
		c4.47-44.01,21.28-78.35,37.54-76.7c0.16,0.02,0.32,0.06,0.49,0.08c-15.34,2.3-30.5,35.16-34.71,76.62
		c-2.54,25.07-0.53,47.85,4.68,63.13l11.21-8.76c-4.04-13.41-4.99-31.88-4.99-31.88s0.11-0.96,0.32-2.66
		c1.17,14.44,3.62,25.71,7.29,32.49l0.41,0.67l0.57,0.98c1.52,2.35,3.23,3.98,5.13,4.82l2.09-0.22c4.29-2.12,9.09-9.14,12.89-19.47
		l-1-2.47L1123,649.82z M940.5,690.86c0-18.3,5.22-33.13,11.67-33.13c0.28,0,0.82-0.02,1.44-0.03
		c-6.39,0.19-11.54,15.03-11.54,33.32c0,16.79,4.35,30.64,10,32.96C945.67,723.82,940.5,709.06,940.5,690.86z M973.26,683.3
		c1.98,0.45,3.49,2.68,3.49,5.37c0,2.74-1.55,4.98-3.58,5.39c-0.88,5.47-2.97,9.76-5.61,11.46c-1.89,11.14-5.88,18.83-10.5,18.83
		c-6.44,0-11.67-14.92-11.67-33.34s5.22-33.34,11.67-33.34c3.74,0,7.06,5.07,9.2,12.91C969.61,671.59,972.33,676.64,973.26,683.3z
		 M1024.31,651.61c0-16.6,4.74-30.07,10.59-30.07c0.26,0,0.75-0.02,1.31-0.03c-5.8,0.17-10.48,13.64-10.48,30.24
		c0,15.24,3.95,27.81,9.08,29.91C1029,681.52,1024.31,668.12,1024.31,651.61z M1054.04,644.74c1.8,0.41,3.17,2.43,3.17,4.88
		c0,2.48-1.41,4.52-3.25,4.89c-0.79,4.96-2.69,8.86-5.09,10.4c-1.71,10.11-5.33,17.09-9.53,17.09c-5.85,0-10.59-13.54-10.59-30.25
		s4.74-30.25,10.59-30.25c3.4,0,6.41,4.6,8.35,11.71C1050.73,634.12,1053.19,638.7,1054.04,644.74z M1094.1,617.2
		c0-14.59,4.16-26.41,9.3-26.41c0.22,0,0.65-0.02,1.15-0.03c-5.09,0.15-9.2,11.98-9.2,26.56c0,13.39,3.47,24.43,7.98,26.28
		C1098.22,643.47,1094.1,631.71,1094.1,617.2z"/>
</g>
</svg>
