<?xml version="1.0" encoding="utf-8"?>
<!-- Generator: Adobe Illustrator 24.0.1, SVG Export Plug-In . SVG Version: 6.00 Build 0)  -->
<svg version="1.1" id="Layer_1" xmlns="http://www.w3.org/2000/svg" xmlns:xlink="http://www.w3.org/1999/xlink" x="0px" y="0px"
	 viewBox="0 0 1920 1394" style="enable-background:new 0 0 1920 1394;" xml:space="preserve">
<style type="text/css">
	.st0{fill-rule:evenodd;clip-rule:evenodd;fill:#AA0023;}
	.st1{clip-path:url(#SVGID_2_);}
	.st2{fill:#910023;}
</style>
<g>
	<path class="st0" d="M15.98,38.76c3.35,2.39,9.56-1.43,19.13-6.69c9.56-5.26,3.83-13.86,9.08-18.64
		c5.26-4.78,13.39-4.78,20.56-2.39c7.17,2.39,23.43,12.43,32.51,9.08c9.08-3.35,14.97-14.9,11.48-18.17
		c-7.17-6.69-23.43,3.82-32.99,0C66.18-1.87,56.62,3.39,52.8,5.3c-3.83,1.91-23.43,10.52-31.56,15.42
		C13.11,25.63,12.63,36.37,15.98,38.76z"/>
	<path class="st0" d="M1579.05,332.84c3.55,1.33,6.21-0.89,6.66-3.55c0.44-2.66-4.42-4.68-6.66-3.55
		C1575.02,327.79,1575.5,331.51,1579.05,332.84z"/>
	<path class="st0" d="M1598.58,327.07c6.21,1.77,11.09,1.13,11.54-1.65c0.44-2.78-4.88-8.1-11.54-8.55
		C1593.96,316.56,1592.37,325.3,1598.58,327.07z"/>
	<path class="st0" d="M1608.34,299.4c11.09,5.05,16.42-2.04,16.42-2.04s2.66,9.76-6.21,11.09c0,0-3.55,9.62,11.09,6.59
		s21.74-12.35,18.19-19.45c-3.55-7.1-18.19-8.87-18.19-8.87s9.76-7.1,1.77-13.31c-7.99-6.21-14.59-7.98-21.27-2.22
		c-6.68,5.77-1.8,15.52-1.8,15.52S1597.25,294.34,1608.34,299.4z"/>
	<path class="st0" d="M1596.8,271.87c-1.33-5.57-4.88-4.19-4.88-4.19c-2.22,0.4-0.89,5.72,0,8.38
		C1592.81,278.72,1598.13,277.44,1596.8,271.87z"/>
	<path class="st0" d="M1659.81,214.85c3.99-3.55,4.44-8.87-4.44-11.09c-4.08-1.02-7.96,8.87-6.64,11.09
		C1650.05,217.07,1655.82,218.4,1659.81,214.85z"/>
	<path class="st0" d="M1728.14,290.26c4.44,2.66,5.77-3.99,5.77-7.1c0-3.1-5.77-3.55-5.77-3.55
		C1725.03,280.5,1723.7,287.59,1728.14,290.26z"/>
	<path class="st0" d="M1745.89,279.61c6.66,0.89,15.53,2.22,18.64-2.22c0,0-1.33,12.32,9.32,13.48c10.65,1.16,20.85-0.05,20.85-9.2
		c0-9.15-9.76-11.81-13.31-11.81c-3.55,0-6.21-1.33-6.66-4.44c-0.44-3.1-7.1-12.42-15.97-9.76c-8.87,2.66-12.42,9.1-9.76,11.87
		c2.66,2.77,0.89,6.21-5.32,4.93C1741.02,271.92,1739.23,278.72,1745.89,279.61z"/>
	<path class="st0" d="M1792.03,307.55c-3.11,0.44-5.17,3.11-6.36,3.11s-1.19-2.66-6.51-0.44c-2.62,1.09-3.11,6.19,0,6.65
		c3.11,0.45,10.21,0.44,12.87-3.32C1794.7,309.77,1795.14,307.11,1792.03,307.55z"/>
	<path class="st0" d="M1689.98,363c2.22,1.33,6.66-0.84,6.21-4.41c-0.44-3.57-4.44-2.69-4.44-2.69
		C1688.65,357.23,1687.76,361.67,1689.98,363z"/>
	<path class="st0" d="M1696.22,322.46c5.29,2.39,18.16,2.63,16.83,2.96s-5.32,9.99,4.44,7.82c9.76-2.17,15.97-13.76,14.64-16.17
		c-1.33-2.41-11.54-2.03-11.54-2.03s-4.7-6.14-10.11-5.7c-5.41,0.44-10.3,2.96-10.3,2.96
		C1697.08,313.32,1690.93,320.07,1696.22,322.46z"/>
	<path class="st0" d="M1257.37,329.33c0.89-2.26-6.21-3.91-6.21-3.91c-2.66-0.12-6.21,0.4-3.11,3.91
		C1251.16,332.84,1256.48,331.58,1257.37,329.33z"/>
	<path class="st0" d="M1393.59,230.82c0-2.66-2.66-1.77-2.66-1.77c-2.22,0.89-4.88,4.44,0,8.43
		C1390.92,237.47,1393.59,233.48,1393.59,230.82z"/>
	<polygon class="st0" points="1191.88,349.5 599.88,293.5 644.88,321.5 	"/>
	<polygon class="st0" points="1141.88,1373.5 1688.88,1389.5 1043.88,1346.5 	"/>
	<path class="st0" d="M5.86,249.11c1.1-2.3-2.56-6.17-5.86-9.71v13.34C2.61,251.65,5.15,250.59,5.86,249.11z"/>
	<path class="st0" d="M1920,397.41l-60.87-2.84c7.83-1.73,15.12-4.87,19.98-11.33c9.21-12.25,13.64-21.12,10.54-30.44
		c-3.11-9.31-7.99-6.65-7.99-6.65s-6.66-11.09-11.98-10.2c0,0-3.11-2.22-0.89-11.98c2.22-9.76-8.87-10.2-15.09-7.54
		c-6.21,2.66-12.42,10.2-12.42,10.2s0-8.87-13.75-7.98c-13.76,0.89-14.64,19.52-9.76,23.95c4.88,4.44,7.1,5.77,7.1,5.77
		s6.66-8.43,13.75-3.55c0,0,15.09-0.84,13.31,13.77s-23.07,10.18-23.07,10.18s11.98,6.65,3.99,11.09
		c-7.99,4.44-24.85,3.55-35.5-6.21c-10.65-9.76-19.97-11.98-27.07-9.76c-7.1,2.22-10.21,16.41-16.86,23.95
		c-0.54,0.61-1.14,1.18-1.76,1.71l-21.55-1.01c-0.28-1.7-1.61-3.51-5.52-5.14c-3.32-1.38-8.93,0.56-11.98,4.32l-27.01-1.26
		c-0.08-0.54-0.11-1.11-0.06-1.73c0.44-5.32-1.33-15.41-11.09-16.58c0,0,5.77-9.59-5.77-10.92c-11.54-1.33-17.75,9.87-20.85,10.92
		c-3.11,1.05-6.21-2.05-14.2,2.38c-7.99,4.44-16.42,10.2-24.85,10.2c-8.43,0-9.76-5.32-15.53-5.77c-5.77-0.44-14.2,3.55-22.19,2.66
		c-7.99-0.89-3.11-19.96-14.2-22.62c-11.09-2.66-8.87-11.09-19.52-9.76c-10.65,1.33-20.85,9.31-24.4,7.98
		c-3.55-1.33-3.99-6.21-0.89-7.54c3.11-1.33,26.62-14.19,29.28-43.47c2.66-29.27,0.44-54.11-31.06-56.77c0,0,3.11-14.64-11.98-23.06
		c-15.09-8.43-29.28-1.77-36.83,0c-7.54,1.77-18.64,6.21-20.85-2.22c-2.22-8.43,7.1-13.31,2.22-23.95
		c-4.88-10.65-22.19-11.98-31.5-8.43c-9.32,3.55-16.86,14.19-18.64,20.85c-1.77,6.65-5.77,8.43-3.11,9.76
		c2.66,1.33,7.1-11.9,17.75-12.61c10.65-0.7,21.3,1.07,24.85,14.82c3.55,13.75-2.22,17.74-2.22,17.74s16.42-7.98,27.07,19.52
		c10.65,27.5-2.66,49.68-12.87,53.23c-10.21,3.55-14.64-7.89-22.19-11.71c-7.54-3.82-30.17-1.16-41.26,10.82
		c-11.09,11.98-24.85,27.94-46.59,23.95c-2.93-0.54,7.1-6.21,5.77-8.43c-1.33-2.22-3.55-3.55-9.32,0
		c-5.77,3.55-26.62,14.19-33.28,19.96c-6.66,5.77-28.84,13.31-36.83,15.97c-3.21,1.07-9.77,2.56-16.68,4.15L712.74,341
		c-2.8-0.63-5.54-0.99-6.66-1.21c-3.19-0.64-14.02-8.92-24.86-5.1c-10.84,3.82-28.69,1.18-39.52-1
		c-10.84-2.18-19.76-13.02-29.33-13.02s-14.66,1.91-21.67,0c-7.01-1.91-13.39-20.4-28.05-21.04c-14.66-0.64-16.57,2.55-30.6,0
		c-14.02-2.55-12.75-21.03-26.14-29.96c-13.39-8.92-34.43-9.75-34.43-9.75s10.84,15.49,0,19.95c-10.84,4.46-29.96-4.46-42.08-1.27
		c-12.11,3.19-21.04,21.03-42.71,16.57c-21.67-4.46-26.14-13.39-19.76-22.31c6.37-8.92,10.2-8.92,14.66-8.92
		c0,0,7.65-21.67,25.5-13.39c0,0,8.93-18.49-7.65-23.58c-16.58-5.1-17.21,4.46-21.04,0c-3.83-4.46-2.55-15.3-17.21-17.85
		c-14.66-2.55-22.31,1.27-27.41,8.29c0,0-6.53-4.62-13.23,1.59c-6.69,6.21-7.65,11.47-11.95,10.04c-4.3-1.43-11.95-17.21-25.34-8.13
		c-13.39,9.08-13.39,27.82-8.13,39.01c5.26,11.19-1.43,24.09-6.22,26.96c-4.78,2.87-4.78,2.87-4.78,2.87s4.78,0.96-12.43,12.91
		c-17.21,11.95-20.56,5.74-27.73,7.65c-7.17,1.91-6.22,7.65-14.34,5.74s-17.69-7.65-15.78-19.6c1.91-11.95,18.17-21.51,22.47-29.16
		c4.3-7.65-1.91-23.42,4.78-27.73c6.69-4.3,16.26,0.96,21.52,3.35c5.26,2.39,8.13-6.21,10.04-10.52c1.91-4.3,11.95-14.65,8.61-24.06
		c-3.35-9.41-7.65-16.58-11.48-17.06c0,0,26.3-7.65,30.12-15.3c2.78-5.56,1.14-19.9,9.08-15.3c9.08,5.26-1.91,16.25,3.83,23.43
		c0,0,4.78,4.3,10.04-2.39c5.26-6.69,11.48-21.99,7.17-26.29c-4.3-4.3-9.56-2.39-13.39-3.35c-3.83-0.96-5.26-5.74-11-3.82
		c-5.74,1.91-19.13,11.95-25.82,13.39c-6.69,1.43-14.82-0.96-15.3-4.3c-0.48-3.35,7.17-15.78,4.78-23.9
		c-2.39-8.13,2.87-29.16,4.3-31.07c1.43-1.91-9.08,8.61,1.43-1.91c10.52-10.52,10.04-22.95,3.35-27.25
		c-6.69-4.3-15.86-13.42-15.3-14.82c2.87-7.17-6.22-15.78-15.78-13.39c-9.56,2.39-22.49,15.3-33.72,15.3
		c-11.23,0-23.18-0.96-26.05-5.74c-2.87-4.78,0.48-8.46-10.04-9.97c-10.52-1.5-44.94-6.29-58.33,3.28
		c-13.39,9.56-13.87,15.78-13.87,22.47s-1.91,16.25-8.13,21.03c-6.22,4.78-12.91,9.56-11,12.43c1.91,2.87,1.91,4.78-5.26,5.26
		c-7.17,0.48-24.38,7.17-31.08,12.43c-6.69,5.26-30.12,17.69-22.47,39.68c7.65,21.99,19.13,28.68,26.3,27.25
		c7.17-1.43,15.3-4.3,14.34-7.65c-0.96-3.35-11-3.35-7.17-10.04c3.83-6.69-0.48-9.56,7.65-9.56c8.13,0,11.48,4.78,18.17-0.96
		c6.69-5.74,4.3-8.61,6.69-12.43c2.39-3.82,8.61-8.13,9.56-11.95c0.96-3.82-6.22-6.69-10.04-8.61c-3.82-1.91-8.13-17.21,3.83-23.42
		c11.95-6.21,21.04-0.48,22.47,1.91c1.43,2.39,5.26,5.74,7.65,2.39c2.39-3.35-5.26-10.52-1.91-13.39c3.35-2.87,6.22-3.82,6.22-8.13
		c0-4.3-7.65-12.91,0-16.25c7.65-3.35,15.3,0.48,17.69,6.21c2.39,5.74,10.04,8.13,14.34,9.08c4.3,0.96,43.99,4.78,54.98,0
		c11-4.78,17.21-11.47,21.04-16.25s13.39-14.82,20.56-6.69c7.17,8.13-0.96,20.08-1.91,23.43c-0.96,3.35,0,8.13,2.87,13.86
		c2.87,5.74-1.91,5.26-7.65,11.95c-5.74,6.69-0.48,14.34-7.17,20.08c-6.69,5.74-19.13,17.21-33.95,12.43
		c-14.82-4.78-17.21-9.56-24.86-8.13c-7.65,1.43-21.04,0.96-29.17-1.43c-8.13-2.39-9.56-2.87-15.3,1.43
		c-5.74,4.3-2.39,11.47-4.78,20.08c-2.39,8.61-19.13,27.73-28.21,33.46c-9.08,5.74-23.43,20.56-23.91,34.9
		c-0.48,14.34,11.95,34.99,16.73,35.19c4.78,0.19,6.22,6.41,2.87,8.32c-3.35,1.91-11,5.74-13.39,12.91
		c-2.14,6.42,3.75,20.86,1.94,30l-41.38-1.93c7.79-0.43,14.82-4.18,14.11-8.47c-0.96-5.74-10.04-1.91-14.82-6.21
		c-4.78-4.3-5.74-19.12-14.82-24.38c-6-3.47-12.2-4.24-16.94-6.07v3.93c0.23,0.07,0.46,0.15,0.68,0.23
		c6.69,2.39-0.96,7.65,5.18,13.39c6.13,5.74,6.3,6.69,4.39,13.39c-1.91,6.69,4.3,10.52,14.34,13.39c0.86,0.25,1.75,0.43,2.65,0.57
		L0,307.69v951l1920,89.72V397.41z M103.9,312.55c-1.81-4.84-4.33-12.98-0.42-16.58c6.22-5.74,6.22-5.74,6.22-5.74
		s10.04-10.04,12.91-2.87c2.87,7.17-0.48,15.3,2.87,20.56c1.49,2.35,2.6,4.2,3.68,5.81L103.9,312.55z M186.19,285.45
		c-3.35,5.74-7.17,10.04-4.78,13.86c1.96,3.13-1.21,11.07-2.69,16.73l-25.76-1.2c0.47-0.91,0.6-1.95,0.24-3.1
		c-2.39-7.65-9.56-3.82-11.48-8.13c-1.91-4.3,2.87-23.9-1.43-25.82s-12.43,4.3-16.26-1.43c-3.82-5.74,2.39-17.21,8.13-20.56
		c5.74-3.35,10.52-0.86,12.43,4.11c1.91,4.97,4.3,5.93,8.13,5.93c3.82,0,11.47-9.56,15.3-15.78c3.82-6.21,11.95-18.64,11.95-22.47
		c0-3.82,2.39-14.34,7.65-14.82c5.26-0.48,8.13,3.82,7.17,8.13c-0.96,4.3-8.61,10.52-8.13,14.34c0.48,3.82,1.91,9.56,0,12.43
		c-1.91,2.87-6.69,12.43-2.39,21.03C188.59,277.32,189.54,279.71,186.19,285.45z M473.55,326.56c-0.21,1.08-0.53,2.15-0.94,3.22
		l-139.34-6.51c-0.25-1.73-3.02-3.73-6.03-3.4c-4.3,0.48-9.08-1.91-6.69-8.61c2.39-6.69-2.39-11.95-0.96-16.73
		c1.43-4.78,7.17-18.64,22.47-12.91c15.3,5.74,23.43,13.86,27.25,15.3c3.82,1.43,3.82,1.43,3.82,1.43s19.13,3.82,32.99,2.87
		c13.87-0.96,35.38-7.65,48.77-1.43C468.29,306,475.46,316.52,473.55,326.56z"/>
	<path class="st0" d="M21.72,216.13c5.26-4.78-4.98-16.18-10.52-20.56c-2.08-1.65-6.19-3.56-11.2-4.3v27.38
		C7.52,215.53,16.63,220.75,21.72,216.13z"/>
	<polygon class="st0" points="1920,1359.31 337.88,1285.5 1920,1394.21 	"/>
</g>
<g>
	<defs>
		<path id="SVGID_1_" d="M1920,397.41l-60.87-2.84c7.83-1.73,15.12-4.87,19.98-11.33c9.21-12.25,13.64-21.12,10.54-30.44
			c-3.11-9.31-7.99-6.65-7.99-6.65s-6.66-11.09-11.98-10.2c0,0-3.11-2.22-0.89-11.98c2.22-9.76-8.87-10.2-15.09-7.54
			c-6.21,2.66-12.42,10.2-12.42,10.2s0-8.87-13.75-7.98c-13.76,0.89-14.64,19.52-9.76,23.95c4.88,4.44,7.1,5.77,7.1,5.77
			s6.66-8.43,13.75-3.55c0,0,15.09-0.84,13.31,13.77s-23.07,10.18-23.07,10.18s11.98,6.65,3.99,11.09
			c-7.99,4.44-24.85,3.55-35.5-6.21c-10.65-9.76-19.97-11.98-27.07-9.76c-7.1,2.22-10.21,16.41-16.86,23.95
			c-0.54,0.61-1.14,1.18-1.76,1.71l-21.55-1.01c-0.28-1.7-1.61-3.51-5.52-5.14c-3.32-1.38-8.93,0.56-11.98,4.32l-27.01-1.26
			c-0.08-0.54-0.11-1.11-0.06-1.73c0.44-5.32-1.33-15.41-11.09-16.58c0,0,5.77-9.59-5.77-10.92c-11.54-1.33-17.75,9.87-20.85,10.92
			c-3.11,1.05-6.21-2.05-14.2,2.38c-7.99,4.44-16.42,10.2-24.85,10.2c-8.43,0-9.76-5.32-15.53-5.77c-5.77-0.44-14.2,3.55-22.19,2.66
			c-7.99-0.89-3.11-19.96-14.2-22.62c-11.09-2.66-8.87-11.09-19.52-9.76c-10.65,1.33-20.85,9.31-24.4,7.98
			c-3.55-1.33-3.99-6.21-0.89-7.54c3.11-1.33,26.62-14.19,29.28-43.47c2.66-29.27,0.44-54.11-31.06-56.77
			c0,0,3.11-14.64-11.98-23.06c-15.09-8.43-29.28-1.77-36.83,0c-7.54,1.77-18.64,6.21-20.85-2.22c-2.22-8.43,7.1-13.31,2.22-23.95
			c-4.88-10.65-22.19-11.98-31.5-8.43c-9.32,3.55-16.86,14.19-18.64,20.85c-1.77,6.65-5.77,8.43-3.11,9.76
			c2.66,1.33,7.1-11.9,17.75-12.61c10.65-0.7,21.3,1.07,24.85,14.82c3.55,13.75-2.22,17.74-2.22,17.74s16.42-7.98,27.07,19.52
			c10.65,27.5-2.66,49.68-12.87,53.23c-10.21,3.55-14.64-7.89-22.19-11.71c-7.54-3.82-30.17-1.16-41.26,10.82
			c-11.09,11.98-24.85,27.94-46.59,23.95c-2.93-0.54,7.1-6.21,5.77-8.43c-1.33-2.22-3.55-3.55-9.32,0
			c-5.77,3.55-26.62,14.19-33.28,19.96c-6.66,5.77-28.84,13.31-36.83,15.97c-3.21,1.07-9.77,2.56-16.68,4.15L712.74,341
			c-2.8-0.63-5.54-0.99-6.66-1.21c-3.19-0.64-14.02-8.92-24.86-5.1c-10.84,3.82-28.69,1.18-39.52-1
			c-10.84-2.18-19.76-13.02-29.33-13.02s-14.66,1.91-21.67,0c-7.01-1.91-13.39-20.4-28.05-21.04c-14.66-0.64-16.57,2.55-30.6,0
			c-14.02-2.55-12.75-21.03-26.14-29.96c-13.39-8.92-34.43-9.75-34.43-9.75s10.84,15.49,0,19.95c-10.84,4.46-29.96-4.46-42.08-1.27
			c-12.11,3.19-21.04,21.03-42.71,16.57c-21.67-4.46-26.14-13.39-19.76-22.31c6.37-8.92,10.2-8.92,14.66-8.92
			c0,0,7.65-21.67,25.5-13.39c0,0,8.93-18.49-7.65-23.58c-16.58-5.1-17.21,4.46-21.04,0c-3.83-4.46-2.55-15.3-17.21-17.85
			c-14.66-2.55-22.31,1.27-27.41,8.29c0,0-6.53-4.62-13.23,1.59c-6.69,6.21-7.65,11.47-11.95,10.04
			c-4.3-1.43-11.95-17.21-25.34-8.13c-13.39,9.08-13.39,27.82-8.13,39.01c5.26,11.19-1.43,24.09-6.22,26.96
			c-4.78,2.87-4.78,2.87-4.78,2.87s4.78,0.96-12.43,12.91c-17.21,11.95-20.56,5.74-27.73,7.65c-7.17,1.91-6.22,7.65-14.34,5.74
			s-17.69-7.65-15.78-19.6c1.91-11.95,18.17-21.51,22.47-29.16c4.3-7.65-1.91-23.42,4.78-27.73c6.69-4.3,16.26,0.96,21.52,3.35
			c5.26,2.39,8.13-6.21,10.04-10.52c1.91-4.3,11.95-14.65,8.61-24.06c-3.35-9.41-7.65-16.58-11.48-17.06c0,0,26.3-7.65,30.12-15.3
			c2.78-5.56,1.14-19.9,9.08-15.3c9.08,5.26-1.91,16.25,3.83,23.43c0,0,4.78,4.3,10.04-2.39c5.26-6.69,11.48-21.99,7.17-26.29
			c-4.3-4.3-9.56-2.39-13.39-3.35c-3.83-0.96-5.26-5.74-11-3.82c-5.74,1.91-19.13,11.95-25.82,13.39c-6.69,1.43-14.82-0.96-15.3-4.3
			c-0.48-3.35,7.17-15.78,4.78-23.9c-2.39-8.13,2.87-29.16,4.3-31.07c1.43-1.91-9.08,8.61,1.43-1.91
			c10.52-10.52,10.04-22.95,3.35-27.25c-6.69-4.3-15.86-13.42-15.3-14.82c2.87-7.17-6.22-15.78-15.78-13.39
			c-9.56,2.39-22.49,15.3-33.72,15.3c-11.23,0-23.18-0.96-26.05-5.74c-2.87-4.78,0.48-8.46-10.04-9.97
			c-10.52-1.5-44.94-6.29-58.33,3.28c-13.39,9.56-13.87,15.78-13.87,22.47s-1.91,16.25-8.13,21.03c-6.22,4.78-12.91,9.56-11,12.43
			c1.91,2.87,1.91,4.78-5.26,5.26c-7.17,0.48-24.38,7.17-31.08,12.43c-6.69,5.26-30.12,17.69-22.47,39.68
			c7.65,21.99,19.13,28.68,26.3,27.25c7.17-1.43,15.3-4.3,14.34-7.65c-0.96-3.35-11-3.35-7.17-10.04c3.83-6.69-0.48-9.56,7.65-9.56
			c8.13,0,11.48,4.78,18.17-0.96c6.69-5.74,4.3-8.61,6.69-12.43c2.39-3.82,8.61-8.13,9.56-11.95c0.96-3.82-6.22-6.69-10.04-8.61
			c-3.82-1.91-8.13-17.21,3.83-23.42c11.95-6.21,21.04-0.48,22.47,1.91c1.43,2.39,5.26,5.74,7.65,2.39
			c2.39-3.35-5.26-10.52-1.91-13.39c3.35-2.87,6.22-3.82,6.22-8.13c0-4.3-7.65-12.91,0-16.25c7.65-3.35,15.3,0.48,17.69,6.21
			c2.39,5.74,10.04,8.13,14.34,9.08c4.3,0.96,43.99,4.78,54.98,0c11-4.78,17.21-11.47,21.04-16.25s13.39-14.82,20.56-6.69
			c7.17,8.13-0.96,20.08-1.91,23.43c-0.96,3.35,0,8.13,2.87,13.86c2.87,5.74-1.91,5.26-7.65,11.95c-5.74,6.69-0.48,14.34-7.17,20.08
			c-6.69,5.74-19.13,17.21-33.95,12.43c-14.82-4.78-17.21-9.56-24.86-8.13c-7.65,1.43-21.04,0.96-29.17-1.43
			c-8.13-2.39-9.56-2.87-15.3,1.43c-5.74,4.3-2.39,11.47-4.78,20.08c-2.39,8.61-19.13,27.73-28.21,33.46
			c-9.08,5.74-23.43,20.56-23.91,34.9c-0.48,14.34,11.95,34.99,16.73,35.19c4.78,0.19,6.22,6.41,2.87,8.32
			c-3.35,1.91-11,5.74-13.39,12.91c-2.14,6.42,3.75,20.86,1.94,30l-41.38-1.93c7.79-0.43,14.82-4.18,14.11-8.47
			c-0.96-5.74-10.04-1.91-14.82-6.21c-4.78-4.3-5.74-19.12-14.82-24.38c-6-3.47-12.2-4.24-16.94-6.07v3.93
			c0.23,0.07,0.46,0.15,0.68,0.23c6.69,2.39-0.96,7.65,5.18,13.39c6.13,5.74,6.3,6.69,4.39,13.39c-1.91,6.69,4.3,10.52,14.34,13.39
			c0.86,0.25,1.75,0.43,2.65,0.57L0,307.69v951l1920,89.72V397.41z M103.9,312.55c-1.81-4.84-4.33-12.98-0.42-16.58
			c6.22-5.74,6.22-5.74,6.22-5.74s10.04-10.04,12.91-2.87c2.87,7.17-0.48,15.3,2.87,20.56c1.49,2.35,2.6,4.2,3.68,5.81L103.9,312.55
			z M186.19,285.45c-3.35,5.74-7.17,10.04-4.78,13.86c1.96,3.13-1.21,11.07-2.69,16.73l-25.76-1.2c0.47-0.91,0.6-1.95,0.24-3.1
			c-2.39-7.65-9.56-3.82-11.48-8.13c-1.91-4.3,2.87-23.9-1.43-25.82s-12.43,4.3-16.26-1.43c-3.82-5.74,2.39-17.21,8.13-20.56
			c5.74-3.35,10.52-0.86,12.43,4.11c1.91,4.97,4.3,5.93,8.13,5.93c3.82,0,11.47-9.56,15.3-15.78c3.82-6.21,11.95-18.64,11.95-22.47
			c0-3.82,2.39-14.34,7.65-14.82c5.26-0.48,8.13,3.82,7.17,8.13c-0.96,4.3-8.61,10.52-8.13,14.34c0.48,3.82,1.91,9.56,0,12.43
			c-1.91,2.87-6.69,12.43-2.39,21.03C188.59,277.32,189.54,279.71,186.19,285.45z M473.55,326.56c-0.21,1.08-0.53,2.15-0.94,3.22
			l-139.34-6.51c-0.25-1.73-3.02-3.73-6.03-3.4c-4.3,0.48-9.08-1.91-6.69-8.61c2.39-6.69-2.39-11.95-0.96-16.73
			c1.43-4.78,7.17-18.64,22.47-12.91c15.3,5.74,23.43,13.86,27.25,15.3c3.82,1.43,3.82,1.43,3.82,1.43s19.13,3.82,32.99,2.87
			c13.87-0.96,35.38-7.65,48.77-1.43C468.29,306,475.46,316.52,473.55,326.56z"/>
	</defs>
	<clipPath id="SVGID_2_">
		<use xlink:href="#SVGID_1_"  style="overflow:visible;"/>
	</clipPath>
	<g class="st1">
		<path class="st2" d="M1741.34,1008.57c9.32,9.66,9.63,10.3,12.73,25.92c14.72-11.74,26.22-13.77,37.61-6.66
			c9.52,5.95,14.29,17.83,11.53,28.73c-3.27,12.89-12.74,19.58-31.45,21.53c12.64,11.46,17.67,24.32,7.34,39.61
			c-6.28,9.29-18.62,13.79-29.33,10.95c-13.99-3.71-19.81-13.77-20.68-28.37c-4.28,3.53-7.55,7.27-12.1,9.38
			c-4.7,2.18-9.57,3.01-15.6,3.46c11.45,11.89,15.66,24.66,5.29,39.14c-6.61,9.23-19.04,13.55-29.78,10.5
			c-14.72-4.19-20.25-14.97-20.19-30.65c-12,13.04-25.04,18.09-40.23,9.47c-9.41-5.34-14.3-16.84-11.93-27.48
			c3.41-15.3,14.48-21.88,30.5-23.55c-8.54-7.2-12.52-15.71-12.49-26.24c-15.89,12.19-27.5,14.13-39,6.86
			c-9.66-6.11-14.4-18.16-11.47-29.14c3.51-13.12,13.3-19.9,32.14-21.61c-12.74-11.61-17.75-24.58-7.12-39.84
			c6.27-9,18.34-13.21,28.99-10.86c12.54,2.76,19.29,11.43,21.69,28.54c4.06-3.39,7.36-7.07,11.95-9.16
			c4.72-2.14,9.6-2.91,15.82-3.29c-12.09-12.4-16.09-25.77-4.53-39.97c7.22-8.87,17.42-12.09,28.56-8.98
			c14.7,4.11,20.1,14.99,19.99,30.59c12.12-12.85,25.14-17.99,40.27-8.74c9.33,5.71,13.62,17.65,10.92,28.24
			C1767.7,999.02,1758.87,1005.65,1741.34,1008.57z M1729.28,1004.22c-10.08-7.81-12.82-16.99-12.87-28.69
			c-7.62,9.94-16.36,14.01-28.47,14.44c9.09,6.71,12.34,15.04,13.85,25.01C1709.67,1007.59,1717.71,1004.1,1729.28,1004.22z
			 M1762.88,1074.9c-9.72-7.11-13.65-15.74-14.07-27.3c-6.88,8.65-15.07,12.27-25.41,13.88c7.14,7.49,10.51,15.64,10.58,25.68
			C1743.98,1077.79,1747.88,1076.1,1762.88,1074.9z M1659.84,1124.23c7.6-10.95,16.85-14.55,28.51-15.74
			c-9.11-6.31-11.64-14.85-13.77-24.16c-7.56,7.18-15.69,10.53-26.34,10.81C1656.85,1102.75,1660.58,1111.33,1659.84,1124.23z
			 M1627.29,1051.58c7.13-9.52,15.63-12.65,25.78-14.46c-6.97-7.45-10.48-15.36-10.3-26.06c-7.99,9.08-17.25,12.52-29.37,12.63
			C1622.87,1030.84,1627.28,1038.86,1627.29,1051.58z M1694.99,1031.87c-7.25,6.96-14.66,10.1-24.14,11.53
			c6.71,6.68,9.66,14.08,11.11,23.1c6.99-6.64,14.65-9.72,23.91-11.29C1699.23,1048.53,1696.16,1041.39,1694.99,1031.87z"/>
		<path class="st2" d="M1772.19,1010.71c-6.15-12.71-0.42-28.54,12.63-34.95c13.26-6.51,29.64-0.96,35.69,12.09
			c5.93,12.77,0.01,28.52-13.08,34.73C1794.31,1028.82,1778.35,1023.44,1772.19,1010.71z"/>
		<path class="st2" d="M1650.26,968.21c-13.45,6.05-29.51,0.39-35.52-12.54c-6.13-13.19,0.38-29.35,14.19-35.27
			c13.52-5.79,29.49,0.15,35.25,13.1C1669.96,946.48,1663.67,962.18,1650.26,968.21z"/>
		<path class="st2" d="M1761.77,1142.89c5.95,12.88,0.02,28.69-13.18,35.14c-13.5,6.59-29.85,1.09-35.93-12.1
			c-6.09-13.22,0.25-29.31,13.97-35.49C1740.05,1124.39,1755.82,1129.99,1761.77,1142.89z"/>
		<path class="st2" d="M1589.77,1124.42c-13.61,6.16-29.67,0.59-35.75-12.43c-6.2-13.29,0.21-29.48,14.15-35.73
			c13.92-6.25,30.16-0.29,35.98,13.18C1609.83,1102.59,1603.4,1118.25,1589.77,1124.42z"/>
		<path class="st2" d="M1521.65,1041.12c-5.92-12.77,0.14-28.35,13.43-34.57c13.49-6.32,29.89-0.56,35.62,12.48
			c5.66,12.9-0.6,28.39-13.89,34.36C1543.42,1059.41,1527.57,1053.88,1521.65,1041.12z"/>
		<path class="st2" d="M1640.42,1200.1c-5.84-12.8,0.2-28.42,13.38-34.67c13.42-6.37,29.68-0.67,35.31,12.38
			c5.58,12.93-0.65,28.46-13.84,34.47C1661.96,1218.32,1646.23,1212.83,1640.42,1200.1z"/>
		<path class="st2" d="M1622.79,1194.21c-13.18,6.3-29.14,1.04-35.28-11.65c-6.23-12.87,0.09-29.19,13.65-35.31
			c13.35-6.03,29.17-0.51,35.01,12.21C1642.02,1172.21,1635.99,1187.91,1622.79,1194.21z"/>
		<path class="st2" d="M1577.53,1000.99c-13.25,6.28-29.12,0.98-35.27-11.8c-6.12-12.71-0.21-28.26,13.1-34.53
			c13.24-6.23,29.08-0.9,35.21,11.83C1596.66,979.17,1590.81,994.69,1577.53,1000.99z"/>
		<path class="st2" d="M1832.76,1109.03c5.99,12.63,0.29,28.02-12.72,34.3c-13,6.28-28.49,1.06-34.51-11.63
			c-6.01-12.67-0.26-28.07,12.79-34.33C1811.32,1091.13,1826.76,1096.36,1832.76,1109.03z"/>
		<path class="st2" d="M1852.17,1057.37c6.01,12.57,0.37,27.91-12.57,34.18c-12.93,6.26-28.39,1.06-34.44-11.59
			c-6.03-12.62-0.36-27.97,12.64-34.21C1830.72,1039.53,1846.15,1044.75,1852.17,1057.37z"/>
		<path class="st2" d="M1774.53,952.46c-13.12,6.04-28.37,0.68-34.28-12.06c-5.92-12.75-0.12-27.77,13.01-33.78
			c13.11-5.99,28.32-0.61,34.22,12.1C1793.37,931.43,1787.62,946.43,1774.53,952.46z"/>
		<path class="st2" d="M1687.94,921.99c-5.87-12.81,0.04-27.83,13.26-33.77c13.21-5.93,28.47-0.46,34.31,12.29
			c5.85,12.77-0.01,27.78-13.19,33.74C1709.1,940.23,1693.8,934.78,1687.94,921.99z"/>
		<path class="st2" d="M1569.33,1175.58c-13.31,6.29-28.36,1.32-34.41-11.38c-6.2-13.03-0.33-28.1,13.38-34.35
			c13.31-6.07,28.24-0.85,34.14,11.93C1588.32,1154.53,1582.6,1169.3,1569.33,1175.58z"/>
		<path class="st2" d="M1812.67,1161.2c5.91,12.62,0.41,27.32-12.56,33.55c-13,6.24-27.79,1.25-33.7-11.39
			c-5.92-12.66-0.39-27.38,12.62-33.58C1792.03,1143.58,1806.77,1148.59,1812.67,1161.2z"/>
		<path class="st2" d="M1669.68,915.4c-13.06,5.89-27.9,0.57-33.7-12.1c-5.79-12.62-0.01-27.15,13.12-33.02
			c13.05-5.84,27.85-0.5,33.64,12.13C1688.51,895,1682.77,909.51,1669.68,915.4z"/>
		<path class="st2" d="M1826.4,970c-12.88,6.09-27.67,0.99-33.54-11.57c-5.87-12.57-0.26-27.14,12.7-33.04
			c12.6-5.74,27.12-0.7,32.95,11.42C1844.55,949.31,1839.21,963.94,1826.4,970z"/>
		<path class="st2" d="M1727.6,1229.42c-13.14,6.11-27.94,0.85-33.75-12c-5.76-12.74,0.12-27.47,13.38-33.59
			c13.13-6.06,27.89-0.78,33.68,12.03C1746.65,1208.55,1740.82,1223.27,1727.6,1229.42z"/>
		<path class="st2" d="M1610.09,915.1c5.99,12.67,0.42,27.32-12.71,33.41c-13.21,6.13-28.22,1.04-34.21-11.61
			c-6.01-12.7-0.39-27.38,12.78-33.44C1589.16,897.38,1604.12,902.49,1610.09,915.1z"/>
		<path class="st2" d="M1824.95,1027.32c-5.54-12.54,0.38-26.99,13.39-32.76c12.82-5.69,27.34-0.17,32.93,12.49
			c5.52,12.5-0.35,26.93-13.33,32.73C1845.12,1045.52,1830.56,1040.02,1824.95,1027.32z"/>
		<path class="st2" d="M1536.25,1105.04c-13.34,6.15-28.37,1.02-34.35-11.74c-6.12-13.06-0.12-28.02,13.69-34.16
			c13.34-5.93,28.25-0.54,34.08,12.29C1555.46,1084.19,1549.6,1098.89,1536.25,1105.04z"/>
		<path class="st2" d="M1838.93,1148.96c-5.62-11.76-0.2-26.5,11.9-32.38c12.03-5.85,26.77-0.89,32.4,10.89
			c5.61,11.73,0.23,26.45-11.84,32.35C1859.35,1165.71,1844.58,1160.77,1838.93,1148.96z"/>
		<path class="st2" d="M1490.33,970.21c-5.72-11.79-0.15-26.64,12.24-32.64c12.5-6.06,28.22-0.73,33.81,11.44
			c5.48,11.94-0.29,26.67-12.71,32.42C1511.27,987.18,1496.09,982.08,1490.33,970.21z"/>
		<path class="st2" d="M1654.64,1263.58c-12.51,5.72-27.63,0.48-33.09-11.46c-5.6-12.26,0.69-27.83,13.43-33.31
			c12.69-5.45,27.67,0.04,32.82,12.01C1673.02,1242.96,1667.01,1257.93,1654.64,1263.58z"/>
		<path class="st2" d="M1515.33,1157.08c-12.65,5.68-27.94,0.37-33.44-11.62c-5.64-12.29,0.76-27.88,13.65-33.32
			c12.83-5.41,27.97,0.15,33.17,12.17C1533.96,1136.48,1527.85,1151.46,1515.33,1157.08z"/>
		<path class="st2" d="M1469.75,1022.45c-5.73-11.81-0.12-26.76,12.32-32.82c12.54-6.11,28.35-0.78,33.95,11.42
			c5.49,11.97-0.32,26.8-12.79,32.61C1490.78,1039.45,1475.52,1034.35,1469.75,1022.45z"/>
		<path class="st2" d="M1583.96,884.49c-5.42-12.02,0.44-26.6,12.87-32.04c12.47-5.47,27.36-0.07,32.75,11.85
			c5.41,11.98-0.41,26.55-12.81,32.02C1604.29,901.82,1589.36,896.45,1583.96,884.49z"/>
		<path class="st2" d="M1780.35,1246.19c-12.05,6.01-27.01,1.21-32.87-10.54c-5.93-11.88-0.21-27.33,12.28-33.21
			c12.23-5.75,27.04-0.71,32.61,11.09C1797.93,1225.3,1792.46,1240.16,1780.35,1246.19z"/>
		<path class="st2" d="M1614.5,1212.24c5.71,11.78,0.15,26.94-12.18,33.17c-12.46,6.3-28.38,1.08-33.98-11.14
			c-5.49-12.01,0.35-27.09,12.78-33.02C1593.5,1195.34,1608.74,1200.37,1614.5,1212.24z"/>
		<path class="st2" d="M1708.94,869.86c-5.31-12,0.5-26.38,12.8-31.69c12.36-5.34,26.98,0.09,32.24,11.98
			c5.3,11.97-0.47,26.33-12.73,31.67C1728.87,887.19,1714.22,881.78,1708.94,869.86z"/>
		<path class="st2" d="M1877.39,987.56c-12.14,5.55-26.69,0.34-32.08-11.49c-5.4-11.88,0.17-26.29,12.29-31.79
			c12.14-5.51,26.65-0.28,32.02,11.52C1895.01,967.64,1889.48,982.04,1877.39,987.56z"/>
		<path class="st2" d="M1761.13,888.43c-5.42-11.9,0.21-26.29,12.41-31.75c12.22-5.46,26.81-0.18,32.2,11.65
			c5.41,11.87-0.18,26.24-12.35,31.72C1781.17,905.56,1766.54,900.29,1761.13,888.43z"/>
		<path class="st2" d="M1902.55,1076.09c5.52,11.79,0.1,26.33-11.97,32.09c-12.08,5.76-26.69,0.74-32.23-11.09
			c-5.53-11.82-0.07-26.38,12.03-32.12C1882.46,1059.25,1897.03,1064.29,1902.55,1076.09z"/>
		<path class="st2" d="M1844.85,917.76c-12.19,5.55-25.8,0.62-31.27-11.32c-5.45-11.9-0.2-25.33,12.05-30.87
			c12.18-5.51,25.76-0.57,31.22,11.35C1862.28,898.79,1857.06,912.2,1844.85,917.76z"/>
		<path class="st2" d="M1524.13,885.93c12.57-5.47,26.48-0.38,31.98,11.69c5.6,12.29-0.17,26.11-13.23,31.64
			c-12.59,5.33-26.47,0.03-31.84-12.18C1505.73,905.02,1511.44,891.45,1524.13,885.93z"/>
		<path class="st2" d="M1675.07,1269.31c-5.4-12.08,0.11-25.95,12.64-31.8c12.75-5.96,26.87-0.83,32.27,11.71
			c5.21,12.09-0.49,25.86-13.1,31.6C1694.38,1286.49,1680.52,1281.49,1675.07,1269.31z"/>
		<path class="st2" d="M1819.87,1200.46c-5.56-11.94-0.45-25.65,11.74-31.55c12.48-6.05,26.41-1.2,31.94,11.09
			c5.36,11.92,0.06,25.56-12.2,31.35C1839.11,1217.13,1825.43,1212.4,1819.87,1200.46z"/>
		<path class="st2" d="M1701.2,831.6c5.54,11.9,0.39,25.38-11.87,31.04c-12.6,5.82-26.64,0.81-32.19-11.51
			c-5.37-11.94,0.05-25.38,12.45-30.88C1681.94,814.77,1695.66,819.7,1701.2,831.6z"/>
		<path class="st2" d="M1909.26,1056.38c-12.11,5.56-25.64,0.7-31.1-11.19c-5.58-12.13-0.14-25.82,12.46-31.38
			c12.1-5.35,25.54-0.24,30.86,11.72C1926.74,1037.36,1921.43,1050.79,1909.26,1056.38z"/>
		<path class="st2" d="M1515.64,1216.18c-5.69-12.13-0.34-26.16,12.26-32.21c12.91-6.2,27.37-1.29,33,11.18
			c5.48,12.14-0.06,26.08-12.73,32C1535.48,1233.08,1521.33,1228.3,1515.64,1216.18z"/>
		<path class="st2" d="M1482.59,1085.4c-12.67,6-26.97,1.38-32.79-10.6c-6.01-12.36-0.53-26.59,12.51-32.52
			c12.73-5.79,26.85-0.94,32.53,11.15C1500.52,1065.53,1495.2,1079.43,1482.59,1085.4z"/>
		<path class="st2" d="M1461.74,1137.54c-11.98,5.77-26.88,0.87-32.31-10.64c-5.43-11.51,0.3-26.04,12.43-31.57
			c11.83-5.4,26.18-0.65,31.71,10.48C1479.2,1117.14,1473.76,1131.75,1461.74,1137.54z"/>
		<path class="st2" d="M1494.72,1208.54c-12.01,5.77-26.69,0.99-32.18-10.51c-5.48-11.47,0.03-25.92,12.08-31.67
			c12.01-5.74,26.65-0.93,32.12,10.53C1512.2,1188.34,1506.73,1202.76,1494.72,1208.54z"/>
		<path class="st2" d="M1648.4,813.36c5.22,11.33-0.51,25.58-12.32,30.58c-11.66,4.94-25.74-0.21-30.84-11.28
			c-5.24-11.36,0.53-25.62,12.37-30.6C1629.26,797.15,1643.3,802.31,1648.4,813.36z"/>
		<path class="st2" d="M1907.73,905.17c5.21,11.18-0.25,25.34-11.75,30.4c-11.33,4.99-25.12,0-30.23-10.95
			c-5.22-11.21,0.28-25.39,11.8-30.43C1888.89,889.24,1902.64,894.25,1907.73,905.17z"/>
		<path class="st2" d="M1928.32,1004.62c-11.53,5.24-25.77-0.04-30.58-11.36c-4.75-11.18,0.68-24.84,11.88-29.9
			c11.52-5.21,25.73,0.09,30.53,11.38C1944.88,985.9,1939.49,999.54,1928.32,1004.62z"/>
		<path class="st2" d="M1759.48,1297.85c-11.85,5.45-26.26,0.28-31.2-11.21c-4.98-11.59,0.93-25.94,12.8-31.1
			c11.7-5.08,25.57-0.07,30.61,11.05C1776.88,1278.02,1771.25,1292.43,1759.48,1297.85z"/>
		<path class="st2" d="M1532.19,865.64c-5.28-11.34,0.4-25.57,12.26-30.75c11.89-5.19,26.42,0.13,31.42,11.5
			c4.92,11.19-0.51,24.89-12,30.21C1552.13,882.05,1537.47,876.98,1532.19,865.64z"/>
		<path class="st2" d="M1800.61,1252.15c-5.12-11.44,0.54-25.77,12.26-31.05c11.79-5.31,26.02-0.07,30.86,11.37
			c4.78,11.28-0.66,25.09-12.01,30.51C1820.06,1268.53,1805.71,1263.54,1800.61,1252.15z"/>
		<path class="st2" d="M1469.39,961.67c-11.88,5.27-26.1,0.24-31.22-11.05c-5.15-11.34,0.46-25.18,12.31-30.4
			c11.88-5.23,26.05-0.19,31.17,11.08C1486.77,942.6,1481.2,956.42,1469.39,961.67z"/>
		<path class="st2" d="M1892.02,1165.71c-5.05-11.17,0.2-24.82,11.55-30.08c11.39-5.28,24.98-0.45,30,10.65
			c5.03,11.14-0.17,24.77-11.49,30.06C1910.68,1181.65,1897.04,1176.83,1892.02,1165.71z"/>
		<path class="st2" d="M1941.7,1124.53c-11.16,5.53-24.86,0.99-30.2-10.02c-5.31-10.95-0.37-24.64,10.86-30.18
			c11.15-5.5,24.82-0.93,30.15,10.05C1957.8,1105.3,1952.9,1118.97,1941.7,1124.53z"/>
		<path class="st2" d="M1633.91,1314.86c-11.76,5.49-26.03,0.59-31.12-10.69c-5.12-11.34,0.47-25.54,12.18-30.96
			c11.76-5.45,25.99-0.54,31.06,10.71C1651.14,1295.23,1645.59,1309.41,1633.91,1314.86z"/>
		<path class="st2" d="M1592.73,1265.76c5.36,11.14,0.03,25.42-11.66,31.17c-11.63,5.72-26.07,1.06-31.47-10.17
			c-5.38-11.17,0-25.47,11.71-31.2C1572.95,1249.88,1587.34,1254.55,1592.73,1265.76z"/>
		<path class="st2" d="M1461.08,983.18c5.26,11.22-0.27,25.3-12.07,30.73c-11.81,5.43-26.27,0.49-31.55-10.77
			c-5.27-11.25,0.29-25.35,12.12-30.75C1441.38,967,1455.81,971.95,1461.08,983.18z"/>
		<path class="st2" d="M1823.71,818.27c5.04,11.24-0.27,24.48-11.82,29.44c-11.62,4.99-25.06-0.16-29.87-11.47
			c-4.73-11.11,0.44-23.91,11.67-28.95C1805.19,802.12,1818.68,807.06,1823.71,818.27z"/>
		<path class="st2" d="M1730.23,818.13c-5.06-11.29,0.33-24.56,11.97-29.5c11.68-4.95,25.14,0.24,29.94,11.54
			c4.72,11.11-0.45,23.91-11.71,28.97C1748.86,834.34,1735.28,829.39,1730.23,818.13z"/>
		<path class="st2" d="M1489.7,909.11c-11.85,5.29-24.99,0.69-30.28-10.61c-5.42-11.58-0.09-24.61,12.2-29.86
			c11.88-5.07,24.9-0.23,30.02,11.15C1506.74,891.11,1501.56,903.82,1489.7,909.11z"/>
		<path class="st2" d="M1656.42,1321.42c-5.08-11.37,0.07-24.34,11.86-29.89c12.01-5.65,25.25-0.87,30.31,10.92
			c4.88,11.38-0.47,24.27-12.32,29.68C1674.5,1337.51,1661.53,1332.86,1656.42,1321.42z"/>
		<path class="st2" d="M1427.7,1066.06c-12.03,5.34-25.35,0.63-30.59-10.82c-5.36-11.7,0.23-25.02,12.71-30.3
			c12.06-5.11,25.27-0.16,30.33,11.36C1445.17,1047.76,1439.76,1060.71,1427.7,1066.06z"/>
		<path class="st2" d="M1874.69,836.63c5.14,11.1,0.36,23.6-11.02,28.8c-11.39,5.2-24.09,0.66-29.25-10.48
			c-5.15-11.12-0.34-23.64,11.07-28.83C1856.87,820.96,1869.54,825.52,1874.69,836.63z"/>
		<path class="st2" d="M1913.69,1197.85c5.27,11.12,0.68,23.94-10.6,29.57c-11.64,5.8-24.71,1.4-29.96-10.1
			c-5.1-11.19-0.26-23.95,11.17-29.42C1895.69,1182.45,1908.43,1186.77,1913.69,1197.85z"/>
		<path class="st2" d="M1707.9,810.37c-11.58,5.03-24.38,0.21-29.44-11.1c-5.02-11.21,0.13-23.72,11.82-28.77
			c11.57-5,24.34-0.17,29.39,11.12C1724.67,792.8,1719.56,805.3,1707.9,810.37z"/>
		<path class="st2" d="M1527.34,1278.62c-11.88,5.74-25.27,1.46-30.74-9.84c-5.63-11.62-0.42-25.16,11.85-30.82
			c11.94-5.52,25.2-0.99,30.48,10.39C1544.23,1259.73,1539.19,1272.9,1527.34,1278.62z"/>
		<path class="st2" d="M1451.97,1159.62c5.23,11.34-0.03,24.45-12.02,29.92c-11.94,5.44-25.27,0.71-30.38-10.79
			c-4.94-11.11,0.25-23.97,11.87-29.41C1433.34,1143.75,1446.73,1148.27,1451.97,1159.62z"/>
		<path class="st2" d="M1594.78,795.49c5.01,11.11-0.36,23.93-12.1,28.85c-11.32,4.75-24.23-0.15-29.15-11.05
			c-5.02-11.13,0.38-23.97,12.15-28.87C1577,779.7,1589.87,784.6,1594.78,795.49z"/>
		<path class="st2" d="M1947.14,952.38c-10.89,5.11-23.64,0.7-28.71-9.94c-5.22-10.95-0.32-23.85,10.97-28.91
			c10.93-4.9,23.56-0.25,28.47,10.47C1962.77,934.69,1958.01,947.28,1947.14,952.38z"/>
		<path class="st2" d="M1782.23,1304.25c-5.22-11.16-0.17-24.29,11.41-29.7c11.2-5.24,23.99-0.81,29.06,10.04
			c5.21,11.14,0.19,24.25-11.36,29.68C1800.14,1319.54,1787.32,1315.14,1782.23,1304.25z"/>
		<path class="st2" d="M1473.31,1260.27c-11.4,5.42-25.05,0.92-30.16-9.96c-5.11-10.88,0.11-24.33,11.52-29.73
			c11.4-5.39,25.01-0.87,30.11,9.98C1489.88,1241.43,1484.7,1254.86,1473.31,1260.27z"/>
		<path class="st2" d="M1406.94,1118.17c-11.48,5.26-25.13,0.59-30.16-10.33c-5.03-10.92,0.31-24.25,11.8-29.48
			c11.48-5.22,25.09-0.54,30.11,10.35C1423.71,1099.59,1418.4,1112.91,1406.94,1118.17z"/>
		<path class="st2" d="M1710.11,1339.49c-5.16-10.59-0.3-24.06,10.67-29.57c10.93-5.49,24.37-1.22,29.53,9.37
			c5.15,10.57,0.32,24.02-10.62,29.55C1728.75,1354.36,1715.28,1350.11,1710.11,1339.49z"/>
		<path class="st2" d="M1626.58,780.65c-4.82-10.68,0.51-23.72,11.58-28.39c11.12-4.69,24.43,0.42,28.99,11.1
			c4.48,10.5-0.63,23.06-11.33,27.86C1644.81,796.15,1631.38,791.3,1626.58,780.65z"/>
		<path class="st2" d="M1894.15,1250.46c4.74,10.68-0.41,23.84-11.3,28.89c-10.94,5.07-24.05,0.39-28.79-10.3
			c-4.75-10.71,0.43-23.88,11.35-28.91C1876.35,1235.1,1889.43,1239.8,1894.15,1250.46z"/>
		<path class="st2" d="M1509.95,856.86c-11.22,4.97-24.7,0.16-29.62-10.56c-4.92-10.73,0.36-23.82,11.58-28.76
			c11.21-4.93,24.67-0.11,29.57,10.59C1526.38,838.83,1521.14,851.91,1509.95,856.86z"/>
		<path class="st2" d="M1915.19,883.12c-10.59,5.12-23.82,0.58-28.79-9.89c-4.96-10.45-0.05-23.47,10.68-28.36
			c10.45-4.76,23.18-0.37,28.23,9.73C1930.46,864.89,1925.82,877.99,1915.19,883.12z"/>
		<path class="st2" d="M1570.88,1320.1c4.77,10.82-0.61,23.77-11.94,28.69c-11.11,4.83-23.71,0.27-28.35-10.26
			c-4.78-10.85,0.64-23.81,11.99-28.71C1553.68,1305.03,1566.25,1309.6,1570.88,1320.1z"/>
		<path class="st2" d="M1426.4,913.29c4.99,10.66-0.2,23.47-11.51,28.35c-11.06,4.77-23.81,0.26-28.68-10.16
			c-5-10.69,0.23-23.51,11.56-28.37C1408.82,898.37,1421.53,902.9,1426.4,913.29z"/>
		<path class="st2" d="M1405.69,965.53c4.98,10.7-0.27,23.56-11.62,28.45c-11.11,4.79-23.89,0.27-28.75-10.18
			c-4.99-10.73,0.29-23.6,11.67-28.47C1388.09,950.57,1400.84,955.11,1405.69,965.53z"/>
		<path class="st2" d="M1613.12,1366.11c-11.1,5.39-24.21,0.96-29-9.82c-4.67-10.53,0.26-23.12,11.09-28.36
			c11.1-5.36,24.18-0.91,28.95,9.84C1628.82,1348.27,1623.93,1360.85,1613.12,1366.11z"/>
		<path class="st2" d="M1779.42,776.67c-10.6,4.84-22.78,0.61-27.73-9.64c-5.07-10.53-0.33-22.79,10.64-27.54
			c10.67-4.62,22.74-0.15,27.49,10.17C1794.57,759.98,1790,771.84,1779.42,776.67z"/>
		<path class="st2" d="M1530.18,804.05c-11.01,5.06-23.25,0.87-28.2-9.67c-4.96-10.55-0.27-22.38,10.8-27.25
			c10.73-4.72,22.69-0.6,27.63,9.5C1545.53,787.13,1541.1,799.03,1530.18,804.05z"/>
		<path class="st2" d="M1429.95,1213.28c4.88,10.68-0.02,22.87-11.29,28.07c-11.25,5.19-23.66,0.94-28.56-9.81
			c-4.89-10.71,0.03-22.9,11.33-28.09C1412.67,1198.3,1425.05,1202.57,1429.95,1213.28z"/>
		<path class="st2" d="M1356.97,1160.46c-5.02-10.68-0.23-22.89,11.01-28.13c11.25-5.24,23.69-1.09,28.7,9.56
			c5.01,10.66,0.25,22.85-10.97,28.11C1374.46,1175.26,1361.99,1171.13,1356.97,1160.46z"/>
		<path class="st2" d="M1516.65,1301.83c5.12,10.59,0.58,22.92-10.43,28.35c-11.1,5.48-23.59,1.58-28.68-8.95
			c-5.13-10.61-0.57-22.96,10.47-28.38C1499.11,1287.41,1511.57,1291.31,1516.65,1301.83z"/>
		<path class="st2" d="M1384.4,1017.97c5.04,10.62,0.36,22.75-10.81,27.95c-11.22,5.22-23.71,1.09-28.75-9.52
			c-5.06-10.64-0.34-22.79,10.86-27.97C1366.91,1003.24,1379.37,1007.38,1384.4,1017.97z"/>
		<path class="st2" d="M1435.87,888.86c-11.15,5.09-23.5,0.85-28.44-9.78c-4.94-10.63-0.11-22.55,11.13-27.47
			c10.88-4.76,22.92-0.6,27.86,9.62C1451.53,871.81,1446.96,883.79,1435.87,888.86z"/>
		<path class="st2" d="M1831.07,795.02c-10.54,4.86-22.53,0.72-27.46-9.49c-5.08-10.52-0.48-22.56,10.43-27.36
			c10.59-4.65,22.46-0.28,27.22,10.01C1846.03,778.49,1841.6,790.16,1831.07,795.02z"/>
		<path class="st2" d="M1873.55,1302.89c4.84,10.51,0.26,22.48-10.59,27.62c-10.77,5.11-22.68,0.85-27.4-9.81
			c-4.54-10.26-0.02-22.01,10.44-27.12C1856.75,1288.33,1868.7,1292.37,1873.55,1302.89z"/>
		<path class="st2" d="M1774.46,1328.3c10.86-5.12,22.83-0.83,27.55,9.85c4.67,10.57-0.22,22.56-11.26,27.6
			c-10.61,4.85-22.32,0.68-27.07-9.66C1758.82,1345.52,1763.5,1333.46,1774.46,1328.3z"/>
		<path class="st2" d="M1892.32,786.62c4.83,10.29,0.41,21.89-10.17,26.66c-10.54,4.76-22.32,0.4-27.01-10
			c-4.54-10.06-0.18-21.42,10.02-26.18C1875.68,772.21,1887.51,776.36,1892.32,786.62z"/>
		<path class="st2" d="M1737.51,730.91c4.94,10.33,0.51,22.04-10.16,26.86c-10.71,4.84-22.67,0.55-27.46-9.88
			c-4.65-10.12-0.31-21.57,10-26.38C1720.57,716.53,1732.6,720.63,1737.51,730.91z"/>
		<path class="st2" d="M1603.02,771.41c-10.85,4.94-22.98,0.69-27.84-9.76c-4.86-10.44-0.17-22.19,10.76-26.95
			c10.59-4.61,22.42-0.44,27.28,9.59C1618.24,754.69,1613.81,766.5,1603.02,771.41z"/>
		<path class="st2" d="M1352.45,1098.29c-10.65,5.03-23.57,0.73-28.3-9.42c-4.73-10.15,0.33-22.69,11.1-27.49
			c10.47-4.66,22.91-0.5,27.72,9.26C1367.89,1080.65,1363.1,1093.26,1352.45,1098.29z"/>
		<path class="st2" d="M1423.87,1302.91c-4.77-10.13,0.2-22.8,10.89-27.77c10.68-4.97,23.44-0.57,27.97,9.63
			c4.42,9.94-0.35,22.16-10.63,27.21C1441.52,1317.18,1428.64,1313.04,1423.87,1302.91z"/>
		<path class="st2" d="M1934.5,1295.16c-9.98,5.03-22.48,0.83-26.99-9.08c-4.39-9.65,0.08-21.76,9.83-26.64
			c9.98-5,22.45-0.79,26.95,9.09C1948.66,1278.17,1944.22,1290.26,1934.5,1295.16z"/>
		<path class="st2" d="M1675.16,738.72c-10.05,4.6-22.75,0.03-27.14-9.77c-4.29-9.58,0.37-21.43,10.18-25.9
			c10.05-4.57,22.72,0.01,27.1,9.79C1689.58,722.4,1684.95,734.24,1675.16,738.72z"/>
		<path class="st2" d="M1466.6,809.72c4.82,9.88-0.06,22.38-10.56,27.01c-10.22,4.51-22.68,0.22-27.39-9.44
			c-4.83-9.9,0.08-22.42,10.6-27.03C1449.47,795.78,1461.9,800.08,1466.6,809.72z"/>
		<path class="st2" d="M1933.02,831.32c-9.94,4.34-22.29-0.44-26.33-10.19c-3.99-9.63,0.79-21.32,10.42-25.49
			c9.93-4.31,22.26,0.48,26.28,10.21C1947.38,815.45,1942.63,827.13,1933.02,831.32z"/>
		<path class="st2" d="M1337.04,1213.5c-4.86-9.8-0.06-22.27,10.44-27.15c10.19-4.74,22.39-0.78,27.13,8.78
			c4.85,9.78,0.08,22.24-10.4,27.13C1354.02,1227.02,1341.8,1223.08,1337.04,1213.5z"/>
		<path class="st2" d="M1397.22,1293.22c-10.55,4.96-22.08,1.05-26.66-9.05c-4.55-10.05,0.14-21.37,10.82-26.16
			c10.28-4.61,21.48-0.79,26.07,8.88C1412.19,1276.88,1407.77,1288.26,1397.22,1293.22z"/>
		<path class="st2" d="M1559.75,726.69c4.36,9.79-0.21,20.77-10.46,25.12c-10.23,4.35-21.58,0.09-25.95-9.75
			c-4.36-9.81,0.23-20.79,10.5-25.14C1544.06,712.6,1555.38,716.87,1559.75,726.69z"/>
		<path class="st2" d="M1360.5,921.06c-10.47,4.68-21.89,0.64-26.42-9.35c-4.5-9.94,0.15-20.96,10.75-25.48
			c10.2-4.35,21.3-0.4,25.84,9.19C1375.37,905.32,1370.99,916.37,1360.5,921.06z"/>
		<path class="st2" d="M1339.53,973.47c-10.51,4.71-21.96,0.67-26.49-9.36c-4.5-9.96,0.19-21.03,10.84-25.58
			c10.23-4.38,21.37-0.43,25.91,9.19C1354.47,957.64,1350.05,968.76,1339.53,973.47z"/>
		<path class="st2" d="M1772.87,715.27c-4.48-9.68-0.18-20.38,9.89-24.67c9.69-4.12,20.34-0.11,24.69,9.29
			c4.47,9.66,0.2,20.35-9.86,24.65C1787.91,728.69,1777.23,724.69,1772.87,715.27z"/>
		<path class="st2" d="M1318.33,1025.92c-10.12,4.53-21.57,0.6-26.05-8.94c-4.61-9.82,0.14-21.23,10.68-25.71
			c10.15-4.32,21.5-0.14,25.8,9.48C1333.05,1010.32,1328.46,1021.39,1318.33,1025.92z"/>
		<path class="st2" d="M1849.25,743.03c-9.9,4.34-20.77,0.11-25.02-9.72c-4.07-9.42,0.23-19.8,9.93-24.02
			c9.89-4.31,20.74-0.08,24.98,9.74C1863.2,728.43,1858.94,738.79,1849.25,743.03z"/>
		<path class="st2" d="M1381.22,868.71c-10.01,4.43-21.37,0.49-25.84-8.98c-4.61-9.76,0.04-21.01,10.47-25.4
			c10.04-4.22,21.3-0.04,25.59,9.51C1395.72,853.34,1391.23,864.28,1381.22,868.71z"/>
		<path class="st2" d="M1450.19,774.89c-4.59-9.82-0.2-20.71,10.15-25.2c10.29-4.47,21.5-0.33,25.93,9.58
			c4.27,9.55,0.02,20.16-9.9,24.67C1466.09,788.61,1454.78,784.7,1450.19,774.89z"/>
		<path class="st2" d="M1341.13,1124.71c4.48,9.99-0.24,21.17-10.93,25.85c-10.58,4.63-22,0.38-26.37-9.81
			c-4.18-9.76,0.45-20.66,10.76-25.33C1325.15,1110.63,1336.61,1114.65,1341.13,1124.71z"/>
		<path class="st2" d="M1622.49,718.94c-10.11,4.63-21.31,0.69-25.82-9.1c-4.37-9.49-0.27-20.08,9.51-24.53
			c10.11-4.61,21.29-0.65,25.78,9.12C1636.32,703.9,1632.24,714.47,1622.49,718.94z"/>
		<path class="st2" d="M1914.71,1346.38c-9.94,4.97-20.95,1.34-25.5-8.42s-0.38-20.81,9.64-25.61c9.69-4.63,20.41-1.07,24.95,8.26
			C1928.51,1330.3,1924.58,1341.44,1914.71,1346.38z"/>
		<path class="st2" d="M1900.66,761.22c-9.33,4.21-20.36,0.21-24.59-8.94c-4.23-9.14-0.06-19.97,9.29-24.17
			c9.33-4.19,20.33-0.17,24.55,8.95C1914.13,746.19,1909.99,757.01,1900.66,761.22z"/>
		<path class="st2" d="M1755.48,681c4.44,9.18,0.43,20.06-9.02,24.43c-9.48,4.39-20.66,0.56-25.1-8.61
			c-4.45-9.2-0.41-20.09,9.05-24.45C1739.89,668,1751.05,671.85,1755.48,681z"/>
		<path class="st2" d="M1430.29,1364.02c-9.47,4.54-21.28,0.75-25.63-8.23c-4.45-9.19,0.37-21.38,10.19-25.77
			c9.59-4.29,21.31-0.23,25.38,8.78C1444.33,1347.88,1439.76,1359.48,1430.29,1364.02z"/>
		<path class="st2" d="M1271.49,1069.88c-4.31-8.89,0.11-20.5,9.55-25.09c9.63-4.69,22.05-0.56,26.24,8.71
			c4.09,9.05-0.54,20.52-10.05,24.89C1287.69,1082.76,1275.84,1078.85,1271.49,1069.88z"/>
		<path class="st2" d="M1402.08,816.27c-9.3,4.28-21.12,0.28-25.42-8.6c-4.27-8.84,0.16-20.24,9.52-24.53
			c9.3-4.26,21.09-0.25,25.38,8.62C1415.82,800.58,1411.42,811.97,1402.08,816.27z"/>
		<path class="st2" d="M1342.24,1274.43c-9.79,4.4-21.52,0.17-25.35-9.13c-3.77-9.16,0.92-20.15,10.39-24.38
			c9.78-4.37,21.49-0.14,25.31,9.14C1356.35,1259.21,1351.69,1270.19,1342.24,1274.43z"/>
		<path class="st2" d="M1694.07,686.4c-9.12,4.07-20.51-0.08-24.51-8.93c-4.01-8.87,0.5-19.93,9.67-23.72
			c8.97-3.71,19.84,0.26,23.96,8.76C1707.41,671.22,1703.17,682.34,1694.07,686.4z"/>
		<path class="st2" d="M1309.49,1202.6c-9.6,4.7-21.47,0.85-25.72-8.36c-4.13-8.94,0.19-20.02,9.58-24.6
			c9.61-4.68,21.45-0.82,25.69,8.38C1323.15,1186.94,1318.86,1198.01,1309.49,1202.6z"/>
		<path class="st2" d="M1544.69,689.86c-3.66-9.04,0.88-19.17,10.23-22.87c9.66-3.82,20.42,0.71,23.98,10.1
			c3.46,9.14-1.24,19.09-10.7,22.62C1558.71,703.25,1548.36,698.91,1544.69,689.86z"/>
		<path class="st2" d="M1482.07,699.04c9.54-3.58,19.99,0.74,23.69,9.79c3.81,9.34-1.12,19.78-11,23.28
			c-9.65,3.41-19.96-1.09-23.47-10.27C1467.78,712.65,1472.52,702.63,1482.07,699.04z"/>
		<path class="st2" d="M1617.85,657.36c-3.46-8.72,1.1-18.39,10.3-21.84c9.04-3.39,19,0.94,22.51,9.79
			c3.45,8.7-1.09,18.37-10.27,21.83C1631.36,670.56,1621.37,666.23,1617.85,657.36z"/>
		<path class="st2" d="M1408.63,732.01c9.27-3.49,19.45,0.86,23,9.83c3.49,8.82-1.21,18.65-10.63,22.22
			c-9.28,3.51-19.48-0.84-23.04-9.82C1394.47,745.4,1399.19,735.56,1408.63,732.01z"/>
		<path class="st2" d="M1384.76,1321.16c4.21,8.84,0.33,19.23-8.91,23.8c-9.6,4.75-20.44,1.24-24.61-7.98
			c-4.04-8.92,0.1-19.21,9.49-23.63C1370.09,1308.93,1380.56,1312.33,1384.76,1321.16z"/>
		<path class="st2" d="M1275.36,1130.49c-9.43,4.27-19.95,0.73-24.12-8.14c-4.31-9.15,0.06-19.66,9.93-23.91
			c9.44-4.06,19.87-0.27,23.87,8.68C1289.02,1116.03,1284.81,1126.21,1275.36,1130.49z"/>
		<path class="st2" d="M1293.67,929.67c4.26,8.62,0.11,19.26-9.13,23.4c-8.96,4.01-19.56,0.5-23.7-7.86
			c-4.27-8.63-0.1-19.28,9.16-23.42C1278.96,917.8,1289.54,921.33,1293.67,929.67z"/>
		<path class="st2" d="M1314.9,877.64c4.06,8.69-0.31,19.21-9.6,23.12c-9.01,3.8-19.5,0.04-23.43-8.39
			c-4.06-8.71,0.32-19.23,9.63-23.14C1300.5,865.46,1310.97,869.23,1314.9,877.64z"/>
		<path class="st2" d="M1263.34,1005.58c-8.78,4.02-19.82,0.3-23.74-7.99c-3.91-8.28,0.36-18.96,9.16-22.96
			c8.78-3.99,19.8-0.27,23.71,8.01C1276.37,990.89,1272.13,1001.56,1263.34,1005.58z"/>
		<path class="st2" d="M1816.71,672.23c-8.5,3.88-19.02,0.02-22.74-8.35c-3.62-8.13,0.22-17.95,8.47-21.7
			c8.5-3.86,18.99,0.01,22.71,8.36C1828.77,658.66,1824.95,668.47,1816.71,672.23z"/>
		<path class="st2" d="M1868.1,690.83c-8.45,3.9-18.92,0.08-22.66-8.27c-3.63-8.1,0.15-17.92,8.36-21.68
			c8.45-3.88,18.9-0.05,22.63,8.28C1880.06,677.25,1876.29,687.05,1868.1,690.83z"/>
		<path class="st2" d="M1326.82,848.03c-8.56,3.98-19.53,0.35-23.52-7.8c-3.96-8.1,0.12-18.67,8.74-22.66
			c8.56-3.96,19.51-0.32,23.49,7.82C1339.49,833.47,1335.43,844.03,1326.82,848.03z"/>
		<path class="st2" d="M1918.82,709.25c-8.19,3.58-18.45-0.33-21.93-8.35c-3.5-8.08,0.66-18.14,8.85-21.43
			c8.06-3.24,17.8,0.48,21.39,8.18C1930.86,695.59,1926.97,705.69,1918.82,709.25z"/>
		<path class="st2" d="M1263.7,1246.84c-3.69-8.51,1.03-19.31,10.02-22.95c8.87-3.59,19.31,0.26,22.85,8.42
			c3.69,8.5-1.01,19.29-9.99,22.94C1277.72,1258.86,1267.25,1255.02,1263.7,1246.84z"/>
		<path class="st2" d="M1773.3,631.77c3.68,8.04-0.36,18.15-8.65,21.65c-8.35,3.51-18.73-0.51-22.16-8.59
			c-3.36-7.92,0.51-17.55,8.48-21.16C1759.19,619.96,1769.62,623.75,1773.3,631.77z"/>
		<path class="st2" d="M1524.49,657.94c3.53,8.09-0.44,17.64-8.83,21.22c-8.7,3.71-19-0.29-22.43-8.72
			c-3.33-8.2,0.89-17.68,9.37-21.04C1511.12,646.03,1520.97,649.87,1524.49,657.94z"/>
		<path class="st2" d="M1588.45,646.75c-8.62,3.75-18.02,0.19-21.69-8.21c-3.52-8.07,0.12-16.82,8.5-20.44
			c8.62-3.73,18-0.17,21.66,8.22C1600.44,634.37,1596.81,643.11,1588.45,646.75z"/>
		<path class="st2" d="M1442.35,710.95c-8.68,3.93-18.26,0.61-22.14-7.68c-3.88-8.3-0.16-17.47,8.61-21.21
			c8.43-3.6,17.69-0.37,21.58,7.51C1454.47,697.77,1450.98,707.05,1442.35,710.95z"/>
		<path class="st2" d="M1320.74,1326.07c-8.79,4.29-18.83,1.16-22.85-7.14c-4.02-8.31-0.28-18.17,8.5-22.44
			c8.79-4.27,18.81-1.13,22.82,7.15C1333.23,1311.94,1329.51,1321.79,1320.74,1326.07z"/>
		<path class="st2" d="M1230.84,1175.01c-3.82-8.4,0.18-18.11,9.1-22.13c8.91-4.01,18.86-0.58,22.67,7.81
			c3.81,8.38-0.17,18.09-9.07,22.11C1244.63,1186.84,1234.66,1183.42,1230.84,1175.01z"/>
		<path class="st2" d="M1250.31,1035.52c4.11,8.33,0.39,18.07-8.49,22.21c-8.92,4.16-18.93,0.83-22.85-7.6
			c-3.79-8.15-0.19-17.54,8.31-21.7C1236.1,1024.11,1246.22,1027.23,1250.31,1035.52z"/>
		<path class="st2" d="M1347.09,795.41c-8.82,3.86-18.44,0.38-22.21-8.05c-3.75-8.37,0.23-17.61,9.16-21.29
			c8.56-3.53,17.84-0.15,21.65,7.87C1359.64,782.27,1355.92,791.55,1347.09,795.41z"/>
		<path class="st2" d="M1691.58,626.16c-3.87-8.22-0.3-17.14,8.3-20.76c8.23-3.46,17.14-0.14,20.86,7.77
			c3.86,8.21,0.31,17.12-8.27,20.75C1704.23,637.39,1695.31,634.08,1691.58,626.16z"/>
		<path class="st2" d="M1228.32,1089.07c3.65,7.52-0.14,17.34-8.19,21.16c-8.02,3.8-18.16,0.55-21.83-7.02
			c-3.66-7.53,0.16-17.36,8.21-21.17C1214.53,1078.25,1224.65,1081.52,1228.32,1089.07z"/>
		<path class="st2" d="M1375.96,722.72c3.42,7.47-0.46,16.95-8.32,20.34c-7.89,3.4-17.76-0.14-21.17-7.61
			c-3.42-7.48,0.47-16.97,8.35-20.35C1362.7,711.72,1372.55,715.27,1375.96,722.72z"/>
		<path class="st2" d="M1660.29,614.48c-7.67,3.22-17.32-0.49-20.48-7.89c-3.18-7.46,0.84-16.77,8.52-19.72
			c7.49-2.88,16.67,0.67,19.94,7.71C1671.66,601.9,1667.9,611.28,1660.29,614.48z"/>
		<path class="st2" d="M1265.32,1306.76c-8.02,3.89-17.22,0.99-20.87-6.56c-3.65-7.55-0.19-16.57,7.83-20.44
			c8.02-3.87,17.21-0.97,20.85,6.57C1276.77,1293.88,1273.33,1302.88,1265.32,1306.76z"/>
		<path class="st2" d="M1239.67,1214.51c3.64,7.54,0.19,16.52-7.84,20.37c-8.04,3.85-17.25,0.93-20.9-6.62
			c-3.65-7.56-0.18-16.54,7.86-20.38C1226.83,1204.04,1236.03,1206.97,1239.67,1214.51z"/>
		<path class="st2" d="M1886.24,638.37c-7.26,3.36-15.32,0.69-18.87-6.26c-3.74-7.32-0.88-15.49,6.62-18.95
			c7.53-3.47,15.8-0.47,19.17,6.95C1896.41,627.27,1893.48,635.03,1886.24,638.37z"/>
		<path class="st2" d="M1250.54,879.41c-8.06,3.73-17.02,0.74-20.61-6.88c-3.6-7.62-0.09-16.2,8.06-19.73
			c7.84-3.39,16.41-0.52,20.04,6.7C1261.82,867.04,1258.56,875.7,1250.54,879.41z"/>
		<path class="st2" d="M1469.75,639.64c3.38,7.61-0.27,15.91-8.38,19.07c-7.75,3.02-16.04-0.25-19.31-7.63
			c-3.38-7.62,0.28-15.93,8.4-19.08C1458.21,628.99,1466.48,632.27,1469.75,639.64z"/>
		<path class="st2" d="M1236.87,912.13c3.7,7.59,0.31,16.23-7.8,19.9c-8.12,3.67-17.07,0.58-20.57-7.11
			c-3.37-7.4-0.11-15.7,7.61-19.38C1224.16,901.7,1233.19,904.57,1236.87,912.13z"/>
		<path class="st2" d="M1542.95,607.81c3.34,7.58-0.3,15.83-8.35,18.94c-7.69,2.97-15.9-0.33-19.14-7.69
			c-3.34-7.59,0.31-15.84,8.37-18.94C1531.51,597.16,1539.71,600.46,1542.95,607.81z"/>
		<path class="st2" d="M1834.78,619.79c-7.61,3.36-15.86,0.2-19.14-7.34c-3.13-7.2,0.01-14.93,7.36-18.16
			c7.61-3.34,15.84-0.18,19.12,7.35C1845.25,608.83,1842.12,616.56,1834.78,619.79z"/>
		<path class="st2" d="M1207.63,984.5c-7.88,3.61-16.5,0.82-20.08-6.51c-3.75-7.64-0.27-16.24,7.99-19.8
			c7.92-3.41,16.43-0.39,19.85,7.04C1218.81,972.67,1215.5,980.9,1207.63,984.5z"/>
		<path class="st2" d="M1270.97,827.08c-7.87,3.28-16.38,0.07-19.67-7.43c-3.25-7.43,0.33-15.61,8.28-18.91
			c7.87-3.26,16.37-0.05,19.64,7.44C1282.48,815.6,1278.91,823.78,1270.97,827.08z"/>
		<path class="st2" d="M1205.54,1142.89c3.56,7.27,0.21,15.94-7.57,19.57c-7.8,3.64-16.69,0.67-20.06-6.7
			c-3.24-7.08-0.01-15.41,7.38-19.05C1193,1132.92,1202,1135.67,1205.54,1142.89z"/>
		<path class="st2" d="M1185.79,1037.26c-7.41,3.29-16.42,0.17-19.59-6.77c-3.18-6.95,0.43-15.66,7.83-18.93
			c7.41-3.27,16.4-0.15,19.57,6.78C1196.77,1025.28,1193.18,1033.98,1185.79,1037.26z"/>
		<path class="st2" d="M1607.86,594.21c-6.99,3.16-15.51,0.25-18.85-6.43c-3.47-6.95-0.14-15.51,7.23-18.59
			c7.08-2.95,15.49,0.19,18.63,6.94C1618.01,582.89,1614.84,591.05,1607.86,594.21z"/>
		<path class="st2" d="M1790.23,582.34c3.44,7.08,0.43,15.14-6.88,18.4c-7.35,3.28-15.57,0.26-18.85-6.93
			c-3.14-6.88-0.23-14.63,6.71-17.91C1778.46,572.47,1786.8,575.3,1790.23,582.34z"/>
		<path class="st2" d="M1387.75,690.3c-7.51,3.19-16.33-0.17-19.37-7.39c-2.91-6.93,0.59-15.03,7.82-18.08
			c7.51-3.18,16.32,0.19,19.34,7.4C1398.46,679.14,1394.97,687.23,1387.75,690.3z"/>
		<path class="st2" d="M1936.84,656.89c-7.23,3.2-15.35,0.11-18.53-7.04c-3.16-7.11,0.11-15.04,7.45-18.08
			c7-2.89,14.79,0.08,18.01,6.86C1947.12,645.72,1944.1,653.68,1936.84,656.89z"/>
		<path class="st2" d="M1731.16,581.67c-6.86,2.79-15.45-0.65-18.17-7.26c-2.75-6.7,0.93-14.97,7.78-17.49
			c6.69-2.46,14.8,0.79,17.63,7.07C1741.37,570.56,1737.96,578.91,1731.16,581.67z"/>
		<path class="st2" d="M1292.5,774.37c-7.08,3.27-16.07,0.3-19.38-6.42c-3.29-6.68,0.03-15.31,7.15-18.59
			c7.08-3.26,16.06-0.28,19.36,6.43C1302.91,762.47,1299.61,771.08,1292.5,774.37z"/>
		<path class="st2" d="M1145.78,1083.36c-3.17-6.74-0.16-14.21,7.03-17.49c7.19-3.28,14.9-0.71,18.06,6.02
			c3.16,6.73,0.17,14.19-7.01,17.48C1156.66,1092.66,1148.94,1090.1,1145.78,1083.36z"/>
		<path class="st2" d="M1312.45,721.74c-7.07,2.9-14.48,0.07-17.43-6.67c-2.91-6.66,0.22-13.8,7.32-16.71
			c7.07-2.89,14.47-0.05,17.41,6.68C1322.68,711.71,1319.57,718.82,1312.45,721.74z"/>
		<path class="st2" d="M1216.44,1269.53c3.02,6.79-0.14,14.27-7.41,17.52c-7.23,3.24-14.89,0.56-17.92-6.28
			c-3.02-6.8,0.15-14.29,7.43-17.53C1205.77,1260.02,1213.41,1262.7,1216.44,1269.53z"/>
		<path class="st2" d="M1414.73,621.7c2.53,6.24-0.71,13.4-7.23,15.98c-6.83,2.71-14.65-0.58-17.07-7.19
			c-2.33-6.33,1.15-13.39,7.76-15.78C1404.78,612.33,1412.2,615.46,1414.73,621.7z"/>
		<path class="st2" d="M1662.4,555.69c-3.13-6.39-0.42-13.54,6.22-16.47c6.66-2.93,13.99-0.23,16.93,6.24
			c2.81,6.17,0.24,13-6.01,15.96C1672.97,564.53,1665.51,562.04,1662.4,555.69z"/>
		<path class="st2" d="M1488.3,589.38c2.95,6.55-0.1,13.68-7.04,16.49c-6.89,2.78-14.29-0.19-17.08-6.87
			c-2.64-6.33,0.28-13.14,6.85-15.99C1477.89,580.04,1485.34,582.79,1488.3,589.38z"/>
		<path class="st2" d="M1554.66,573.8c-6.25,2.78-13.81,0.17-16.77-5.78c-3.09-6.21-0.05-13.85,6.57-16.53
			c6.34-2.57,13.8,0.27,16.55,6.29C1563.77,563.81,1560.91,571.02,1554.66,573.8z"/>
		<path class="st2" d="M1164.6,1191.62c6.77-3.24,14.46-0.97,17.72,5.23c3.42,6.51,0.56,14.37-6.47,17.75
			c-7.07,3.4-15.04,0.79-18.07-5.94C1154.88,1202.24,1157.84,1194.86,1164.6,1191.62z"/>
		<path class="st2" d="M1177.73,852.42c-2.65-5.79,0.4-13.31,6.52-16.1c6.4-2.91,14.69,0.09,17.2,6.21
			c2.43,5.9-0.87,13.35-7.05,15.9C1188.18,861.01,1180.38,858.2,1177.73,852.42z"/>
		<path class="st2" d="M1173.53,910.78c-6.04,2.91-14.03,0.48-17.05-5.19c-3.13-5.86,0-13.96,6.48-16.79
			c6.19-2.7,14.05-0.03,16.83,5.72C1182.55,900.25,1179.63,907.85,1173.53,910.78z"/>
		<path class="st2" d="M1904.01,586.09c-5.94,2.67-12.85,0.03-15.4-5.87c-2.43-5.63,0.11-12,5.78-14.53
			c5.94-2.66,12.84-0.02,15.38,5.87C1912.2,577.19,1909.67,583.55,1904.01,586.09z"/>
		<path class="st2" d="M1858.47,552.17c2.9,5.75,0.38,12.57-5.6,15.19c-5.72,2.5-12.33,0.18-15.1-5.31
			c-2.9-5.76-0.38-12.58,5.61-15.2C1849.1,544.35,1855.71,546.69,1858.47,552.17z"/>
		<path class="st2" d="M1151.69,963.19c-6.2,2.91-13.23,0.82-16.25-4.85c-3.2-5.99-0.61-13.1,5.88-16.14
			c6.49-3.04,13.79-0.58,16.57,5.57C1160.54,953.66,1157.88,960.28,1151.69,963.19z"/>
		<path class="st2" d="M1221.82,789.84c2.9,5.86,0.53,12.33-5.61,15.3c-6.49,3.13-13.59,0.79-16.42-5.42
			c-2.71-5.93-0.1-12.31,6.17-15.11C1212.22,781.79,1218.93,784.01,1221.82,789.84z"/>
		<path class="st2" d="M1323.49,648.24c6.18-2.7,12.71-0.47,15.55,5.31c2.99,6.09,0.31,12.64-6.26,15.3
			c-6.23,2.53-12.69,0.08-15.36-5.81C1314.77,657.16,1317.32,650.94,1323.49,648.24z"/>
		<path class="st2" d="M1141.83,1141.63c-6.24,2.97-13.29,0.89-16.31-4.81c-3.19-6.02-0.56-13.21,5.97-16.31
			c6.53-3.1,13.86-0.66,16.63,5.54C1150.76,1131.97,1148.06,1138.66,1141.83,1141.63z"/>
		<path class="st2" d="M1626.5,541.3c-5.97,2.62-12.33,0.34-15.04-5.4c-2.71-5.75-0.33-11.88,5.64-14.49
			c5.97-2.61,12.32-0.33,15.03,5.41C1634.84,532.56,1632.46,538.68,1626.5,541.3z"/>
		<path class="st2" d="M1786.64,542.64c-2.63-5.72-0.24-11.77,5.65-14.31c5.88-2.54,12.1-0.2,14.73,5.52
			c2.62,5.71,0.24,11.76-5.64,14.3C1795.5,550.69,1789.27,548.36,1786.64,542.64z"/>
		<path class="st2" d="M1129.45,1015.86c-5.88,2.59-12.74,0.27-15.34-5.18c-2.74-5.73,0.25-12.71,6.52-15.21
			c5.94-2.38,12.72,0.19,15.12,5.72C1138.13,1006.71,1135.32,1013.27,1129.45,1015.86z"/>
		<path class="st2" d="M1152.88,1266.99c-5.81,2.52-13.14-0.24-15.22-5.72c-2-5.27,1.04-11.97,6.51-14.33
			c5.81-2.51,13.12,0.25,15.21,5.73C1161.37,1257.93,1158.34,1264.62,1152.88,1266.99z"/>
		<path class="st2" d="M1755.1,514.98c2.4,5.08-0.2,11.65-5.48,13.86c-5.3,2.22-12.27-0.36-14.18-5.61
			c-2.07-5.71-0.22-10.42,5.27-13.3C1745.76,507.28,1752.69,509.89,1755.1,514.98z"/>
		<path class="st2" d="M1221.73,747.55c-2.56-5.25,0.08-11.99,5.67-14.53c5.58-2.53,12.62-0.17,15.18,5.08
			c2.55,5.24-0.07,11.98-5.66,14.52C1231.34,755.17,1224.29,752.81,1221.73,747.55z"/>
		<path class="st2" d="M1186.6,1339.15c-5.78,2.58-13.12-0.1-15.25-5.57c-2.05-5.25,0.94-11.99,6.38-14.41
			c5.78-2.58,13.11,0.11,15.24,5.57C1195,1329.98,1192.03,1336.72,1186.6,1339.15z"/>
		<path class="st2" d="M1427.51,584.73c-5.26,2.18-11.87-0.24-14.22-5.19c-2.46-5.2,0.46-11.98,6.02-14.02
			c5.33-1.95,11.91,0.73,14,5.7C1435.44,576.26,1432.74,582.56,1427.51,584.73z"/>
		<path class="st2" d="M1501.01,553.02c-5.19,2.21-11.77-0.15-14.16-5.07c-2.5-5.15,0.31-11.91,5.83-13.99
			c5.28-1.99,11.8,0.62,13.95,5.57C1508.8,544.55,1506.18,550.83,1501.01,553.02z"/>
		<path class="st2" d="M1340.2,611.34c-2.55-5.01-0.45-10.69,4.98-12.84c5.62-2.23,10.09-0.71,12.88,4.38
			c2.7,4.93,0.44,10.56-4.93,12.85C1348.07,617.9,1342.59,616.04,1340.2,611.34z"/>
		<path class="st2" d="M1685.02,504.42c-2.05-5.29-0.94-9.54,4.2-12.29c4.88-2.61,10.92-0.55,13.01,4.44
			c2.19,5.24,0.63,9.52-4.64,11.93C1692.26,510.94,1688.05,509.04,1685.02,504.42z"/>
		<path class="st2" d="M1257.33,699.74c-5.71,1.86-10.25,0.68-13.05-4.53c-2.68-4.99-0.38-10.65,5.07-12.97
			c5.42-2.31,11.34-0.13,13.35,5.14C1264.8,692.86,1262.65,696.9,1257.33,699.74z"/>
		<path class="st2" d="M1112.73,1054.56c2.11,5.77,0.7,10.53-5.38,13.32c-6.03,2.76-11.04,1.17-13.74-4.46
			c-2.69-5.62-0.78-10.44,5.23-13.25C1104.9,1047.35,1109.54,1049.29,1112.73,1054.56z"/>
		<path class="st2" d="M1573.64,520.65c-5.54,1.87-9.97,0.74-12.77-4.32c-2.65-4.8-0.41-10.62,4.88-12.57
			c5.53-2.03,10-0.44,12.43,4.73C1580.63,513.71,1578.57,517.76,1573.64,520.65z"/>
		<path class="st2" d="M1105.4,1189.79c-2.3-6.22-0.91-11.03,5.18-13.89c6.03-2.82,11.05-1.27,13.77,4.35
			c2.72,5.61,0.83,10.45-5.17,13.37C1113.07,1196.59,1108.53,1194.42,1105.4,1189.79z"/>
		<path class="st2" d="M1116.5,888.43c-4.9,1.75-8.88,0.82-11.13-3.68c-2.39-4.79-0.91-8.84,4.33-11.13
			c5.25-2.29,9.33-0.63,11.41,4.27C1123.06,882.51,1121.12,886.03,1116.5,888.43z"/>
		<path class="st2" d="M1142.56,824.64c1.91,4.88,0.69,8.81-4.57,11.06c-4.83,2.07-8.81,0.74-11-3.72
			c-2.36-4.81-0.77-8.77,4.44-11.04C1136.29,818.83,1140,820.4,1142.56,824.64z"/>
		<path class="st2" d="M1072.88,1115.44c-1.37-5.03,0.53-8.84,5.95-10.68c5.12-1.73,8.89,0.19,10.59,4.8
			c1.89,5.12-0.4,8.94-5.77,10.8C1078.52,1122.13,1075.04,1120.03,1072.88,1115.44z"/>
		<path class="st2" d="M1098.92,930.13c1.58,4.57,0.59,8.53-4.17,10.71c-4.72,2.16-8.88,0.73-10.98-3.7
			c-1.94-4.09-0.4-7.92,3.8-10.1C1092.25,924.63,1096.07,926.27,1098.92,930.13z"/>
		<path class="st2" d="M1644.57,488.35c-4.65,1.27-8.4,0.1-10.25-4.39c-1.84-4.46-0.22-8.08,4.39-9.86
			c4.62-1.78,8.37-0.19,10.25,4.23C1650.85,482.81,1648.96,486.13,1644.57,488.35z"/>
		<path class="st2" d="M1277.62,646.56c-4.87,1.45-8.78,0.37-10.77-4.19c-1.97-4.53-0.34-8.28,4.43-10.23
			c4.78-1.96,8.7-0.44,10.71,4.05C1284.03,640.73,1282.1,644.18,1277.62,646.56z"/>
		<path class="st2" d="M1860.19,510.45c-1.36-4.44-0.36-8.12,4.14-9.91c4.44-1.77,8.22-0.19,10.02,4.17
			c1.65,3.99,0.24,7.53-3.78,9.36C1866.17,516.07,1862.7,514.39,1860.19,510.45z"/>
		<path class="st2" d="M1159.7,783.01c-4.84,1.45-8.94,0.56-10.94-3.93c-1.98-4.43-0.26-8.34,4.49-10.29
			c4.36-1.79,8.3-0.41,10.33,3.57C1165.83,776.74,1163.95,780.32,1159.7,783.01z"/>
		<path class="st2" d="M1921.52,533.08c-4.49,1.38-8.27,0.47-10.22-3.88c-1.93-4.3-0.4-7.98,4-9.81c4.05-1.68,7.68-0.33,9.65,3.54
			C1927.11,527.17,1925.47,530.58,1921.52,533.08z"/>
		<path class="st2" d="M1130.07,1318.37c-5,1.58-9.13,0.66-11.07-4c-1.92-4.6-0.09-8.62,4.84-10.65c4.51-1.86,8.46-0.51,10.45,3.64
			C1136.48,1311.92,1134.53,1315.61,1130.07,1318.37z"/>
		<path class="st2" d="M1822.99,485.42c1.23,4.07,0.37,7.67-3.61,9.47c-4.31,1.95-8.29,0.46-10.1-3.82
			c-1.65-3.91-0.12-7.56,3.93-9.23C1817.27,480.17,1820.62,481.86,1822.99,485.42z"/>
		<path class="st2" d="M1447.04,531.12c-4.33,1.3-8.19,0.44-10.17-3.45c-2.16-4.24-0.6-8.2,3.95-10.06c4.17-1.71,8.07-0.2,9.92,3.77
			C1452.6,525.36,1450.81,528.7,1447.04,531.12z"/>
		<path class="st2" d="M1376.53,553.16c1.43,3.93,0.38,7.2-3.6,8.94c-4.36,1.91-8.02,0.48-9.75-3.72c-1.59-3.86-0.01-7.13,4.04-8.72
			C1371.28,548.06,1374.47,549.51,1376.53,553.16z"/>
		<path class="st2" d="M1100.4,1235.36c1.24,4.46,0.03,8.3-4.55,10.18c-4.53,1.85-8.57,0.33-10.26-3.98
			c-1.52-3.89,0.07-7.67,4.19-9.56C1094.29,1229.93,1097.92,1231.54,1100.4,1235.36z"/>
		<path class="st2" d="M1062.76,989.97c-1.48-4.13-0.3-7.4,3.96-9.23c4.26-1.83,7.73-0.59,9.51,3.36c1.79,3.97,0.34,7.3-3.89,9.14
			C1068.07,995.11,1064.83,993.7,1062.76,989.97z"/>
		<path class="st2" d="M1523.29,490.34c1.44,3.97,0.34,7.07-3.67,8.73c-4.02,1.66-7.31,0.38-9.04-3.45c-1.73-3.84-0.38-7,3.61-8.66
			C1518.22,485.29,1521.29,486.71,1523.29,490.34z"/>
		<path class="st2" d="M1183.89,720.53c1.56,4.12,0.68,7.19-3.24,8.96c-4.28,1.93-7.66,0.68-9.38-3.4
			c-1.57-3.74-0.08-6.71,3.84-8.35C1179.12,716.06,1182.01,717.57,1183.89,720.53z"/>
		<path class="st2" d="M1758.86,471.58c-1-3.56-0.02-6.41,3.65-7.77c3.65-1.35,6.62-0.07,8.04,3.46c1.43,3.53,0.11,6.4-3.52,7.78
			C1763.37,476.44,1760.65,474.96,1758.86,471.58z"/>
		<path class="st2" d="M1300.91,585.19c1.16,3.24,0.42,6.14-2.91,7.77c-3,1.46-6,0.52-7.71-2.13c-1.98-3.08-0.9-6.17,2.21-7.93
			C1295.74,581.08,1298.68,582.33,1300.91,585.19z"/>
		<path class="st2" d="M1053.42,1169.17c-1.09-3.38-0.29-6.45,3.18-8.16c3.47-1.71,6.78-0.68,8.42,2.51
			c1.66,3.22,0.41,6.41-3.02,8.13C1058.51,1173.39,1055.57,1172.1,1053.42,1169.17z"/>
		<path class="st2" d="M1715.27,454.62c-2.81,1.08-5.09,0.47-6.44-2.28c-1.33-2.71-0.56-4.95,2.26-6.23
			c2.8-1.27,5.11-0.52,6.46,2.22C1718.9,451.04,1718.05,453.17,1715.27,454.62z"/>
		<path class="st2" d="M1591.61,466.65c-3.28,1.01-5.83,0.16-7.06-2.89c-1.24-3.07,0.04-5.49,3.2-6.6c2.81-0.99,5.23,0.01,6.47,2.64
			C1595.64,462.8,1594.51,465.11,1591.61,466.65z"/>
		<path class="st2" d="M1201.54,676.41c-3.19,1.26-5.93,0.68-7.46-2.35c-1.52-3.01-0.46-5.61,2.78-7.06
			c2.87-1.28,5.48-0.5,6.97,2.07C1205.49,671.97,1204.66,674.52,1201.54,676.41z"/>
		<path class="st2" d="M1050.23,1045.06c-3.38,1.37-6.19,0.82-7.72-2.27c-1.52-3.07-0.41-5.74,2.91-7.26
			c2.95-1.35,5.6-0.58,7.11,2.04C1054.23,1040.53,1053.27,1043.12,1050.23,1045.06z"/>
		<path class="st2" d="M1075.15,1290.53c0.98,2.28,0.41,4.43-1.61,5.83c-2.53,1.75-5.04,0.95-6.53-1.26
			c-1.37-2.04-0.48-4.35,1.53-5.75C1071.08,1287.58,1073.32,1288.61,1075.15,1290.53z"/>
		<path class="st2" d="M1393.92,503.76c0.72,1.93,0.13,3.47-1.78,4.34c-2.31,1.06-4.13,0.32-5-1.93c-0.78-2.02,0.34-3.23,2.32-4
			C1391.55,501.36,1392.97,501.87,1393.92,503.76z"/>
		<path class="st2" d="M1465.75,476.82c-1.84,0.73-3.64,0.68-4.61-1.28c-0.53-1.07-1.93-2.97,1.02-3.01
			c1.81-0.03,4.04-2.48,5.4,0.54C1468.32,474.71,1467.31,475.91,1465.75,476.82z"/>
		<path class="st2" d="M1027.36,1090.57c2.13,1.72,2.71,3.3,1.49,5.13c-0.24,0.35-1.76,0.5-2,0.22
			C1025.4,1094.19,1024.72,1092.32,1027.36,1090.57z"/>
	</g>
</g>
</svg>
