<?xml version="1.0" encoding="utf-8"?>
<!-- Generator: Adobe Illustrator 24.0.1, SVG Export Plug-In . SVG Version: 6.00 Build 0)  -->
<svg version="1.1" id="Layer_1" xmlns="http://www.w3.org/2000/svg" xmlns:xlink="http://www.w3.org/1999/xlink" x="0px" y="0px"
	 viewBox="0 0 1920 481" style="enable-background:new 0 0 1920 481;" xml:space="preserve">
<style type="text/css">
	.st0{fill:#0D0E0D;}
	.st1{fill-rule:evenodd;clip-rule:evenodd;fill:#C8C7C7;}
</style>
<path class="st0" d="M1920,175.03v-3.52c-14.96-8.93-32.52-10.8-49.89-8.79l-2.44-1.22l0.4,1.47c-4.81,0.64-9.6,1.56-14.3,2.7
	c-3.92-1.09-7.88-2.07-11.86-2.92c-18.42-3.93-37.4-5.24-56.19-3.87c-17.84,1.31-35.92,4.75-52.46,11.73
	c-7.95,3.36-15.53,7.61-22.3,12.98c-6.48,5.14-12.05,11.32-16.71,18.15c-4.39,6.45-7.95,13.4-10.91,20.61
	c-13,6.64-25.19,15.86-32.24,28.84c-3.72,6.85-5.57,14.15-6.05,21.58l-5.37,9.73l-27-1l-4,6l-11,15l-6.33,2.59
	c0.37-1.89,0.14-3.77-0.73-5.52c-3.55-7.1-18.19-8.87-18.19-8.87s9.76-7.1,1.77-13.31c-7.99-6.21-14.59-7.98-21.27-2.22
	c-6.68,5.77-1.8,15.52-1.8,15.52s-11.09,7.64,0,12.69c11.09,5.05,16.42-2.04,16.42-2.04s2.66,9.76-6.21,11.09
	c0,0-1.01,2.75,0.28,4.85l-2.95,1.21l-2.42,20.88l-51.26,23.45c-1.2-1.83-2.88-3.23-5.33-3.82c-11.09-2.66-8.87-11.09-19.52-9.76
	c-10.65,1.33-20.85,9.31-24.4,7.98c-3.55-1.33-3.99-6.21-0.89-7.54c3.11-1.33,26.62-14.19,29.28-43.47
	c2.66-29.27,0.44-54.11-31.06-56.77c0,0,3.11-14.64-11.98-23.06c-15.09-8.43-29.28-1.77-36.83,0c-7.54,1.77-18.64,6.21-20.85-2.22
	c-2.22-8.43,7.1-13.31,2.22-23.95c-4.88-10.65-22.19-11.98-31.5-8.43c-9.32,3.55-16.86,14.19-18.64,20.85
	c-1.77,6.65-5.77,8.43-3.11,9.76c2.66,1.33,7.1-11.9,17.75-12.61c10.65-0.7,21.3,1.07,24.85,14.82c3.55,13.75-2.22,17.74-2.22,17.74
	s16.42-7.98,27.07,19.52c10.65,27.5-2.66,49.68-12.87,53.23c-10.21,3.55-14.64-7.89-22.19-11.71c-7.54-3.82-30.17-1.16-41.26,10.82
	c-11.09,11.98-24.85,27.94-46.59,23.95c-2.93-0.54,7.1-6.21,5.77-8.43c-1.33-2.22-3.55-3.55-9.32,0
	c-5.77,3.55-26.62,14.19-33.28,19.96c-5.55,4.8-21.87,10.84-31.78,14.26l-28.64-11.46l-69.18,1.34l-2.82-24.34l-39-16l-11-15l-4-6
	l-9.36,0.35c-0.01-0.03-0.01-0.05-0.01-0.08c-1.95-9.65-7.51-18.11-14.28-25.1c-7.45-7.7-16.39-13.89-25.35-19.7
	c-3.79-2.46-7.65-4.8-11.55-7.09c-15.18-13.7-34.05-23.08-53.25-29.71c-1.43-0.49-2.87-0.97-4.31-1.43
	c-3.24-8.05-7.12-15.87-10.9-23.37c-2.81-5.56-5.68-11.1-8.61-16.6c-1.36-2.56-2.65-5.2-4.18-7.66c-1.16-1.88-2.62-3.69-4.64-4.69
	c-4.43-2.18-9.74,0.25-13.89,2.05c-4.1,1.78-8.01,4-11.65,6.6c-9.59,6.83-17.39,16.12-22.68,26.65c-6.33-0.58-12.69-0.84-19.06-0.69
	c-16.9,0.4-33.85,3.75-49.44,10.36l8.15-29.88l-12,6l-6-4l-8,34c0,0-27.64,4.88-30,5c-2.36,0.12-2,13-2,13s9.25-1.51,17.31-2.88
	c-0.87,0.85-1.74,1.72-2.58,2.61c-5.89,3.4-11.59,7.17-16.94,11.28c-8.01,6.16-15.37,13.51-20.23,22.45
	c-0.2,0.37-0.39,0.74-0.58,1.11l-47.98,10.43c0,0-1.61,38.14-4,39c-39.1,14.01-27.29,36.39-2.82,56.62L536.67,354.5l-147,6
	l-71.42-26.23c10.92-1.59,40.95,0.33,44.54,0.66c4.03,0.37,16.85-0.37,14.29-2.56c-2.56-2.2-26.38-6.59-32.97-8.79
	c-6.59-2.2-24.91-8.42-30.41-13.18c-5.5-4.76-22.71-13.55-27.48-16.48c-4.76-2.93-6.59-1.83-7.69,0c-1.1,1.83,7.18,6.51,4.76,6.96
	c-17.95,3.3-29.31-9.89-38.47-19.78c-9.16-9.89-27.84-12.09-34.07-8.93c-6.23,3.15-9.89,12.6-18.32,9.67
	c-8.43-2.93-19.42-21.24-10.62-43.95c8.79-22.71,22.35-16.11,22.35-16.11s-4.76-3.3-1.83-14.65c2.93-11.35,11.72-12.82,20.52-12.24
	c8.79,0.58,12.46,11.51,14.65,10.41c2.2-1.1-1.1-2.56-2.56-8.06c-1.47-5.49-7.69-14.28-15.39-17.21
	c-7.69-2.93-21.98-1.83-26.01,6.96c-4.03,8.79,3.66,12.82,1.83,19.78c-1.83,6.96-10.99,3.3-17.22,1.83
	c-6.23-1.46-17.95-6.96-30.41,0c-12.46,6.96-9.89,19.04-9.89,19.04c-26.01,2.2-27.84,22.71-25.65,46.88
	c2.2,24.17,21.62,34.79,24.18,35.89c2.56,1.1,2.2,5.13-0.73,6.23c-2.93,1.1-11.36-5.49-20.15-6.59c-8.79-1.1-6.96,5.86-16.12,8.06
	c-9.16,2.2-5.13,17.95-11.72,18.68s-13.56-2.56-18.32-2.2c-4.76,0.37-5.86,4.76-12.82,4.76c-6.96,0-13.92-4.76-20.52-8.42
	c-6.59-3.66-9.16-1.1-11.72-1.97c-2.56-0.87-7.69-10.12-17.22-9.02c-6.32,0.73-6.35,4.46-5.65,6.89L0,326.41V481h1920V230.1
	l-9.4,6.38c0.74-4.29,1.18-8.63,1.23-13c0.04-3.48-0.2-6.96-0.74-10.4c3.17,0.53,6.34,1.06,8.91,1.49v-12.58
	c-3.26-0.51-8.15-1.34-12.84-2.14c-3.37-7.26-8.76-13.23-15.24-17.87c-0.74-0.53-1.5-1.03-2.26-1.53l-3.65-15.5
	c9.55,0.38,19.01,2.3,27.61,6.49C1915.81,172.51,1917.94,173.71,1920,175.03z M743.57,255.43l-15.91,3.46
	c4.84-5.81,10.3-11.09,16.18-15.88c-0.55,1.54-0.96,3.12-1.15,4.76C742.36,250.56,742.73,253.1,743.57,255.43z M726.46,259.15
	l-5.05,1.1c6.45-11,16.89-19.67,27.73-26.7c-1.75,2.32-3.34,4.85-4.53,7.53C737.97,246.48,731.82,252.51,726.46,259.15z
	 M761.67,251.5l-13.22,2.87c0.4-3.93,1.66-7.74,4.11-11.04c3.4-4.6,8.56-6.88,14.1-8.2C764.36,243.06,761.67,251.5,761.67,251.5z
	 M767.22,233.17c-7.3,1.63-14.16,4.62-17.92,11.71c-1.67,3.14-2.55,6.5-2.82,9.92l-0.45,0.1c-1.96-5.18-0.61-10.41,2.04-15.18
	c3.57-2.69,7.26-5.23,11.05-7.62c3.26-2.05,6.58-3.98,9.96-5.83C768.6,228.23,767.95,230.63,767.22,233.17z M769.44,224.68
	c-4.4,2.39-8.71,4.94-12.89,7.68c-2.37,1.56-4.7,3.19-6.99,4.89c1.89-2.86,4.14-5.51,6.27-7.83c4.54-2.69,9.21-5.26,14.04-7.43
	C769.87,222.52,769.71,223.45,769.44,224.68z M938.86,212.79c15.65,5.42,31.12,12.62,44.49,22.56c-2.97-1.61-5.96-3.2-8.97-4.73
	c-12.14-6.17-24.62-11.86-37.31-16.97c-0.21-0.55-0.41-1.11-0.63-1.66C937.25,212.24,938.06,212.51,938.86,212.79z M939.45,231.24
	c-16.94-5.94-35.58-6.53-53.4-6.73c-10.78-0.12-21.57,0.02-32.35,0.39c-0.1-7.94,1.33-15.85,4.01-23.32
	c6.66-0.36,13.34-0.42,20.01-0.17c7.62,0.28,15.22,0.98,22.76,2.07c11.22,3.29,22.25,7.26,33.08,11.59
	c0.54,0.22,1.07,0.44,1.61,0.66C936.94,220.8,938.43,225.99,939.45,231.24z M933.93,212.36c-4.37-1.72-8.77-3.35-13.19-4.93
	c4.26,1.05,8.48,2.24,12.67,3.55C933.58,211.45,933.76,211.91,933.93,212.36z M892.44,162.41c1.98-0.95,4.02-1.79,6.1-2.5
	c2.65-0.91,5.79-1.72,8.32-0.04c2.03,1.35,3.21,3.67,4.34,5.76c1.41,2.6,2.8,5.21,4.17,7.83c5.49,10.44,10.96,20.95,15.65,31.77
	c0.51,1.17,1.01,2.36,1.49,3.55c-8.5-2.58-17.16-4.61-25.92-6.1c-14.68-4.6-29.8-8.12-45.11-9.73
	C868.26,179.85,879.1,168.78,892.44,162.41z M860.27,195.38c2.31,0.23,4.62,0.5,6.92,0.81c7.39,1.02,14.7,2.47,21.94,4.24
	c-3.89-0.34-7.79-0.57-11.69-0.7c-6.37-0.21-12.76-0.13-19.13,0.22C858.91,198.4,859.57,196.88,860.27,195.38z M805.6,199.72
	c16.99-4.86,34.7-6.05,52.23-4.56c-0.74,1.62-1.44,3.27-2.06,4.94c-10.47,0.7-20.89,2.15-31.15,4.35l-0.96-0.96l0.2,1.12
	c-2.8,0.61-5.58,1.28-8.35,2.01l-3.85-5.13l-21.98,4C794.85,203.2,800.18,201.28,805.6,199.72z M816.44,207.86
	c2.55-0.65,5.11-1.24,7.69-1.79l2.91,16.47c-4.99-2.78-10.13-5.21-15.46-6.93l6.1-6.1L816.44,207.86z M825.86,205.69
	c2.74-0.56,5.49-1.06,8.25-1.52l-4.44,5.33L825.86,205.69z M784.67,220.5l23.42-2.81c3.26,0.88,6.46,2.05,9.6,3.48
	c3.34,1.53,6.57,3.26,9.74,5.11c-5.62,0.39-11.23,0.84-16.83,1.37c-9.92,0.92-19.82,2.06-29.69,3.38L784.67,220.5z M820.67,256.5
	l-10,12l-24-21l-12,1l5.51-15.42c0.43-0.05,0.87-0.11,1.29-0.16c12.01-1.58,24.05-2.87,36.12-3.85c3.48-0.28,6.97-0.53,10.46-0.76
	l1.62,9.2l-15-4l-3,9l5,5l17,3l1,6H820.67z M834.77,204.06c6.77-1.09,13.59-1.87,20.44-2.32c-0.91,2.64-1.69,5.33-2.28,8.06
	c-1.09,5.01-1.58,10.1-1.5,15.18c-4.32,0.16-8.65,0.38-12.97,0.61L834.77,204.06z M838.81,227.65c4.22-0.22,8.44-0.41,12.67-0.56
	c0.15,3.25,0.54,6.49,1.17,9.69c0.14,0.7,0.29,1.39,0.45,2.09c-4.59-2.79-9.2-5.87-13.89-8.9L838.81,227.65z M840.67,238.5
	l-0.76-4.46c2.03,1.31,4.07,2.62,6.11,3.91c2.69,1.69,5.4,3.34,8.12,4.97c0.01,0.03,0.02,0.05,0.02,0.08L840.67,238.5z
	 M926.67,252.5l-40-4v-14l-6,5l-7-2v6l-5,2l-6-6l-0.76,4.55c-2.02-1.16-4.04-2.33-6.05-3.53c-1.15-4.42-1.91-8.94-2.12-13.51
	c12.24-0.39,24.5-0.49,36.75-0.28c16.55,0.28,33.78,1.23,49.39,6.95c0.32,1.93,0.55,3.86,0.72,5.8
	C938.35,238.19,926.67,252.5,926.67,252.5z M947.67,262.5l5-5l-1-8c0,0-4.92-4.65-8.31-7.69c-0.11-2.36-0.34-4.71-0.68-7.05
	c3.86,1.58,7.62,3.47,11.23,5.75c8.07,5.09,15.11,11.97,19.58,20.45c2.56,4.85,4.13,10.1,4.84,15.48L947.67,262.5z M991.67,282.5
	l-11.08-5.04c-0.83-7.66-3.37-15.08-7.63-21.56c-5.25-7.97-12.68-14.33-20.95-19c-3.15-1.78-6.4-3.3-9.71-4.6
	c-0.91-5.17-2.3-10.27-4.02-15.29c19.25,7.88,38.12,16.83,55.96,27.53c3.53,3.41,6.79,7.11,9.72,11.05l-18.28,0.91l-1,8
	L991.67,282.5z M1026.67,293.5l-9.53-17.25c-3.53-10.23-9.29-19.65-16.51-27.8c7.29,4.56,14.44,9.43,20.98,14.97
	c7.52,6.36,14.55,14.02,18.19,23.32c0.78,2,1.41,4.08,1.86,6.2L1026.67,293.5z M1883.59,164.89l-3.92,2.61l-4.67-2.34
	C1877.85,164.95,1880.72,164.85,1883.59,164.89z M1865.69,166.27c1.05-0.17,2.1-0.32,3.15-0.46l1.44,5.27
	c-0.33-0.13-0.67-0.26-1-0.38c-3.2-1.19-6.43-2.29-9.69-3.31C1861.62,166.97,1863.65,166.6,1865.69,166.27z M1855.75,168.23
	c2.58,0.76,5.14,1.58,7.69,2.45c2.47,0.85,4.97,1.75,7.48,2.71l5.76,21.1l-22-4l-6,8l8,8l25,3l2.56,7.16
	c-2.27-0.88-4.58-1.69-6.87-2.47c-4.78-1.63-9.61-3.13-14.48-4.48c-1.87-0.52-3.74-1-5.62-1.48c-2.91-3.64-6.3-6.95-10.18-9.81
	c-1.57-1.16-3.21-2.24-4.88-3.26l0.47-2.65l-1.84,1.84c-8.17-4.73-17.32-7.89-26.54-10.05c1.19-0.67,2.39-1.34,3.6-1.97
	C1829.75,176.11,1842.62,171.29,1855.75,168.23z M1852.21,207c-3.87-0.91-7.76-1.72-11.67-2.46l1.08-6.11
	C1845.47,200.88,1849.06,203.71,1852.21,207z M1838.56,196.61l-1.89,1.89l-4.07-4.88c1.51,0.69,3.02,1.41,4.48,2.18
	C1837.58,196.06,1838.07,196.34,1838.56,196.61z M1709.11,186.98c12.97-11.23,29.33-17.72,45.85-21.67
	c17.77-4.25,36.18-5.84,54.43-4.95c13.72,0.67,27.37,2.77,40.65,6.27c-4.25,1.14-8.41,2.45-12.45,3.88
	c-9.63,3.4-18.97,7.62-27.72,12.83c-1.23-0.25-2.47-0.48-3.7-0.7c-26.94-4.74-57.19-1.75-79.16,15.88
	c-4.24,3.4-7.97,7.26-11.21,11.47c-9.5,2.68-18.83,5.97-27.74,10.07c-1.02,0.47-2.04,0.96-3.05,1.45
	C1690.61,208.49,1698.33,196.31,1709.11,186.98z M1742.65,203.95c-7.32,1.28-14.66,2.83-21.92,4.71
	c18.22-20.7,47.29-26.89,73.93-24.5c3.81,0.34,7.64,0.84,11.47,1.5c-3.99,2.56-7.84,5.34-11.52,8.37c-2.24,1.85-4.4,3.8-6.51,5.79
	C1772.88,199.93,1757.66,201.32,1742.65,203.95z M1784.65,203.22c-0.12,0.12-0.23,0.24-0.35,0.36c-0.53-0.12-1.07-0.22-1.61-0.32
	C1783.34,203.25,1783.99,203.24,1784.65,203.22z M1649.52,264.67c0.13-0.55,0.26-1.1,0.41-1.65c4.27-15.79,16.57-27.32,30.37-35.23
	c0.38-0.22,0.77-0.43,1.16-0.64c-2.19,5.94-4.01,12.01-5.6,18.11l-15.19-0.76L1649.52,264.67z M1674.67,271.5l7-18l-1-8l-3.61-0.18
	c1.57-6.06,3.38-12.05,5.59-17.92c0.14-0.38,0.3-0.77,0.45-1.15c9.34-5.02,19.36-8.79,29.58-11.83
	c-8.67,13.32-12.84,29.47-12.47,45.48L1674.67,271.5z M1725.67,228.5c-2.1,1.58-11,10-11,10l-1,8l5,5l-15.55,7.07
	c-0.03-2.55,0.05-5.11,0.27-7.67c1.14-13.45,5.72-26.83,13.73-37.76c4.28-1.18,8.58-2.25,12.87-3.23
	c11.94-2.74,24.07-4.64,36.27-5.72c-7.83,2.37-14.63,7.28-20.48,12.89c-5.04,4.83-9.58,10.22-13.76,15.82
	C1729.24,230.09,1726.56,227.83,1725.67,228.5z M1739.67,241.5c0,0-2.66-3.26-5.68-6.53c3.62-4.87,7.52-9.55,11.75-13.88
	c5.62-5.74,12.13-11.02,19.8-13.71c5.49-1.93,11.03-2.23,16.36-1.31c-6.29,6.8-11.9,14.22-16.87,22.02
	c-2.4,3.77-4.63,7.62-6.72,11.53L1739.67,241.5z M1804.67,234.5l-1-6l-6,6l-5-2v-6l-7,2l-6-5v14l-17.64,1.76
	c5.56-10.1,12.05-19.69,19.65-28.36c1.21-1.38,2.45-2.73,3.71-4.05c8.06,2.2,15.51,7.08,21.48,13.17c3.24,3.3,6.07,6.98,8.53,10.9
	L1804.67,234.5z M1825.67,227.5l-7.53,2.51c-6.77-11.12-16.67-20.59-28.98-25.03c-0.48-0.17-0.96-0.34-1.45-0.49
	c0.45-0.45,0.91-0.89,1.37-1.33c13.48-0.05,26.95,0.92,40.28,2.87L1825.67,227.5z M1829.91,202.77c-8.85-1.31-17.76-2.2-26.69-2.63
	c-3.53-0.17-7.06-0.25-10.59-0.28c5.56-4.97,11.53-9.44,17.9-13.35c7.23,1.52,14.34,3.69,21.03,6.64L1829.91,202.77z M1855.67,257.5
	l-10-12h-14l1-6l17-3l5-5l-3-9l-15,4l3.3-18.71c2.1,0.39,4.19,0.8,6.27,1.25c3.23,0.69,6.44,1.46,9.65,2.27
	c4.12,5.44,7.06,11.73,8.99,18.26c1.68,5.67,2.59,11.46,2.96,17.28L1855.67,257.5z M1908.88,212.71c1.4,8.39,0.79,17.19-0.91,25.56
	l-3.3,2.24c0,0-0.95-2.98-2.21-7.07c-0.19-0.75-0.41-1.5-0.68-2.23c-2.72-8.94-6.21-21.05-5.11-20.7
	C1897.42,210.73,1902.89,211.69,1908.88,212.71z M1903.89,198.04c0.25,0.45,0.46,0.91,0.7,1.37c-5.92-1.02-10.92-1.91-10.92-1.91
	l-3.32-14.12C1895.81,187.26,1900.55,192.01,1903.89,198.04z M1891.67,237.5l-12-1l-8.91,7.79c-0.27-3.04-0.69-6.08-1.3-9.1
	c-1.64-8.2-4.67-15.94-9.14-22.74c4.75,1.29,9.46,2.71,14.13,4.26c3.56,1.18,7.5,2.37,11.21,3.98L1891.67,237.5z"/>
<path class="st1" d="M352.67,215.5c0.1,0.49,0,6,0,6s1.07,3.43,2,4c0.93,0.57,1.65,3.76,2,4c0.35,0.24,0.47,2.29-1,2
	c-1.47-0.29-10-1-10-1s-2.2-5.18-3-6c-0.8-0.82-5.66-6.13-6-6c-0.34,0.13-4.41-0.72-5,0s-7,4-7,4s-6.73-4.16-7-4c-0.27,0.16-6,4-6,4
	l-7-4l-14,10l-5-3c0,0-10.21-2.23-11-2c-0.79,0.23-16,0-16,0s-3.93,6.63-4,8c-0.07,1.37,4.12,11.12,4,12c-0.12,0.88,5,8,5,8
	s-5.82,10.11-6,10s-16.32,7.88-17,7c-0.68-0.88-16.57,1.64-17,2c-0.43,0.36-4.16,3.11-3,4c1.16,0.89,3.57,7.55,3,8
	c-0.57,0.45-0.64,18.43-1,19c-0.36,0.57,3.11,25.04,3,26c-0.11,0.96,5.56,19.96,6,21c0.44,1.04,8.65,13.06,9,14
	c0.35,0.94,31,29,31,29l41,32l16,11l24,15l8,3l26-4l88-51c0,0,19.19-12.77,21-13c1.81-0.23,72.77-14.51,121,8
	c0.86,0.4,25.54,6.11,26,6c0.46-0.11,100.19-44.04,100-45c-0.19-0.96,4.42-10.9,4-12c-0.42-1.1,0-12,0-12l19-5l-29-38
	c0,0-59.2-7.47-60-8c-0.8-0.52-92.56-48.17-93-49c-0.44-0.83-37.8,0.99-38,0c-0.2-0.99,4-16,4-16l11-7l9-45l2-2l76-32l168-69l88-37
	l1-2l-1-7c0,0-2.93-5.41-3-6c-0.07-0.59-4-4-4-4l-5,1l-61,25l-139,58l-139,57l-10-4l-5-1l-41-2c0,0-2.62-10.11-3-10
	s-16.63-1.66-18-2c-1.37-0.34-19.27-1.64-20-2c-0.73-0.36-6-2-6-2l0,0c0,0-8.19,1.07-9,1c-0.81-0.07-9,3-9,3l-5,1l-3,7l-27,5l-5-4
	l-6-2l-7-1l-7,1l-6,6l-6,6l-4,3l-15,35l-8,22l-2,4l1,3l2,3l2,1C335.67,214.5,352.57,215.01,352.67,215.5z"/>
<g>
	<path class="st0" d="M347.83,192.05l18.08-47.47l-2.16,0.5c-2.72,0.63-4.95,2.57-5.94,5.18l-12.41,31.29
		c-1.15,2.91-0.73,6.21,1.13,8.73L347.83,192.05z"/>
	<path class="st0" d="M446.95,198.44c-10.92,1.39-81.57,5.11-91.1,4.65c-9.53-0.46-13.48-14.87-13.48-14.87l-5.98,15.19
		c-1.25,3.17,1.13,6.58,4.53,6.51c25.73-0.53,112.3-2.41,116.26-3.57c7.9-2.32,13.01-23.47,13.01-23.47S457.88,197.04,446.95,198.44
		z"/>
	<path class="st0" d="M562.98,149.1c1.05,0.95,1.79,1.63,2.3,2.1l55.22-23.18L562.98,149.1z"/>
	<path class="st0" d="M894.86,13.43c-0.43-1.11-0.78-2.25-1.05-3.41l-114.22,51.3l115.33-47.76L894.86,13.43z"/>
	<path class="st0" d="M564.67,150.8l-5.86-0.16l-18.28,6.7c0,0,0.12,0.84,0.52,1.83c0.41,0.99,1.25,1.68,1.25,1.68l22.88-9.61
		C564.9,151,564.67,150.8,564.67,150.8z"/>
	<path class="st0" d="M896.53,17.17c-0.99-1.74-1.16-2.21-1.16-2.21L542.76,162.18c0,0,1.6,1.19,3.34,1.6
		c1.07,0.25,3.2,0.24,4.53,0.04c0.88-0.13,1.73-0.37,2.55-0.71L898.33,19.49C898.33,19.49,897.52,18.91,896.53,17.17z"/>
	<path class="st0" d="M901.89,9.39c-1.83-4.7-4.57-8.03-6.12-7.42c-1.55,0.6-1.32,4.9,0.51,9.61c1.83,4.7,4.57,8.03,6.12,7.42
		C903.95,18.39,903.72,14.09,901.89,9.39z"/>
	<path class="st0" d="M240.19,270.79c0.06-0.01,0.13-0.03,0.19-0.05C240.32,270.76,240.25,270.77,240.19,270.79z"/>
	<path class="st0" d="M237.08,271.63c0.03-0.01,0.06-0.02,0.1-0.03C237.14,271.61,237.11,271.62,237.08,271.63z"/>
	<polygon class="st0" points="521.09,298.08 554.9,336.77 554.9,332.42 521.26,292.68 	"/>
	<path class="st0" d="M516.64,317.67l-3.45,6.73l4.53-0.7l4.3,8.13l3.72-0.46l0.7-2.29c0.4-1.33,2.11-1.69,3.02-0.64l2.21,2.57
		l0.32-1.56c0.46-2.26-0.08-4.6-1.47-6.44l-11-14.42c-1.42-1.86-4.01-2.35-6.01-1.15l-1.13,0.68l3.97,5.52
		C517.19,314.83,517.3,316.38,516.64,317.67z"/>
	<path class="st0" d="M521.67,336.35l7.46-0.98c0.98-0.13,1.68-0.83,1.92-1.66c-0.24,0.15-0.52,0.25-0.83,0.29l-7,0.92
		c-2.17,0.28-4.33-0.66-5.59-2.45l-5.61-7.92c-0.75-1.06-0.4-2.45,0.57-3.1l-1.26,0.17c-1.75,0.23-2.62,2.24-1.6,3.68l5.98,8.45
		C517.06,335.65,519.36,336.66,521.67,336.35z"/>
	<path class="st0" d="M562.81,253.4l13.57-0.51c1.05-0.04,1.95-0.76,2.23-1.77l0.58-2.13l-0.97,1.55c-0.48,0.77-1.32,1.25-2.23,1.27
		l-12.88,0.31c0.32-1.61,0.67-4.47-0.19-6.96c-1.28-3.72-6.04-6.39-6.04-6.39l-4.88,2.56c0,0-0.7,4.18,2.21,8.02
		C557.11,253.17,562.81,253.4,562.81,253.4z"/>
	<path class="st0" d="M579.48,301.88c-0.28-0.82-0.87-1.4-1.56-1.73c-1.22-1.28-4.9-1.77-6.23-0.64c-3.32,2.81-7.96,7.07-9.08,9.09
		c-1.34,2.41-0.46,4.24-0.46,4.24h0.41c-0.12-1.37,0.15-2.03,0.93-3.37c1.17-1.99,5.65-6.42,9.08-9.09
		c1.39-1.08,3.19-0.92,4.47-0.49c-0.79-0.1-1.63,0.08-2.32,0.66c-3.32,2.81-8.05,7.02-9.08,9.09c-1.63,3.25-0.46,6.16-0.46,6.16
		l15.89-1.86c0,0,1.2-3.49,0.15-6.86C580.74,305.61,580.08,303.63,579.48,301.88z"/>
	<path class="st0" d="M537.59,254.91l13.57-0.51c1.05-0.04,1.95-0.76,2.23-1.77l0.58-2.13l-0.97,1.55
		c-0.48,0.77-1.32,1.25-2.23,1.27l-12.88,0.31c0.32-1.61,0.67-4.47-0.19-6.96c-1.28-3.72-6.04-6.39-6.04-6.39l-4.88,2.56
		c0,0-0.7,4.18,2.21,8.02C531.9,254.68,537.59,254.91,537.59,254.91z"/>
	<polygon class="st0" points="548.17,333.19 520.04,299.3 517.52,299.39 544.97,334.42 	"/>
	<path class="st0" d="M545.84,279.43c3.83,3.83,10.95,4.29,16.34,3.86l32.52-2.56c2.03-0.16,3.83-1.34,4.79-3.13l1.07-2.01
		l-2.07,1.55c-0.92,0.69-2.03,1.1-3.18,1.18l-32.45,2.18c-6.27,0.42-12.41-1.92-16.82-6.4l-15.98-16.27
		c-4.12-4.2-6.72-9.65-7.38-15.5l-0.2-1.79l-2.31,1.83c-2.39,1.9-3.51,7.86-1.35,10.02L545.84,279.43z"/>
	<path class="st0" d="M599.35,297.36c-1.22-1.28-4.9-1.77-6.23-0.64c-3.32,2.81-7.96,7.07-9.08,9.09c-1.34,2.41-0.46,4.24-0.46,4.24
		h0.41c-0.12-1.37,0.15-2.03,0.93-3.37c1.17-1.99,5.65-6.42,9.08-9.09c1.39-1.08,3.19-0.92,4.47-0.49c-0.79-0.1-1.63,0.09-2.32,0.66
		c-3.32,2.81-8.05,7.02-9.08,9.09c-1.63,3.25-0.46,6.16-0.46,6.16l15.89-1.86c0,0,1.2-3.49,0.15-6.86c-0.46-1.48-1.12-3.46-1.72-5.2
		C600.64,298.27,600.05,297.69,599.35,297.36z"/>
	<path class="st0" d="M653.56,301.61c0.74-0.66,1.14-1.56,1.23-2.55c-0.17,0.39-0.41,0.74-0.73,1.03c-1.45,1.3-3.9,0.93-5.46-0.82
		c-1.56-1.75-1.65-4.22-0.19-5.52c0.4-0.35,0.87-0.58,1.38-0.69c-1.12-0.12-2.2,0.17-3.03,0.91c-1.75,1.56-1.65,4.54,0.23,6.65
		C648.86,302.73,651.8,303.17,653.56,301.61z"/>
	<path class="st0" d="M664.71,312.76c0.74-0.66,1.14-1.56,1.23-2.55c-0.17,0.39-0.41,0.74-0.73,1.03c-1.45,1.3-3.9,0.93-5.46-0.82
		c-1.56-1.75-1.65-4.22-0.19-5.52c0.4-0.35,0.87-0.58,1.38-0.69c-1.12-0.12-2.2,0.17-3.03,0.91c-1.75,1.56-1.65,4.54,0.23,6.65
		C660.01,313.89,662.96,314.33,664.71,312.76z"/>
	<path class="st0" d="M628.87,302.35l-2.93,5.71l3.84-0.59l3.65,6.9l3.15-0.39l0.59-1.94c0.34-1.13,1.79-1.43,2.56-0.54l1.88,2.18
		l0.27-1.32c0.39-1.91-0.06-3.9-1.25-5.46l-9.33-12.23c-1.2-1.58-3.4-2-5.1-0.98l-0.96,0.57l3.36,4.68
		C629.33,299.94,629.43,301.25,628.87,302.35z"/>
	<path class="st0" d="M904.38,8.41c-4.02-9.51-8.63-8.47-8.83-8.42L895.5,0L554.45,140.77c-7.42-3.76-13.83-4.96-13.83-4.96
		l-40.9-1.76v-0.8v-2.15v-2.15v-1.98v-2.15c0,0-3.02-4.65-36.72-4.65c-1.81,0-3.51,0.02-5.16,0.04c-3.01-1.11-6.29-1.72-9.72-1.72
		c-4.62,0-9.06,1.13-12.99,3.19c-9.05,1.28-10.95,2.91-10.95,2.91v2.15v1.98v1.74c-7.74,1.02-16.95,2.45-26.07,3.95
		c-4.12-4.06-9.96-6.62-16.45-6.62c-3.78,0-7.52,0.88-10.81,2.54c-5.01,2.53-8.7,6.65-10.5,11.47c-2.64,1.51-4.73,3.86-5.89,6.8
		l-21.79,55.37c-0.86,2.19-0.57,4.65,0.78,6.58c1.32,1.89,3.46,3,5.75,3c0.06,0,0.11,0,0.17,0l14.17-0.34
		c-0.51,1.25-0.8,2.62-0.8,4.06v1.61c0,2.93,1.18,5.58,3.09,7.51l-7.15-0.11c-0.25-1.25-1.1-3.74-3.96-6.81
		c-4.31-4.63-9.86-3.49-10.87-3.23l0-0.01l-0.02,0.02c-0.09,0.02-0.16,0.04-0.16,0.04l-0.01,0.06l-4.71,3.08l-8.47-3.08l0-0.12
		l-0.12,0.08l-0.06-0.02l-0.01,0.06l-4.86,3.18l-8.67-3.18l0-0.12l-0.12,0.08l-0.06-0.02l-0.01,0.06l-13.84,9.05l-0.09,0
		c-2.47-2.15-5.6-3.56-9.05-3.88c-0.5-0.05-1.01-0.08-1.52-0.08c-8.92,0-16.15,7.23-16.15,16.15c0,7.1,4.59,13.11,10.95,15.28
		c-7.2-1.62-12.58-7.99-12.58-15.63c0-8.4,6.5-15.27,14.78-15.97l-13.93-0.76c-0.55-0.07-1.1-0.12-1.66-0.12
		c-0.1,0-0.19,0.01-0.29,0.02l-0.29-0.02l0,0.03c-7.11,0.33-12.78,6.61-12.78,14.32c0,7.29,5.06,13.29,11.61,14.21l0.44,0.11
		l-16.79,13.3l-1.75,0.03l-0.25-0.06l-17.64,0.3l-2.95-0.79l-4.12,10.71l1.85-0.19c-0.38,9.32-1.21,55.9,17.78,86.45
		c10.75,17.29,111,91.45,122.8,93.67c1.28,0.24,2.87,0.18,4.69-0.09c13.37-0.28,51.34-1.27,60.48-3.55
		c11.16-2.79,56.82-29.98,61.01-36.95c2.49-4.14,3.97-8.79,4.85-13.7l0.03-0.01c0,0,0,0.02,0,0.02l3.54-0.49
		c0,0,0.01-0.09,0.02-0.21l77.67-14.93c11.77,4.22,57.14,20.3,66.22,20.61c10.46,0.35,92.73-32.42,98.31-36.6
		c5.58-4.18,9.06-10.11,10.46-15.34c1.39-5.23,0-24.05,0-24.05l-29,4.12l-0.1-0.16l47.28-7.44l-50.2,7.9l-26.79-42.96l-11.59-2.48
		l21.37,49.85l-3.32,0.58l0.94-0.16l5.4,5.4c0,0-3.83,26.84-6.97,30.68c-1.54,1.89-10.44,5.72-19.86,9.12
		c5.07-6.93,8.6-16.31,9.53-26.86c0.34-3.93,0.31-7.77-0.08-11.43v0l9.8-6.53L511.1,368.79l-1.94-1.07l-77.27,14.04
		c-5.46,1.23-10.97-1.43-13.52-6.3c0.61,8.69,0.96,17.28,0.58,22.85c-1.05,15.34-1.05,17.43-6.97,24.4
		c-5.93,6.97-41.83,27.54-52.99,25.45c-11.16-2.09-106.29-71.97-116.08-88.54c-16.27-27.54-16.73-61.7-16.73-61.7
		s-1.05-15.34,3.49-21.96c0.32-0.47,0.75-0.91,1.25-1.32c0,0-0.01,0.01-0.01,0.01l-6.88-2.61l17.42-1.81l0.48,0.2
		c0.76-0.15,1.52-0.3,2.28-0.42c12.84,5.17,31.21,12.1,49.6,17.47c33.47,9.76,85.29,21.85,85.29,21.85l20.68,13.01l94.21-11.73
		l-1.01,0.46l25.1,55.43l2.54-1.15l-25.1-55.43l-0.99,0.45l-49.08-14.86l-48.11,2.44l-1.7,0.24l-6.5-1.57l9.01-65.14l182.67-2.79
		l93.43,48.8l3.06,7.14l16.05,3.43l42.99-3.83l30.21,39.51l-0.06-0.08l0.05,0l2.53-0.4l-29.92-39l0.39-0.03l-45.09-12.55
		l-17.08,1.53l-91.45-47.77l-35.79,0.55c1.66-1.89,2.68-4.35,2.68-7.06v-1.61c0-2.16-0.65-4.17-1.75-5.85l11.86,0.15l-131.17-1.61
		l-92.43,2.2c-1.91,0.03-3.66-0.85-4.74-2.4c-1.08-1.55-1.31-3.52-0.62-5.27l21.79-55.37c1.56-3.95,4.98-6.77,9.15-7.52
		c7.07-1.28,17.66-3.17,28.8-5.04c-3.99-3.98-9.7-6.49-16.05-6.49c-0.97,0-1.92,0.07-2.85,0.18c2.2-0.69,4.52-1.05,6.86-1.05
		c6.38,0,12.09,2.61,15.97,6.71c17.61-2.91,35.72-5.58,42.84-5.58c0.41,0,0.78,0.01,1.11,0.03c12.25,0.66,17.16,2.47,17.53,2.61
		l5.11,2.6c-0.6-0.93-0.99-1.5-0.99-1.5l3.51,0.15c-4.34-7.29-12.76-12.23-22.45-12.23c-3.7,0-7.21,0.73-10.38,2.03
		c4.14-2.66,9.06-4.12,14.21-4.12c10.53,0,19.53,6.03,23.15,14.52l69.61,2.97c0,0,6.64,1.92,12.92,5.17L895.92,1.34
		c0.39-0.05,3.87-0.21,7.18,7.62c3.08,7.29,0.6,10.19,0.15,10.63L555.48,163.62c-0.12,0.05-12.5,4.38-15.89-1.55
		c-2.34-4.09-2.65-7.79-0.94-11.01c0.18-0.34,0.39-0.66,0.62-0.97l-5.92-0.16c-1.55,3.42-1.64,7.76,0.35,12.67
		c0.08,0.19-0.46,0.06-1.68,0.52c-0.86,0.33-1.57,0.64-1.57,0.64c-1.95-4.99-2.35-9.86-0.99-13.94l-1.96-0.05
		c-1.21,4.12-1.06,8.89,0.74,13.5c3.85,9.86,13.76,15.2,22.13,11.93c0.72-0.28,1.4-0.64,2.05-1.03c-1.13,0.93-2.39,1.7-3.79,2.25
		c-8.38,3.27-18.29-2.07-22.13-11.93c-1.99-5.09-1.96-10.38-0.32-14.76l-1.28-0.04c-0.85,2.31-1.59,5.37-1.25,8.54
		c0.7,6.51,2.79,9.99,2.79,9.99l-11.85,6.51c0,0-4.76-7.32-2.56-15.11c1.38-4.85,5.81-8.83,5.81-8.83l2.17-1.24l-30-0.83l9.63,4.91
		l-31.78,51.67l-9.36,3.44c-0.96,0.88-1.56,1.32-1.56,1.32l108.76-1.05c0,0,1.98-0.29,4.38-1.98c5.12-3.62,12.15-13.69,5.73-41.25
		c-0.67-2.88-1.68-5.49-2.93-7.87L903.89,20.83l0.18-0.1C904.23,20.59,908.12,17.26,904.38,8.41z M630.74,371.55
		c1.64,5.26,4.08,9.86,7.1,13.5c-11.05-3.03-24.93-7.38-30.2-9.06L630.74,371.55z M295.4,236.99c-0.89-5.49-6.35-9.72-12.97-9.72
		c-6.62,0-12.08,4.23-12.97,9.72c-0.08-0.52-0.14-1.04-0.14-1.58c0-6.24,5.87-11.29,13.12-11.29c7.24,0,13.12,5.06,13.12,11.29
		C295.55,235.95,295.49,236.47,295.4,236.99z M305.65,226.97l-13.25-0.52l13.6-8.89L305.65,226.97z M306.12,226.44l13.6-8.89
		l-0.35,9.41L306.12,226.44z M332.73,226.97l-13.25-0.52l13.6-8.89L332.73,226.97z"/>
	<path class="st0" d="M372.59,383.57c0,5.21-1.9,9.49-4.33,9.97c0.12,0.02,0.23,0.05,0.35,0.05c2.65,0,4.79-4.49,4.79-10.02
		c0-5.54-2.15-10.02-4.79-10.02c-0.14,0-0.29,0.01-0.43,0.04C370.65,374.01,372.59,378.31,372.59,383.57z"/>
	<path class="st0" d="M363.68,387.18c0.52,2.44,1.44,4.31,2.56,5.11c0,0,0,0,0,0c0.01,0.01,0.01,0.01,0.02,0.02
		c0.38,0.27,0.79,0.42,1.21,0.42c2.34,0,4.24-4.49,4.24-10.02c0-3.11-0.73-4.5-1.45-6.07c0.29,1.35,0.78,2.44,0.81,4.94
		c0.06,5.53-1.65,9.67-3.99,9.67C365.69,391.24,364.46,389.64,363.68,387.18z"/>
	<path class="st0" d="M364.31,380.7c-0.1,0-0.2,0.04-0.29,0.05c1.11,0.25,1.95,1.49,1.95,3c0,1.51-0.85,2.75-1.96,3
		c0.1,0.02,0.2,0.05,0.3,0.05c1.3,0,2.35-1.37,2.35-3.05C366.66,382.06,365.61,380.7,364.31,380.7z"/>
	<path class="st0" d="M318.59,365.08c0.47,2.21,1.31,3.91,2.32,4.64c0,0,0,0,0,0c0.01,0.01,0.01,0.01,0.02,0.02
		c0.35,0.25,0.72,0.38,1.1,0.38c2.13,0,3.85-4.07,3.85-9.1c0-2.82-0.66-4.09-1.32-5.51c0.26,1.22,0.71,2.21,0.74,4.48
		c0.06,5.02-1.49,8.78-3.62,8.78C320.41,368.77,319.29,367.32,318.59,365.08z"/>
	<path class="st0" d="M326.67,361.81c0,4.73-1.72,8.61-3.93,9.05c0.11,0.02,0.21,0.04,0.32,0.04c2.4,0,4.35-4.07,4.35-9.1
		c0-5.02-1.95-9.1-4.35-9.1c-0.13,0-0.26,0.01-0.39,0.04C324.91,353.13,326.67,357.04,326.67,361.81z"/>
	<path class="st0" d="M319.15,359.2c-0.09,0-0.18,0.03-0.27,0.05c1,0.23,1.77,1.35,1.77,2.72c0,1.37-0.77,2.5-1.77,2.72
		c0.09,0.02,0.18,0.05,0.27,0.05c1.18,0,2.14-1.24,2.14-2.77C321.29,360.44,320.33,359.2,319.15,359.2z"/>
	<path class="st0" d="M288.72,342.77c0,4.15-1.52,7.56-3.45,7.95c0.09,0.01,0.19,0.04,0.28,0.04c2.11,0,3.82-3.58,3.82-7.99
		c0-4.41-1.71-7.99-3.82-7.99c-0.11,0-0.23,0.01-0.34,0.03C287.18,335.15,288.72,338.58,288.72,342.77z"/>
	<path class="st0" d="M281.63,345.65c0.41,1.94,1.15,3.43,2.04,4.08c0,0,0,0,0,0c0.01,0.01,0.01,0.01,0.02,0.02
		c0.31,0.22,0.63,0.33,0.97,0.33c1.87,0,3.38-3.58,3.38-7.99c0-2.48-0.58-3.59-1.16-4.84c0.23,1.07,0.63,1.95,0.65,3.94
		c0.05,4.41-1.31,7.71-3.18,7.71C283.23,348.89,282.24,347.61,281.63,345.65z"/>
	<path class="st0" d="M282.12,340.48c-0.08,0-0.16,0.03-0.23,0.04c0.88,0.2,1.55,1.19,1.55,2.39c0,1.2-0.67,2.19-1.56,2.39
		c0.08,0.01,0.16,0.04,0.24,0.04c1.04,0,1.88-1.09,1.88-2.43C284,341.57,283.16,340.48,282.12,340.48z"/>
	<g>
		<path class="st0" d="M253.96,321.61c0,3.35-1.22,6.11-2.79,6.42c0.08,0.01,0.15,0.03,0.23,0.03c1.7,0,3.09-2.89,3.09-6.45
			c0-3.56-1.38-6.45-3.09-6.45c-0.09,0-0.18,0.01-0.27,0.03C252.71,315.45,253.96,318.22,253.96,321.61z"/>
		<path class="st0" d="M248.22,323.93c0.33,1.57,0.93,2.77,1.65,3.29c0,0,0,0,0,0c0,0.01,0.01,0.01,0.01,0.01
			c0.25,0.17,0.51,0.27,0.78,0.27c1.51,0,2.73-2.89,2.73-6.45c0-2-0.47-2.9-0.93-3.91c0.18,0.87,0.51,1.57,0.52,3.18
			c0.04,3.56-1.06,6.23-2.57,6.23C249.52,326.55,248.72,325.52,248.22,323.93z"/>
		<path class="st0" d="M257.03,358.8c-0.22,0.02-0.44,0.03-0.67,0.02l-0.64,0.39l16.62-2.86l-7.87-6.15
			C262.72,354.81,259.97,358.5,257.03,358.8z"/>
		<path class="st0" d="M416.51,390.28l-3.83-45.67l-176.8-63.1c-2.9-1.1-6.07,0.76-6.54,3.82c-0.99,6.47-2.19,16.86-1.07,24.07
			c1.14,7.26,7.61,15.7,12,20.7c-3.49-20.02,0.56-37.2,7.5-38.03c-4.85,0.72-7.83,11.39-7.83,27.25c0,4.3,0.52,8.34,1.38,11.96
			c1.8,1.99,3.05,3.2,3.05,3.2l0.78,0.61c-1.12-4.25-1.84-9.29-1.84-14.78c0-15.8,2.53-26.26,6.62-26.26c0.15,0,0.3,0.02,0.44,0.05
			c-3.82,0.75-6.17,11-6.17,26.21c0,5.89,0.84,11.25,2.1,15.68l10.85,8.47c1.47-3.1,2.46-7.93,2.95-13.98
			c0.09,0.77,0.14,1.2,0.14,1.2s-0.39,7.66-2.03,13.61l2.31,1.81l-4.09,11.5c2.86-0.83,5.2-4.18,6.8-9.2l-0.19-0.33l0.24,0.19
			c2.17-6.87,2.97-16.81,1.87-27.71c-1.9-18.67-8.72-33.47-15.63-34.5c0.07-0.01,0.15-0.03,0.22-0.04
			c7.33-0.74,14.89,14.72,16.91,34.54c1.16,11.4,0.22,21.75-2.17,28.63l7.87,6.15c-0.04-0.18-0.07-0.35-0.11-0.53
			c-5.12-25.86-0.06-48.55,8.82-49.61c-6.01,0.89-9.7,14.1-9.7,33.75c0,6.42,0.94,12.37,2.42,17.51l4.43,3.46
			c-1.61-5.55-2.68-12.32-2.68-19.74c0-19.57,3.13-32.52,8.2-32.52c0.18,0,0.37,0.02,0.55,0.06c-4.73,0.93-7.64,13.62-7.64,32.46
			c0,7.95,1.23,15.13,3.02,20.88l1.4,1.09l-0.56,1.38c2.12,5.76,4.8,9.67,7.19,10.86l1.17,0.12c1.06-0.47,2.01-1.38,2.86-2.69
			l0.32-0.55l0.23-0.37c2.05-3.78,3.41-10.07,4.07-18.12c0.12,0.95,0.18,1.49,0.18,1.49s-0.53,10.3-2.78,17.78l6.25,4.88
			c2.9-8.52,4.03-21.23,2.61-35.21c-2.35-23.12-10.8-41.45-19.36-42.73c0.09-0.01,0.18-0.04,0.27-0.05
			c9.07-0.92,18.45,18.23,20.94,42.78c1.48,14.61,0.19,27.84-3.08,36.44l-4.34,5.62l4.13,2.03l10.3,3.33
			c-1.29-3.63-2.49-8.07-3.56-13.48c-5.83-29.43-0.07-55.26,10.04-56.47c-6.84,1.01-11.04,16.06-11.04,38.41
			c0,12.93,3.33,24.17,7.54,31.59l1.29,0.03l2.97,2.32c-3.83-7-7.06-18.79-7.06-32.55c0-22.28,3.57-37.01,9.33-37.01
			c0.21,0,0.42,0.03,0.63,0.07c-5.39,1.05-8.69,15.5-8.69,36.95c0,15.07,3.88,27.76,8.17,34.4l5.9,4.61
			c4.46-2.16,7.26-11.29,8.35-24.67c0.13,1.08,0.2,1.69,0.2,1.69s-0.92,17.88-5.31,25.51l7.05,5.51c4.9-9.2,7.12-26.2,5.18-45.29
			c-2.67-26.32-12.29-47.18-22.03-48.64c0.1-0.02,0.21-0.04,0.31-0.05c10.33-1.05,21,20.75,23.83,48.69
			c2.49,24.54-1.89,45.64-9.99,51.13l11.97,1.4l15.43,12.05c-3.87-4.46-7.33-12.57-10.07-26.4c-6.43-32.43-0.08-60.89,11.06-62.22
			c-7.54,1.11-12.16,17.69-12.16,42.33c0,25.51,11.78,45.11,19.8,45.11c0.47,0,0.93-0.08,1.38-0.2c-0.09,0.01-0.17,0.03-0.26,0.03
			c-6.35,0-15.69-18.85-15.69-43.4c0-24.55,3.93-40.79,10.28-40.79c0.23,0,0.46,0.03,0.69,0.08c-5.94,1.16-9.58,17.08-9.58,40.71
			c0,23.47,8.53,41.72,14.83,43.28c5.31-1.76,8.62-12.07,9.87-27.48c0.15,1.19,0.22,1.86,0.22,1.86s-1.63,31.84-10.69,31.84
			c-1.69,0-3.35-0.31-4.96-1.06l12.43,9.7c8.82-6.21,13.58-29.34,10.86-56.22c-2.94-29-13.55-51.99-24.28-53.6
			c0.11-0.02,0.23-0.05,0.34-0.06c11.38-1.15,23.14,22.87,26.26,53.66c2.52,24.82-1.34,46.46-8.9,54.52
			c6.02-2.65,17.18-7.97,24.39-13.92C419.65,414.34,416.51,390.28,416.51,390.28z M255.49,310.62c2.31,0,4.19,5.33,4.19,11.89
			c0,6.53-1.86,11.83-4.15,11.89c2.03-0.83,3.59-5.8,3.59-11.83c0-6.57-1.85-11.89-4.14-11.96
			C255.19,310.61,255.39,310.62,255.49,310.62z M253.73,310.6c2.31,0,4.19,5.36,4.19,11.97c0,6.61-1.88,11.97-4.19,11.97
			c-1.66,0-3.09-2.76-3.77-6.76c-0.95-0.61-1.7-2.15-2.01-4.12c-0.73-0.14-1.28-0.95-1.28-1.93c0-0.97,0.54-1.77,1.25-1.93
			c0.34-2.39,1.31-4.2,2.51-4.56C251.19,312.42,252.39,310.6,253.73,310.6z M290.62,329.16c2.87,0,5.19,6.6,5.19,14.73
			c0,8.09-2.3,14.65-5.14,14.72c2.51-1.03,4.45-7.19,4.45-14.65c0-8.13-2.29-14.73-5.13-14.81
			C290.26,329.15,290.5,329.16,290.62,329.16z M288.45,329.13c2.87,0,5.19,6.64,5.19,14.82c0,8.19-2.32,14.82-5.19,14.82
			c-2.06,0-3.83-3.42-4.67-8.37c-1.17-0.76-2.11-2.67-2.49-5.1c-0.9-0.18-1.59-1.18-1.59-2.39c0-1.2,0.67-2.19,1.55-2.39
			c0.42-2.96,1.62-5.2,3.11-5.65C285.3,331.39,286.78,329.13,288.45,329.13z M328.83,346.31c3.26,0,5.91,7.51,5.91,16.77
			c0,9.21-2.62,16.68-5.85,16.76c2.86-1.17,5.06-8.18,5.06-16.68c0-9.26-2.61-16.77-5.84-16.86
			C328.41,346.3,328.69,346.31,328.83,346.31z M326.35,346.28c3.26,0,5.91,7.55,5.91,16.87c0,9.32-2.64,16.87-5.91,16.87
			c-2.34,0-4.36-3.89-5.31-9.53c-1.34-0.86-2.4-3.03-2.84-5.8c-1.02-0.2-1.81-1.34-1.81-2.73c0-1.36,0.76-2.49,1.77-2.72
			c0.47-3.37,1.85-5.92,3.54-6.43C322.77,348.85,324.45,346.28,326.35,346.28z M374.97,366.49c3.59,0,6.51,8.27,6.51,18.48
			c0,10.15-2.88,18.38-6.45,18.47c3.15-1.29,5.58-9.02,5.58-18.38c0-10.2-2.88-18.47-6.44-18.58
			C374.51,366.48,374.81,366.49,374.97,366.49z M372.24,366.46c3.59,0,6.51,8.32,6.51,18.59c0,10.27-2.91,18.59-6.51,18.59
			c-2.58,0-4.8-4.29-5.86-10.5c-1.47-0.95-2.64-3.34-3.13-6.39c-1.13-0.22-2-1.48-2-3c0-1.5,0.84-2.75,1.95-3
			c0.52-3.71,2.04-6.53,3.9-7.09C368.3,369.29,370.15,366.46,372.24,366.46z"/>
		<path class="st0" d="M248.63,319.76c-0.07,0-0.13,0.02-0.19,0.03c0.71,0.16,1.25,0.96,1.25,1.93c0,0.97-0.54,1.77-1.26,1.93
			c0.06,0.01,0.13,0.03,0.19,0.03c0.84,0,1.51-0.88,1.51-1.96C250.14,320.64,249.46,319.76,248.63,319.76z"/>
	</g>
</g>
</svg>
